G75*
%MOIN*%
%OFA0B0*%
%FSLAX25Y25*%
%IPPOS*%
%LPD*%
%AMOC8*
5,1,8,0,0,1.08239X$1,22.5*
%
%ADD10C,0.00000*%
%ADD11C,0.00300*%
%ADD12C,0.00200*%
%ADD13C,0.00800*%
%ADD14C,0.02400*%
%ADD15C,0.00600*%
%ADD16R,0.01800X0.04300*%
%ADD17R,0.04300X0.01800*%
%ADD18C,0.01000*%
D10*
X0001000Y0001000D02*
X0001000Y0196000D01*
X0237000Y0196000D01*
X0237000Y0020500D01*
X0221900Y0020500D01*
X0221900Y0001000D01*
X0001000Y0001000D01*
X0048244Y0098441D02*
X0048248Y0098794D01*
X0048261Y0099146D01*
X0048283Y0099498D01*
X0048313Y0099850D01*
X0048352Y0100200D01*
X0048400Y0100550D01*
X0048456Y0100898D01*
X0048520Y0101244D01*
X0048593Y0101589D01*
X0048675Y0101933D01*
X0048765Y0102274D01*
X0048863Y0102612D01*
X0048969Y0102949D01*
X0049084Y0103282D01*
X0049207Y0103613D01*
X0049338Y0103940D01*
X0049477Y0104264D01*
X0049624Y0104585D01*
X0049778Y0104902D01*
X0049941Y0105215D01*
X0050111Y0105524D01*
X0050288Y0105829D01*
X0050473Y0106129D01*
X0050666Y0106425D01*
X0050865Y0106715D01*
X0051072Y0107001D01*
X0051285Y0107282D01*
X0051506Y0107557D01*
X0051733Y0107827D01*
X0051967Y0108091D01*
X0052207Y0108350D01*
X0052453Y0108602D01*
X0052705Y0108848D01*
X0052964Y0109088D01*
X0053228Y0109322D01*
X0053498Y0109549D01*
X0053773Y0109770D01*
X0054054Y0109983D01*
X0054340Y0110190D01*
X0054630Y0110389D01*
X0054926Y0110582D01*
X0055226Y0110767D01*
X0055531Y0110944D01*
X0055840Y0111114D01*
X0056153Y0111277D01*
X0056470Y0111431D01*
X0056791Y0111578D01*
X0057115Y0111717D01*
X0057442Y0111848D01*
X0057773Y0111971D01*
X0058106Y0112086D01*
X0058443Y0112192D01*
X0058781Y0112290D01*
X0059122Y0112380D01*
X0059466Y0112462D01*
X0059811Y0112535D01*
X0060157Y0112599D01*
X0060505Y0112655D01*
X0060855Y0112703D01*
X0061205Y0112742D01*
X0061557Y0112772D01*
X0061909Y0112794D01*
X0062261Y0112807D01*
X0062614Y0112811D01*
X0062967Y0112807D01*
X0063319Y0112794D01*
X0063671Y0112772D01*
X0064023Y0112742D01*
X0064373Y0112703D01*
X0064723Y0112655D01*
X0065071Y0112599D01*
X0065417Y0112535D01*
X0065762Y0112462D01*
X0066106Y0112380D01*
X0066447Y0112290D01*
X0066785Y0112192D01*
X0067122Y0112086D01*
X0067455Y0111971D01*
X0067786Y0111848D01*
X0068113Y0111717D01*
X0068437Y0111578D01*
X0068758Y0111431D01*
X0069075Y0111277D01*
X0069388Y0111114D01*
X0069697Y0110944D01*
X0070002Y0110767D01*
X0070302Y0110582D01*
X0070598Y0110389D01*
X0070888Y0110190D01*
X0071174Y0109983D01*
X0071455Y0109770D01*
X0071730Y0109549D01*
X0072000Y0109322D01*
X0072264Y0109088D01*
X0072523Y0108848D01*
X0072775Y0108602D01*
X0073021Y0108350D01*
X0073261Y0108091D01*
X0073495Y0107827D01*
X0073722Y0107557D01*
X0073943Y0107282D01*
X0074156Y0107001D01*
X0074363Y0106715D01*
X0074562Y0106425D01*
X0074755Y0106129D01*
X0074940Y0105829D01*
X0075117Y0105524D01*
X0075287Y0105215D01*
X0075450Y0104902D01*
X0075604Y0104585D01*
X0075751Y0104264D01*
X0075890Y0103940D01*
X0076021Y0103613D01*
X0076144Y0103282D01*
X0076259Y0102949D01*
X0076365Y0102612D01*
X0076463Y0102274D01*
X0076553Y0101933D01*
X0076635Y0101589D01*
X0076708Y0101244D01*
X0076772Y0100898D01*
X0076828Y0100550D01*
X0076876Y0100200D01*
X0076915Y0099850D01*
X0076945Y0099498D01*
X0076967Y0099146D01*
X0076980Y0098794D01*
X0076984Y0098441D01*
X0076980Y0098088D01*
X0076967Y0097736D01*
X0076945Y0097384D01*
X0076915Y0097032D01*
X0076876Y0096682D01*
X0076828Y0096332D01*
X0076772Y0095984D01*
X0076708Y0095638D01*
X0076635Y0095293D01*
X0076553Y0094949D01*
X0076463Y0094608D01*
X0076365Y0094270D01*
X0076259Y0093933D01*
X0076144Y0093600D01*
X0076021Y0093269D01*
X0075890Y0092942D01*
X0075751Y0092618D01*
X0075604Y0092297D01*
X0075450Y0091980D01*
X0075287Y0091667D01*
X0075117Y0091358D01*
X0074940Y0091053D01*
X0074755Y0090753D01*
X0074562Y0090457D01*
X0074363Y0090167D01*
X0074156Y0089881D01*
X0073943Y0089600D01*
X0073722Y0089325D01*
X0073495Y0089055D01*
X0073261Y0088791D01*
X0073021Y0088532D01*
X0072775Y0088280D01*
X0072523Y0088034D01*
X0072264Y0087794D01*
X0072000Y0087560D01*
X0071730Y0087333D01*
X0071455Y0087112D01*
X0071174Y0086899D01*
X0070888Y0086692D01*
X0070598Y0086493D01*
X0070302Y0086300D01*
X0070002Y0086115D01*
X0069697Y0085938D01*
X0069388Y0085768D01*
X0069075Y0085605D01*
X0068758Y0085451D01*
X0068437Y0085304D01*
X0068113Y0085165D01*
X0067786Y0085034D01*
X0067455Y0084911D01*
X0067122Y0084796D01*
X0066785Y0084690D01*
X0066447Y0084592D01*
X0066106Y0084502D01*
X0065762Y0084420D01*
X0065417Y0084347D01*
X0065071Y0084283D01*
X0064723Y0084227D01*
X0064373Y0084179D01*
X0064023Y0084140D01*
X0063671Y0084110D01*
X0063319Y0084088D01*
X0062967Y0084075D01*
X0062614Y0084071D01*
X0062261Y0084075D01*
X0061909Y0084088D01*
X0061557Y0084110D01*
X0061205Y0084140D01*
X0060855Y0084179D01*
X0060505Y0084227D01*
X0060157Y0084283D01*
X0059811Y0084347D01*
X0059466Y0084420D01*
X0059122Y0084502D01*
X0058781Y0084592D01*
X0058443Y0084690D01*
X0058106Y0084796D01*
X0057773Y0084911D01*
X0057442Y0085034D01*
X0057115Y0085165D01*
X0056791Y0085304D01*
X0056470Y0085451D01*
X0056153Y0085605D01*
X0055840Y0085768D01*
X0055531Y0085938D01*
X0055226Y0086115D01*
X0054926Y0086300D01*
X0054630Y0086493D01*
X0054340Y0086692D01*
X0054054Y0086899D01*
X0053773Y0087112D01*
X0053498Y0087333D01*
X0053228Y0087560D01*
X0052964Y0087794D01*
X0052705Y0088034D01*
X0052453Y0088280D01*
X0052207Y0088532D01*
X0051967Y0088791D01*
X0051733Y0089055D01*
X0051506Y0089325D01*
X0051285Y0089600D01*
X0051072Y0089881D01*
X0050865Y0090167D01*
X0050666Y0090457D01*
X0050473Y0090753D01*
X0050288Y0091053D01*
X0050111Y0091358D01*
X0049941Y0091667D01*
X0049778Y0091980D01*
X0049624Y0092297D01*
X0049477Y0092618D01*
X0049338Y0092942D01*
X0049207Y0093269D01*
X0049084Y0093600D01*
X0048969Y0093933D01*
X0048863Y0094270D01*
X0048765Y0094608D01*
X0048675Y0094949D01*
X0048593Y0095293D01*
X0048520Y0095638D01*
X0048456Y0095984D01*
X0048400Y0096332D01*
X0048352Y0096682D01*
X0048313Y0097032D01*
X0048283Y0097384D01*
X0048261Y0097736D01*
X0048248Y0098088D01*
X0048244Y0098441D01*
X0156905Y0098441D02*
X0156907Y0098572D01*
X0156913Y0098704D01*
X0156923Y0098835D01*
X0156937Y0098966D01*
X0156955Y0099096D01*
X0156977Y0099225D01*
X0157002Y0099354D01*
X0157032Y0099482D01*
X0157066Y0099609D01*
X0157103Y0099736D01*
X0157144Y0099860D01*
X0157189Y0099984D01*
X0157238Y0100106D01*
X0157290Y0100227D01*
X0157346Y0100345D01*
X0157406Y0100463D01*
X0157469Y0100578D01*
X0157536Y0100691D01*
X0157606Y0100803D01*
X0157679Y0100912D01*
X0157755Y0101018D01*
X0157835Y0101123D01*
X0157918Y0101225D01*
X0158004Y0101324D01*
X0158093Y0101421D01*
X0158185Y0101515D01*
X0158280Y0101606D01*
X0158377Y0101695D01*
X0158477Y0101780D01*
X0158580Y0101862D01*
X0158685Y0101941D01*
X0158792Y0102017D01*
X0158902Y0102089D01*
X0159014Y0102158D01*
X0159128Y0102224D01*
X0159243Y0102286D01*
X0159361Y0102345D01*
X0159480Y0102400D01*
X0159601Y0102452D01*
X0159724Y0102499D01*
X0159848Y0102543D01*
X0159973Y0102584D01*
X0160099Y0102620D01*
X0160227Y0102653D01*
X0160355Y0102681D01*
X0160484Y0102706D01*
X0160614Y0102727D01*
X0160744Y0102744D01*
X0160875Y0102757D01*
X0161006Y0102766D01*
X0161137Y0102771D01*
X0161269Y0102772D01*
X0161400Y0102769D01*
X0161532Y0102762D01*
X0161663Y0102751D01*
X0161793Y0102736D01*
X0161923Y0102717D01*
X0162053Y0102694D01*
X0162181Y0102668D01*
X0162309Y0102637D01*
X0162436Y0102602D01*
X0162562Y0102564D01*
X0162686Y0102522D01*
X0162810Y0102476D01*
X0162931Y0102426D01*
X0163051Y0102373D01*
X0163170Y0102316D01*
X0163287Y0102256D01*
X0163401Y0102192D01*
X0163514Y0102124D01*
X0163625Y0102053D01*
X0163734Y0101979D01*
X0163840Y0101902D01*
X0163944Y0101821D01*
X0164045Y0101738D01*
X0164144Y0101651D01*
X0164240Y0101561D01*
X0164333Y0101468D01*
X0164424Y0101373D01*
X0164511Y0101275D01*
X0164596Y0101174D01*
X0164677Y0101071D01*
X0164755Y0100965D01*
X0164830Y0100857D01*
X0164902Y0100747D01*
X0164970Y0100635D01*
X0165035Y0100521D01*
X0165096Y0100404D01*
X0165154Y0100286D01*
X0165208Y0100166D01*
X0165259Y0100045D01*
X0165306Y0099922D01*
X0165349Y0099798D01*
X0165388Y0099673D01*
X0165424Y0099546D01*
X0165455Y0099418D01*
X0165483Y0099290D01*
X0165507Y0099161D01*
X0165527Y0099031D01*
X0165543Y0098900D01*
X0165555Y0098769D01*
X0165563Y0098638D01*
X0165567Y0098507D01*
X0165567Y0098375D01*
X0165563Y0098244D01*
X0165555Y0098113D01*
X0165543Y0097982D01*
X0165527Y0097851D01*
X0165507Y0097721D01*
X0165483Y0097592D01*
X0165455Y0097464D01*
X0165424Y0097336D01*
X0165388Y0097209D01*
X0165349Y0097084D01*
X0165306Y0096960D01*
X0165259Y0096837D01*
X0165208Y0096716D01*
X0165154Y0096596D01*
X0165096Y0096478D01*
X0165035Y0096361D01*
X0164970Y0096247D01*
X0164902Y0096135D01*
X0164830Y0096025D01*
X0164755Y0095917D01*
X0164677Y0095811D01*
X0164596Y0095708D01*
X0164511Y0095607D01*
X0164424Y0095509D01*
X0164333Y0095414D01*
X0164240Y0095321D01*
X0164144Y0095231D01*
X0164045Y0095144D01*
X0163944Y0095061D01*
X0163840Y0094980D01*
X0163734Y0094903D01*
X0163625Y0094829D01*
X0163514Y0094758D01*
X0163402Y0094690D01*
X0163287Y0094626D01*
X0163170Y0094566D01*
X0163051Y0094509D01*
X0162931Y0094456D01*
X0162810Y0094406D01*
X0162686Y0094360D01*
X0162562Y0094318D01*
X0162436Y0094280D01*
X0162309Y0094245D01*
X0162181Y0094214D01*
X0162053Y0094188D01*
X0161923Y0094165D01*
X0161793Y0094146D01*
X0161663Y0094131D01*
X0161532Y0094120D01*
X0161400Y0094113D01*
X0161269Y0094110D01*
X0161137Y0094111D01*
X0161006Y0094116D01*
X0160875Y0094125D01*
X0160744Y0094138D01*
X0160614Y0094155D01*
X0160484Y0094176D01*
X0160355Y0094201D01*
X0160227Y0094229D01*
X0160099Y0094262D01*
X0159973Y0094298D01*
X0159848Y0094339D01*
X0159724Y0094383D01*
X0159601Y0094430D01*
X0159480Y0094482D01*
X0159361Y0094537D01*
X0159243Y0094596D01*
X0159128Y0094658D01*
X0159014Y0094724D01*
X0158902Y0094793D01*
X0158792Y0094865D01*
X0158685Y0094941D01*
X0158580Y0095020D01*
X0158477Y0095102D01*
X0158377Y0095187D01*
X0158280Y0095276D01*
X0158185Y0095367D01*
X0158093Y0095461D01*
X0158004Y0095558D01*
X0157918Y0095657D01*
X0157835Y0095759D01*
X0157755Y0095864D01*
X0157679Y0095970D01*
X0157606Y0096079D01*
X0157536Y0096191D01*
X0157469Y0096304D01*
X0157406Y0096419D01*
X0157346Y0096537D01*
X0157290Y0096655D01*
X0157238Y0096776D01*
X0157189Y0096898D01*
X0157144Y0097022D01*
X0157103Y0097146D01*
X0157066Y0097273D01*
X0157032Y0097400D01*
X0157002Y0097528D01*
X0156977Y0097657D01*
X0156955Y0097786D01*
X0156937Y0097916D01*
X0156923Y0098047D01*
X0156913Y0098178D01*
X0156907Y0098310D01*
X0156905Y0098441D01*
D11*
X0132505Y0098480D02*
X0132021Y0098963D01*
X0131053Y0098963D01*
X0130570Y0098480D01*
X0129558Y0098480D02*
X0129558Y0097512D01*
X0129074Y0097029D01*
X0127623Y0097029D01*
X0128591Y0097029D02*
X0129558Y0096061D01*
X0130570Y0096061D02*
X0132505Y0097996D01*
X0132505Y0098480D01*
X0132505Y0096061D02*
X0130570Y0096061D01*
X0129558Y0098480D02*
X0129074Y0098963D01*
X0127623Y0098963D01*
X0127623Y0096061D01*
X0097031Y0117034D02*
X0096548Y0116550D01*
X0095580Y0116550D01*
X0095097Y0117034D01*
X0094085Y0117034D02*
X0093601Y0116550D01*
X0092634Y0116550D01*
X0092150Y0117034D01*
X0092150Y0118969D01*
X0092634Y0119452D01*
X0093601Y0119452D01*
X0094085Y0118969D01*
X0095097Y0118969D02*
X0095580Y0119452D01*
X0096548Y0119452D01*
X0097031Y0118969D01*
X0097031Y0118485D01*
X0096548Y0118001D01*
X0097031Y0117517D01*
X0097031Y0117034D01*
X0096548Y0118001D02*
X0096064Y0118001D01*
X0120231Y0149857D02*
X0122166Y0149857D01*
X0122650Y0150341D01*
X0122650Y0151308D01*
X0122166Y0151792D01*
X0121199Y0152803D02*
X0121199Y0154738D01*
X0122650Y0154255D02*
X0119748Y0154255D01*
X0121199Y0152803D01*
X0120231Y0151792D02*
X0119748Y0151308D01*
X0119748Y0150341D01*
X0120231Y0149857D01*
X0138148Y0162234D02*
X0138631Y0161750D01*
X0140566Y0161750D01*
X0141050Y0162234D01*
X0141050Y0163201D01*
X0140566Y0163685D01*
X0140566Y0164697D02*
X0141050Y0165180D01*
X0141050Y0166148D01*
X0140566Y0166631D01*
X0139599Y0166631D01*
X0139115Y0166148D01*
X0139115Y0165664D01*
X0139599Y0164697D01*
X0138148Y0164697D01*
X0138148Y0166631D01*
X0138631Y0163685D02*
X0138148Y0163201D01*
X0138148Y0162234D01*
X0131852Y0181570D02*
X0129917Y0181570D01*
X0130884Y0181570D02*
X0130884Y0184472D01*
X0129917Y0183505D01*
X0128905Y0183988D02*
X0128905Y0183021D01*
X0128422Y0182537D01*
X0126970Y0182537D01*
X0126970Y0181570D02*
X0126970Y0184472D01*
X0128422Y0184472D01*
X0128905Y0183988D01*
X0127938Y0182537D02*
X0128905Y0181570D01*
X0163108Y0162022D02*
X0163108Y0160087D01*
X0163108Y0161538D02*
X0165043Y0161538D01*
X0165043Y0162022D02*
X0165043Y0160087D01*
X0166055Y0160087D02*
X0166055Y0162989D01*
X0167022Y0162022D01*
X0167990Y0162989D01*
X0167990Y0160087D01*
X0169001Y0160087D02*
X0170936Y0162022D01*
X0170936Y0162506D01*
X0170453Y0162989D01*
X0169485Y0162989D01*
X0169001Y0162506D01*
X0169001Y0160087D02*
X0170936Y0160087D01*
X0171948Y0160571D02*
X0172432Y0160087D01*
X0173399Y0160087D01*
X0173883Y0160571D01*
X0173883Y0162506D01*
X0173399Y0162989D01*
X0172432Y0162989D01*
X0171948Y0162506D01*
X0171948Y0162022D01*
X0172432Y0161538D01*
X0173883Y0161538D01*
X0174894Y0161538D02*
X0175862Y0161538D01*
X0174894Y0160087D02*
X0174894Y0162989D01*
X0176829Y0162989D01*
X0177841Y0162506D02*
X0178325Y0162989D01*
X0179292Y0162989D01*
X0179776Y0162506D01*
X0177841Y0160571D01*
X0178325Y0160087D01*
X0179292Y0160087D01*
X0179776Y0160571D01*
X0179776Y0162506D01*
X0180787Y0161538D02*
X0182722Y0161538D01*
X0183734Y0160571D02*
X0185669Y0162506D01*
X0185669Y0160571D01*
X0185185Y0160087D01*
X0184218Y0160087D01*
X0183734Y0160571D01*
X0183734Y0162506D01*
X0184218Y0162989D01*
X0185185Y0162989D01*
X0185669Y0162506D01*
X0187648Y0162989D02*
X0188615Y0162989D01*
X0188132Y0162989D02*
X0188132Y0160571D01*
X0187648Y0160087D01*
X0187164Y0160087D01*
X0186680Y0160571D01*
X0182239Y0160087D02*
X0182239Y0162989D01*
X0180787Y0161538D01*
X0177841Y0160571D02*
X0177841Y0162506D01*
X0165043Y0162022D02*
X0164076Y0162989D01*
X0163108Y0162022D01*
X0186650Y0116252D02*
X0188101Y0116252D01*
X0188585Y0115769D01*
X0188585Y0114801D01*
X0188101Y0114317D01*
X0186650Y0114317D01*
X0186650Y0113350D02*
X0186650Y0116252D01*
X0187617Y0114317D02*
X0188585Y0113350D01*
X0189597Y0113834D02*
X0190080Y0113350D01*
X0191048Y0113350D01*
X0191531Y0113834D01*
X0191531Y0114317D01*
X0191048Y0114801D01*
X0189597Y0114801D01*
X0189597Y0113834D01*
X0189597Y0114801D02*
X0190564Y0115769D01*
X0191531Y0116252D01*
X0190548Y0104252D02*
X0189580Y0104252D01*
X0189097Y0103769D01*
X0189097Y0103285D01*
X0189580Y0102801D01*
X0191031Y0102801D01*
X0191031Y0101834D02*
X0191031Y0103769D01*
X0190548Y0104252D01*
X0191031Y0101834D02*
X0190548Y0101350D01*
X0189580Y0101350D01*
X0189097Y0101834D01*
X0188085Y0101834D02*
X0187601Y0101350D01*
X0186634Y0101350D01*
X0186150Y0101834D01*
X0186150Y0103769D01*
X0186634Y0104252D01*
X0187601Y0104252D01*
X0188085Y0103769D01*
X0187664Y0095452D02*
X0187664Y0092550D01*
X0186697Y0092550D02*
X0188631Y0092550D01*
X0189643Y0093034D02*
X0191578Y0094969D01*
X0191578Y0093034D01*
X0191094Y0092550D01*
X0190127Y0092550D01*
X0189643Y0093034D01*
X0189643Y0094969D01*
X0190127Y0095452D01*
X0191094Y0095452D01*
X0191578Y0094969D01*
X0187664Y0095452D02*
X0186697Y0094485D01*
X0185685Y0094969D02*
X0185201Y0095452D01*
X0184234Y0095452D01*
X0183750Y0094969D01*
X0183750Y0093034D01*
X0184234Y0092550D01*
X0185201Y0092550D01*
X0185685Y0093034D01*
X0186019Y0065084D02*
X0183550Y0062615D01*
X0184167Y0063233D02*
X0186019Y0061381D01*
X0187233Y0061381D02*
X0189702Y0061381D01*
X0190916Y0061998D02*
X0193385Y0064467D01*
X0193385Y0061998D01*
X0192768Y0061381D01*
X0191533Y0061381D01*
X0190916Y0061998D01*
X0190916Y0064467D01*
X0191533Y0065084D01*
X0192768Y0065084D01*
X0193385Y0064467D01*
X0194599Y0063233D02*
X0197068Y0063233D01*
X0198283Y0061998D02*
X0198283Y0061381D01*
X0200751Y0061381D01*
X0201966Y0061381D02*
X0204434Y0061381D01*
X0205649Y0061381D02*
X0208118Y0063850D01*
X0208118Y0064467D01*
X0207500Y0065084D01*
X0206266Y0065084D01*
X0205649Y0064467D01*
X0203200Y0065084D02*
X0203200Y0061381D01*
X0205649Y0061381D02*
X0208118Y0061381D01*
X0209332Y0061998D02*
X0209332Y0062615D01*
X0209949Y0063233D01*
X0211184Y0063233D01*
X0211801Y0062615D01*
X0211801Y0061998D01*
X0211184Y0061381D01*
X0209949Y0061381D01*
X0209332Y0061998D01*
X0209949Y0063233D02*
X0209332Y0063850D01*
X0209332Y0064467D01*
X0209949Y0065084D01*
X0211184Y0065084D01*
X0211801Y0064467D01*
X0211801Y0063850D01*
X0211184Y0063233D01*
X0203200Y0065084D02*
X0201966Y0063850D01*
X0200751Y0064467D02*
X0198283Y0061998D01*
X0196451Y0061381D02*
X0196451Y0065084D01*
X0194599Y0063233D01*
X0198283Y0065084D02*
X0200751Y0065084D01*
X0200751Y0064467D01*
X0189702Y0065084D02*
X0187233Y0065084D01*
X0187233Y0061381D01*
X0187233Y0063233D02*
X0188468Y0063233D01*
X0183550Y0065084D02*
X0183550Y0061381D01*
X0188650Y0025578D02*
X0188650Y0023643D01*
X0188650Y0024611D02*
X0185748Y0024611D01*
X0186715Y0023643D01*
X0188650Y0022631D02*
X0188650Y0020697D01*
X0188650Y0021664D02*
X0185748Y0021664D01*
X0186715Y0020697D01*
X0186231Y0019685D02*
X0185748Y0019201D01*
X0185748Y0018234D01*
X0186231Y0017750D01*
X0188166Y0017750D01*
X0188650Y0018234D01*
X0188650Y0019201D01*
X0188166Y0019685D01*
X0195550Y0009652D02*
X0195550Y0006750D01*
X0196517Y0007717D01*
X0197485Y0006750D01*
X0197485Y0009652D01*
X0198497Y0008201D02*
X0198497Y0007234D01*
X0198980Y0006750D01*
X0199948Y0006750D01*
X0200431Y0007234D01*
X0200431Y0008201D01*
X0199948Y0008685D01*
X0198980Y0008685D01*
X0198497Y0008201D01*
X0201443Y0006750D02*
X0202411Y0006750D01*
X0201927Y0006750D02*
X0201927Y0009652D01*
X0201443Y0009652D01*
X0203407Y0008201D02*
X0204375Y0008201D01*
X0203891Y0009169D02*
X0204375Y0009652D01*
X0203891Y0009169D02*
X0203891Y0006750D01*
X0208318Y0006750D02*
X0208318Y0008685D01*
X0208318Y0007717D02*
X0209286Y0008685D01*
X0209769Y0008685D01*
X0210774Y0008201D02*
X0211257Y0008685D01*
X0212225Y0008685D01*
X0212709Y0008201D01*
X0212709Y0007717D01*
X0210774Y0007717D01*
X0210774Y0007234D02*
X0210774Y0008201D01*
X0210774Y0007234D02*
X0211257Y0006750D01*
X0212225Y0006750D01*
X0213720Y0008685D02*
X0214688Y0006750D01*
X0215655Y0008685D01*
X0216667Y0007234D02*
X0217150Y0007234D01*
X0217150Y0006750D01*
X0216667Y0006750D01*
X0216667Y0007234D01*
X0218140Y0006750D02*
X0219591Y0006750D01*
X0220075Y0007234D01*
X0220075Y0009169D01*
X0219591Y0009652D01*
X0218140Y0009652D01*
X0218140Y0006750D01*
X0208566Y0017750D02*
X0206631Y0017750D01*
X0206148Y0018234D01*
X0206148Y0019201D01*
X0206631Y0019685D01*
X0207115Y0020697D02*
X0206148Y0021664D01*
X0209050Y0021664D01*
X0209050Y0020697D02*
X0209050Y0022631D01*
X0209050Y0023643D02*
X0207115Y0025578D01*
X0206631Y0025578D01*
X0206148Y0025094D01*
X0206148Y0024127D01*
X0206631Y0023643D01*
X0209050Y0023643D02*
X0209050Y0025578D01*
X0208566Y0019685D02*
X0209050Y0019201D01*
X0209050Y0018234D01*
X0208566Y0017750D01*
X0156831Y0007252D02*
X0154897Y0007252D01*
X0154897Y0005801D01*
X0155864Y0006285D01*
X0156348Y0006285D01*
X0156831Y0005801D01*
X0156831Y0004834D01*
X0156348Y0004350D01*
X0155380Y0004350D01*
X0154897Y0004834D01*
X0153885Y0004350D02*
X0152917Y0005317D01*
X0153401Y0005317D02*
X0151950Y0005317D01*
X0151950Y0004350D02*
X0151950Y0007252D01*
X0153401Y0007252D01*
X0153885Y0006769D01*
X0153885Y0005801D01*
X0153401Y0005317D01*
X0143231Y0005801D02*
X0141297Y0005801D01*
X0142748Y0007252D01*
X0142748Y0004350D01*
X0140285Y0004350D02*
X0139317Y0005317D01*
X0139801Y0005317D02*
X0138350Y0005317D01*
X0138350Y0004350D02*
X0138350Y0007252D01*
X0139801Y0007252D01*
X0140285Y0006769D01*
X0140285Y0005801D01*
X0139801Y0005317D01*
X0115378Y0005520D02*
X0114894Y0005037D01*
X0113927Y0005037D01*
X0113443Y0005520D01*
X0113443Y0006004D01*
X0113927Y0006488D01*
X0114894Y0006488D01*
X0115378Y0006004D01*
X0115378Y0005520D01*
X0114894Y0006488D02*
X0115378Y0006972D01*
X0115378Y0007455D01*
X0114894Y0007939D01*
X0113927Y0007939D01*
X0113443Y0007455D01*
X0113443Y0006972D01*
X0113927Y0006488D01*
X0112431Y0007455D02*
X0111948Y0007939D01*
X0110980Y0007939D01*
X0110496Y0007455D01*
X0110496Y0005520D01*
X0110980Y0005037D01*
X0111948Y0005037D01*
X0112431Y0005520D01*
X0098743Y0007455D02*
X0096808Y0005520D01*
X0096808Y0005037D01*
X0095797Y0005520D02*
X0095313Y0005037D01*
X0094345Y0005037D01*
X0093862Y0005520D01*
X0093862Y0007455D01*
X0094345Y0007939D01*
X0095313Y0007939D01*
X0095797Y0007455D01*
X0096808Y0007939D02*
X0098743Y0007939D01*
X0098743Y0007455D01*
X0059238Y0033834D02*
X0058755Y0033350D01*
X0057787Y0033350D01*
X0057303Y0033834D01*
X0056292Y0033350D02*
X0055324Y0034317D01*
X0055808Y0034317D02*
X0054357Y0034317D01*
X0054357Y0033350D02*
X0054357Y0036252D01*
X0055808Y0036252D01*
X0056292Y0035769D01*
X0056292Y0034801D01*
X0055808Y0034317D01*
X0057303Y0035769D02*
X0057787Y0036252D01*
X0058755Y0036252D01*
X0059238Y0035769D01*
X0059238Y0035285D01*
X0058755Y0034801D01*
X0059238Y0034317D01*
X0059238Y0033834D01*
X0058755Y0034801D02*
X0058271Y0034801D01*
X0052361Y0055011D02*
X0051394Y0055011D01*
X0050910Y0055494D01*
X0050910Y0056462D01*
X0052361Y0056462D01*
X0052845Y0055978D01*
X0052845Y0055494D01*
X0052361Y0055011D01*
X0050910Y0056462D02*
X0051877Y0057429D01*
X0052845Y0057913D01*
X0049898Y0057429D02*
X0049414Y0057913D01*
X0048447Y0057913D01*
X0047963Y0057429D01*
X0047963Y0055494D01*
X0048447Y0055011D01*
X0049414Y0055011D01*
X0049898Y0055494D01*
X0091108Y0059438D02*
X0091725Y0058821D01*
X0092960Y0058821D01*
X0093577Y0059438D01*
X0091108Y0059438D02*
X0091108Y0061907D01*
X0091725Y0062524D01*
X0092960Y0062524D01*
X0093577Y0061907D01*
X0094791Y0061907D02*
X0096026Y0060673D01*
X0096026Y0058821D01*
X0096026Y0060673D02*
X0097260Y0061907D01*
X0097260Y0062524D01*
X0098475Y0062524D02*
X0100943Y0062524D01*
X0100943Y0061907D01*
X0098475Y0059438D01*
X0098475Y0058821D01*
X0102158Y0059438D02*
X0102775Y0058821D01*
X0104009Y0058821D01*
X0104626Y0059438D01*
X0105841Y0058821D02*
X0108310Y0058821D01*
X0107075Y0058821D02*
X0107075Y0062524D01*
X0105841Y0061290D01*
X0104626Y0061907D02*
X0104009Y0062524D01*
X0102775Y0062524D01*
X0102158Y0061907D01*
X0102158Y0059438D01*
X0094791Y0061907D02*
X0094791Y0062524D01*
X0109524Y0060673D02*
X0111993Y0060673D01*
X0113207Y0060673D02*
X0115676Y0060673D01*
X0116890Y0060673D02*
X0118125Y0060673D01*
X0119359Y0062524D02*
X0116890Y0062524D01*
X0116890Y0058821D01*
X0119359Y0058821D01*
X0115059Y0058821D02*
X0115059Y0062524D01*
X0113207Y0060673D01*
X0111376Y0062524D02*
X0111376Y0058821D01*
X0109524Y0060673D02*
X0111376Y0062524D01*
X0041766Y0153750D02*
X0039831Y0153750D01*
X0039348Y0154234D01*
X0039348Y0155201D01*
X0039831Y0155685D01*
X0039831Y0156697D02*
X0039348Y0157180D01*
X0039348Y0158148D01*
X0039831Y0158631D01*
X0040315Y0158631D01*
X0042250Y0156697D01*
X0042250Y0158631D01*
X0041766Y0155685D02*
X0042250Y0155201D01*
X0042250Y0154234D01*
X0041766Y0153750D01*
X0048741Y0177750D02*
X0049708Y0177750D01*
X0050192Y0178234D01*
X0051203Y0177750D02*
X0053138Y0177750D01*
X0052171Y0177750D02*
X0052171Y0180652D01*
X0051203Y0179685D01*
X0050192Y0180169D02*
X0049708Y0180652D01*
X0048741Y0180652D01*
X0048257Y0180169D01*
X0048257Y0178234D01*
X0048741Y0177750D01*
X0073150Y0164916D02*
X0073150Y0162981D01*
X0073150Y0164432D02*
X0075085Y0164432D01*
X0075085Y0164916D02*
X0075085Y0162981D01*
X0075085Y0164916D02*
X0074117Y0165884D01*
X0073150Y0164916D01*
X0076097Y0165884D02*
X0078031Y0165884D01*
X0077064Y0165884D02*
X0077064Y0162981D01*
X0079043Y0162981D02*
X0079043Y0165884D01*
X0080978Y0165884D01*
X0081990Y0164916D02*
X0082957Y0165884D01*
X0082957Y0162981D01*
X0081990Y0162981D02*
X0083925Y0162981D01*
X0084936Y0163465D02*
X0085420Y0162981D01*
X0086387Y0162981D01*
X0086871Y0163465D01*
X0086871Y0164432D01*
X0086387Y0164916D01*
X0085904Y0164916D01*
X0084936Y0164432D01*
X0084936Y0165884D01*
X0086871Y0165884D01*
X0087883Y0165400D02*
X0088366Y0165884D01*
X0089334Y0165884D01*
X0089818Y0165400D01*
X0087883Y0163465D01*
X0088366Y0162981D01*
X0089334Y0162981D01*
X0089818Y0163465D01*
X0089818Y0165400D01*
X0090829Y0165400D02*
X0091313Y0165884D01*
X0092280Y0165884D01*
X0092764Y0165400D01*
X0092764Y0164916D01*
X0090829Y0162981D01*
X0092764Y0162981D01*
X0087883Y0163465D02*
X0087883Y0165400D01*
X0080011Y0164432D02*
X0079043Y0164432D01*
D12*
X0187500Y0004968D02*
X0187500Y0003867D01*
X0187867Y0003500D01*
X0188234Y0003867D01*
X0188601Y0003500D01*
X0188968Y0003867D01*
X0188968Y0004968D01*
X0189710Y0004968D02*
X0189710Y0003867D01*
X0190077Y0003500D01*
X0190444Y0003867D01*
X0190811Y0003500D01*
X0191178Y0003867D01*
X0191178Y0004968D01*
X0191920Y0004968D02*
X0191920Y0003867D01*
X0192287Y0003500D01*
X0192654Y0003867D01*
X0193021Y0003500D01*
X0193388Y0003867D01*
X0193388Y0004968D01*
X0194130Y0003867D02*
X0194497Y0003867D01*
X0194497Y0003500D01*
X0194130Y0003500D01*
X0194130Y0003867D01*
X0195235Y0003500D02*
X0195235Y0005702D01*
X0195602Y0004968D02*
X0196336Y0004968D01*
X0196702Y0004601D01*
X0196702Y0003500D01*
X0197444Y0003867D02*
X0197811Y0004234D01*
X0198912Y0004234D01*
X0198912Y0004601D02*
X0198912Y0003500D01*
X0197811Y0003500D01*
X0197444Y0003867D01*
X0197811Y0004968D02*
X0198545Y0004968D01*
X0198912Y0004601D01*
X0199654Y0004968D02*
X0200755Y0004968D01*
X0201122Y0004601D01*
X0201122Y0003867D01*
X0200755Y0003500D01*
X0199654Y0003500D01*
X0199654Y0002766D02*
X0199654Y0004968D01*
X0201864Y0004968D02*
X0201864Y0002766D01*
X0201864Y0003500D02*
X0202965Y0003500D01*
X0203332Y0003867D01*
X0203332Y0004601D01*
X0202965Y0004968D01*
X0201864Y0004968D01*
X0204074Y0004968D02*
X0204074Y0003867D01*
X0204441Y0003500D01*
X0205542Y0003500D01*
X0205542Y0003133D02*
X0205175Y0002766D01*
X0204808Y0002766D01*
X0205542Y0003133D02*
X0205542Y0004968D01*
X0206284Y0004601D02*
X0206651Y0004968D01*
X0207752Y0004968D01*
X0207752Y0005702D02*
X0207752Y0003500D01*
X0206651Y0003500D01*
X0206284Y0003867D01*
X0206284Y0004601D01*
X0208494Y0003867D02*
X0208861Y0004234D01*
X0209962Y0004234D01*
X0209962Y0004601D02*
X0209962Y0003500D01*
X0208861Y0003500D01*
X0208494Y0003867D01*
X0208861Y0004968D02*
X0209595Y0004968D01*
X0209962Y0004601D01*
X0210704Y0004968D02*
X0212172Y0004968D01*
X0210704Y0003500D01*
X0212172Y0003500D01*
X0212914Y0003867D02*
X0212914Y0004601D01*
X0213281Y0004968D01*
X0214015Y0004968D01*
X0214382Y0004601D01*
X0214382Y0004234D01*
X0212914Y0004234D01*
X0212914Y0003867D02*
X0213281Y0003500D01*
X0214015Y0003500D01*
X0215123Y0003500D02*
X0215490Y0003500D01*
X0215490Y0003867D01*
X0215123Y0003867D01*
X0215123Y0003500D01*
X0216228Y0003500D02*
X0217329Y0003500D01*
X0217696Y0003867D01*
X0217329Y0004234D01*
X0216595Y0004234D01*
X0216228Y0004601D01*
X0216595Y0004968D01*
X0217696Y0004968D01*
X0218438Y0004601D02*
X0218805Y0004968D01*
X0219539Y0004968D01*
X0219906Y0004601D01*
X0219906Y0004234D01*
X0218438Y0004234D01*
X0218438Y0003867D02*
X0218438Y0004601D01*
X0218438Y0003867D02*
X0218805Y0003500D01*
X0219539Y0003500D01*
X0195602Y0004968D02*
X0195235Y0004601D01*
D13*
X0178877Y0040502D02*
X0213523Y0040502D01*
X0215098Y0042077D01*
X0215098Y0076723D01*
X0213523Y0078298D01*
X0178877Y0078298D01*
X0177302Y0076723D01*
X0177302Y0042077D01*
X0178877Y0040502D01*
X0221000Y0129800D02*
X0230600Y0129800D01*
X0230600Y0149800D02*
X0221000Y0149800D01*
X0219400Y0190200D02*
X0219402Y0190256D01*
X0219408Y0190313D01*
X0219418Y0190368D01*
X0219432Y0190423D01*
X0219449Y0190477D01*
X0219471Y0190529D01*
X0219496Y0190579D01*
X0219524Y0190628D01*
X0219556Y0190675D01*
X0219591Y0190719D01*
X0219629Y0190761D01*
X0219670Y0190800D01*
X0219714Y0190835D01*
X0219760Y0190868D01*
X0219808Y0190897D01*
X0219858Y0190923D01*
X0219910Y0190946D01*
X0219964Y0190964D01*
X0220018Y0190979D01*
X0220073Y0190990D01*
X0220129Y0190997D01*
X0220186Y0191000D01*
X0220242Y0190999D01*
X0220299Y0190994D01*
X0220354Y0190985D01*
X0220409Y0190972D01*
X0220463Y0190955D01*
X0220516Y0190935D01*
X0220567Y0190911D01*
X0220616Y0190883D01*
X0220663Y0190852D01*
X0220708Y0190818D01*
X0220751Y0190780D01*
X0220790Y0190740D01*
X0220827Y0190697D01*
X0220860Y0190652D01*
X0220890Y0190604D01*
X0220917Y0190554D01*
X0220940Y0190503D01*
X0220960Y0190450D01*
X0220976Y0190396D01*
X0220988Y0190340D01*
X0220996Y0190285D01*
X0221000Y0190228D01*
X0221000Y0190172D01*
X0220996Y0190115D01*
X0220988Y0190060D01*
X0220976Y0190004D01*
X0220960Y0189950D01*
X0220940Y0189897D01*
X0220917Y0189846D01*
X0220890Y0189796D01*
X0220860Y0189748D01*
X0220827Y0189703D01*
X0220790Y0189660D01*
X0220751Y0189620D01*
X0220708Y0189582D01*
X0220663Y0189548D01*
X0220616Y0189517D01*
X0220567Y0189489D01*
X0220516Y0189465D01*
X0220463Y0189445D01*
X0220409Y0189428D01*
X0220354Y0189415D01*
X0220299Y0189406D01*
X0220242Y0189401D01*
X0220186Y0189400D01*
X0220129Y0189403D01*
X0220073Y0189410D01*
X0220018Y0189421D01*
X0219964Y0189436D01*
X0219910Y0189454D01*
X0219858Y0189477D01*
X0219808Y0189503D01*
X0219760Y0189532D01*
X0219714Y0189565D01*
X0219670Y0189600D01*
X0219629Y0189639D01*
X0219591Y0189681D01*
X0219556Y0189725D01*
X0219524Y0189772D01*
X0219496Y0189821D01*
X0219471Y0189871D01*
X0219449Y0189923D01*
X0219432Y0189977D01*
X0219418Y0190032D01*
X0219408Y0190087D01*
X0219402Y0190144D01*
X0219400Y0190200D01*
X0150824Y0134813D02*
X0147517Y0138120D01*
X0100698Y0142877D02*
X0099123Y0141302D01*
X0064477Y0141302D01*
X0062902Y0142877D01*
X0062902Y0177523D01*
X0064477Y0179098D01*
X0099123Y0179098D01*
X0100698Y0177523D01*
X0100698Y0142877D01*
D14*
X0154328Y0156900D02*
X0154330Y0156969D01*
X0154336Y0157037D01*
X0154346Y0157105D01*
X0154360Y0157172D01*
X0154378Y0157239D01*
X0154399Y0157304D01*
X0154425Y0157368D01*
X0154454Y0157430D01*
X0154486Y0157490D01*
X0154522Y0157549D01*
X0154562Y0157605D01*
X0154604Y0157659D01*
X0154650Y0157710D01*
X0154699Y0157759D01*
X0154750Y0157805D01*
X0154804Y0157847D01*
X0154860Y0157887D01*
X0154918Y0157923D01*
X0154979Y0157955D01*
X0155041Y0157984D01*
X0155105Y0158010D01*
X0155170Y0158031D01*
X0155237Y0158049D01*
X0155304Y0158063D01*
X0155372Y0158073D01*
X0155440Y0158079D01*
X0155509Y0158081D01*
X0155578Y0158079D01*
X0155646Y0158073D01*
X0155714Y0158063D01*
X0155781Y0158049D01*
X0155848Y0158031D01*
X0155913Y0158010D01*
X0155977Y0157984D01*
X0156039Y0157955D01*
X0156099Y0157923D01*
X0156158Y0157887D01*
X0156214Y0157847D01*
X0156268Y0157805D01*
X0156319Y0157759D01*
X0156368Y0157710D01*
X0156414Y0157659D01*
X0156456Y0157605D01*
X0156496Y0157549D01*
X0156532Y0157490D01*
X0156564Y0157430D01*
X0156593Y0157368D01*
X0156619Y0157304D01*
X0156640Y0157239D01*
X0156658Y0157172D01*
X0156672Y0157105D01*
X0156682Y0157037D01*
X0156688Y0156969D01*
X0156690Y0156900D01*
X0156688Y0156831D01*
X0156682Y0156763D01*
X0156672Y0156695D01*
X0156658Y0156628D01*
X0156640Y0156561D01*
X0156619Y0156496D01*
X0156593Y0156432D01*
X0156564Y0156370D01*
X0156532Y0156309D01*
X0156496Y0156251D01*
X0156456Y0156195D01*
X0156414Y0156141D01*
X0156368Y0156090D01*
X0156319Y0156041D01*
X0156268Y0155995D01*
X0156214Y0155953D01*
X0156158Y0155913D01*
X0156100Y0155877D01*
X0156039Y0155845D01*
X0155977Y0155816D01*
X0155913Y0155790D01*
X0155848Y0155769D01*
X0155781Y0155751D01*
X0155714Y0155737D01*
X0155646Y0155727D01*
X0155578Y0155721D01*
X0155509Y0155719D01*
X0155440Y0155721D01*
X0155372Y0155727D01*
X0155304Y0155737D01*
X0155237Y0155751D01*
X0155170Y0155769D01*
X0155105Y0155790D01*
X0155041Y0155816D01*
X0154979Y0155845D01*
X0154918Y0155877D01*
X0154860Y0155913D01*
X0154804Y0155953D01*
X0154750Y0155995D01*
X0154699Y0156041D01*
X0154650Y0156090D01*
X0154604Y0156141D01*
X0154562Y0156195D01*
X0154522Y0156251D01*
X0154486Y0156309D01*
X0154454Y0156370D01*
X0154425Y0156432D01*
X0154399Y0156496D01*
X0154378Y0156561D01*
X0154360Y0156628D01*
X0154346Y0156695D01*
X0154336Y0156763D01*
X0154330Y0156831D01*
X0154328Y0156900D01*
D15*
X0220800Y0157500D02*
X0220800Y0152500D01*
X0223300Y0150000D01*
X0220800Y0147500D01*
X0220800Y0142500D01*
X0223300Y0140000D01*
X0228300Y0140000D01*
X0230800Y0142500D01*
X0230800Y0147500D01*
X0228300Y0150000D01*
X0223300Y0150000D01*
X0228300Y0150000D02*
X0230800Y0152500D01*
X0230800Y0157500D01*
X0228300Y0160000D01*
X0223300Y0160000D01*
X0220800Y0157500D01*
X0223300Y0160000D02*
X0220800Y0162500D01*
X0220800Y0167500D01*
X0223300Y0170000D01*
X0220800Y0172500D01*
X0220800Y0177500D01*
X0223300Y0180000D01*
X0220800Y0182500D01*
X0220800Y0187500D01*
X0223300Y0190000D01*
X0228300Y0190000D01*
X0230800Y0187500D01*
X0230800Y0182500D01*
X0228300Y0180000D01*
X0230800Y0177500D01*
X0230800Y0172500D01*
X0228300Y0170000D01*
X0223300Y0170000D01*
X0228300Y0170000D02*
X0230800Y0167500D01*
X0230800Y0162500D01*
X0228300Y0160000D01*
X0228300Y0180000D02*
X0223300Y0180000D01*
X0223300Y0140000D02*
X0220800Y0137500D01*
X0220800Y0132500D01*
X0223300Y0130000D01*
X0220800Y0127500D01*
X0220800Y0122500D01*
X0223300Y0120000D01*
X0220800Y0117500D01*
X0220800Y0112500D01*
X0223300Y0110000D01*
X0220800Y0107500D01*
X0220800Y0102500D01*
X0223300Y0100000D01*
X0228300Y0100000D01*
X0230800Y0102500D01*
X0230800Y0107500D01*
X0228300Y0110000D01*
X0223300Y0110000D01*
X0228300Y0110000D02*
X0230800Y0112500D01*
X0230800Y0117500D01*
X0228300Y0120000D01*
X0223300Y0120000D01*
X0228300Y0120000D02*
X0230800Y0122500D01*
X0230800Y0127500D01*
X0228300Y0130000D01*
X0223300Y0130000D01*
X0228300Y0130000D02*
X0230800Y0132500D01*
X0230800Y0137500D01*
X0228300Y0140000D01*
X0132200Y0079700D02*
X0132200Y0024300D01*
X0078500Y0024300D01*
X0078500Y0026000D01*
X0076800Y0026000D01*
X0076800Y0079700D01*
X0132200Y0079700D01*
X0079150Y0028850D02*
X0079152Y0028943D01*
X0079158Y0029037D01*
X0079168Y0029129D01*
X0079182Y0029222D01*
X0079199Y0029313D01*
X0079221Y0029404D01*
X0079246Y0029494D01*
X0079276Y0029583D01*
X0079309Y0029670D01*
X0079345Y0029756D01*
X0079386Y0029840D01*
X0079429Y0029923D01*
X0079477Y0030003D01*
X0079527Y0030082D01*
X0079581Y0030158D01*
X0079638Y0030232D01*
X0079699Y0030303D01*
X0079762Y0030372D01*
X0079828Y0030438D01*
X0079897Y0030501D01*
X0079968Y0030562D01*
X0080042Y0030619D01*
X0080118Y0030673D01*
X0080197Y0030723D01*
X0080277Y0030771D01*
X0080360Y0030814D01*
X0080444Y0030855D01*
X0080530Y0030891D01*
X0080617Y0030924D01*
X0080706Y0030954D01*
X0080796Y0030979D01*
X0080887Y0031001D01*
X0080978Y0031018D01*
X0081071Y0031032D01*
X0081163Y0031042D01*
X0081257Y0031048D01*
X0081350Y0031050D01*
X0081443Y0031048D01*
X0081537Y0031042D01*
X0081629Y0031032D01*
X0081722Y0031018D01*
X0081813Y0031001D01*
X0081904Y0030979D01*
X0081994Y0030954D01*
X0082083Y0030924D01*
X0082170Y0030891D01*
X0082256Y0030855D01*
X0082340Y0030814D01*
X0082423Y0030771D01*
X0082503Y0030723D01*
X0082582Y0030673D01*
X0082658Y0030619D01*
X0082732Y0030562D01*
X0082803Y0030501D01*
X0082872Y0030438D01*
X0082938Y0030372D01*
X0083001Y0030303D01*
X0083062Y0030232D01*
X0083119Y0030158D01*
X0083173Y0030082D01*
X0083223Y0030003D01*
X0083271Y0029923D01*
X0083314Y0029840D01*
X0083355Y0029756D01*
X0083391Y0029670D01*
X0083424Y0029583D01*
X0083454Y0029494D01*
X0083479Y0029404D01*
X0083501Y0029313D01*
X0083518Y0029222D01*
X0083532Y0029129D01*
X0083542Y0029037D01*
X0083548Y0028943D01*
X0083550Y0028850D01*
X0083548Y0028757D01*
X0083542Y0028663D01*
X0083532Y0028571D01*
X0083518Y0028478D01*
X0083501Y0028387D01*
X0083479Y0028296D01*
X0083454Y0028206D01*
X0083424Y0028117D01*
X0083391Y0028030D01*
X0083355Y0027944D01*
X0083314Y0027860D01*
X0083271Y0027777D01*
X0083223Y0027697D01*
X0083173Y0027618D01*
X0083119Y0027542D01*
X0083062Y0027468D01*
X0083001Y0027397D01*
X0082938Y0027328D01*
X0082872Y0027262D01*
X0082803Y0027199D01*
X0082732Y0027138D01*
X0082658Y0027081D01*
X0082582Y0027027D01*
X0082503Y0026977D01*
X0082423Y0026929D01*
X0082340Y0026886D01*
X0082256Y0026845D01*
X0082170Y0026809D01*
X0082083Y0026776D01*
X0081994Y0026746D01*
X0081904Y0026721D01*
X0081813Y0026699D01*
X0081722Y0026682D01*
X0081629Y0026668D01*
X0081537Y0026658D01*
X0081443Y0026652D01*
X0081350Y0026650D01*
X0081257Y0026652D01*
X0081163Y0026658D01*
X0081071Y0026668D01*
X0080978Y0026682D01*
X0080887Y0026699D01*
X0080796Y0026721D01*
X0080706Y0026746D01*
X0080617Y0026776D01*
X0080530Y0026809D01*
X0080444Y0026845D01*
X0080360Y0026886D01*
X0080277Y0026929D01*
X0080197Y0026977D01*
X0080118Y0027027D01*
X0080042Y0027081D01*
X0079968Y0027138D01*
X0079897Y0027199D01*
X0079828Y0027262D01*
X0079762Y0027328D01*
X0079699Y0027397D01*
X0079638Y0027468D01*
X0079581Y0027542D01*
X0079527Y0027618D01*
X0079477Y0027697D01*
X0079429Y0027777D01*
X0079386Y0027860D01*
X0079345Y0027944D01*
X0079309Y0028030D01*
X0079276Y0028117D01*
X0079246Y0028206D01*
X0079221Y0028296D01*
X0079199Y0028387D01*
X0079182Y0028478D01*
X0079168Y0028571D01*
X0079158Y0028663D01*
X0079152Y0028757D01*
X0079150Y0028850D01*
D16*
X0081250Y0021950D03*
X0084350Y0021950D03*
X0087450Y0021950D03*
X0090550Y0021950D03*
X0093650Y0021950D03*
X0096750Y0021950D03*
X0099850Y0021950D03*
X0102950Y0021950D03*
X0106050Y0021950D03*
X0109150Y0021950D03*
X0112250Y0021950D03*
X0115350Y0021950D03*
X0118450Y0021950D03*
X0121550Y0021950D03*
X0124650Y0021950D03*
X0127750Y0021950D03*
X0127750Y0082050D03*
X0124650Y0082050D03*
X0121550Y0082050D03*
X0118450Y0082050D03*
X0115350Y0082050D03*
X0112250Y0082050D03*
X0109150Y0082050D03*
X0106050Y0082050D03*
X0102950Y0082050D03*
X0099850Y0082050D03*
X0096750Y0082050D03*
X0093650Y0082050D03*
X0090550Y0082050D03*
X0087450Y0082050D03*
X0084350Y0082050D03*
X0081250Y0082050D03*
D17*
X0074450Y0075250D03*
X0074450Y0072150D03*
X0074450Y0069050D03*
X0074450Y0065950D03*
X0074450Y0062850D03*
X0074450Y0059750D03*
X0074450Y0056650D03*
X0074450Y0053550D03*
X0074450Y0050450D03*
X0074450Y0047350D03*
X0074450Y0044250D03*
X0074450Y0041150D03*
X0074450Y0038050D03*
X0074450Y0034950D03*
X0074450Y0031850D03*
X0074450Y0028750D03*
X0134550Y0028750D03*
X0134550Y0031850D03*
X0134550Y0034950D03*
X0134550Y0038050D03*
X0134550Y0041150D03*
X0134550Y0044250D03*
X0134550Y0047350D03*
X0134550Y0050450D03*
X0134550Y0053550D03*
X0134550Y0056650D03*
X0134550Y0059750D03*
X0134550Y0062850D03*
X0134550Y0065950D03*
X0134550Y0069050D03*
X0134550Y0072150D03*
X0134550Y0075250D03*
D18*
X0179339Y0043652D02*
X0179341Y0043719D01*
X0179347Y0043785D01*
X0179357Y0043851D01*
X0179371Y0043916D01*
X0179388Y0043980D01*
X0179410Y0044043D01*
X0179435Y0044105D01*
X0179464Y0044165D01*
X0179497Y0044223D01*
X0179532Y0044279D01*
X0179572Y0044333D01*
X0179614Y0044384D01*
X0179659Y0044433D01*
X0179707Y0044479D01*
X0179758Y0044522D01*
X0179811Y0044562D01*
X0179867Y0044599D01*
X0179925Y0044632D01*
X0179984Y0044662D01*
X0180045Y0044688D01*
X0180108Y0044711D01*
X0180172Y0044729D01*
X0180237Y0044744D01*
X0180303Y0044755D01*
X0180369Y0044762D01*
X0180435Y0044765D01*
X0180502Y0044764D01*
X0180568Y0044759D01*
X0180634Y0044750D01*
X0180700Y0044737D01*
X0180764Y0044720D01*
X0180827Y0044700D01*
X0180889Y0044675D01*
X0180950Y0044647D01*
X0181009Y0044616D01*
X0181065Y0044581D01*
X0181120Y0044543D01*
X0181172Y0044501D01*
X0181221Y0044456D01*
X0181268Y0044409D01*
X0181312Y0044359D01*
X0181352Y0044306D01*
X0181390Y0044251D01*
X0181424Y0044194D01*
X0181455Y0044135D01*
X0181482Y0044074D01*
X0181505Y0044012D01*
X0181525Y0043948D01*
X0181541Y0043883D01*
X0181553Y0043818D01*
X0181561Y0043752D01*
X0181565Y0043685D01*
X0181565Y0043619D01*
X0181561Y0043552D01*
X0181553Y0043486D01*
X0181541Y0043421D01*
X0181525Y0043356D01*
X0181505Y0043292D01*
X0181482Y0043230D01*
X0181455Y0043169D01*
X0181424Y0043110D01*
X0181390Y0043053D01*
X0181352Y0042998D01*
X0181312Y0042945D01*
X0181268Y0042895D01*
X0181221Y0042848D01*
X0181172Y0042803D01*
X0181120Y0042761D01*
X0181065Y0042723D01*
X0181008Y0042688D01*
X0180950Y0042657D01*
X0180889Y0042629D01*
X0180827Y0042604D01*
X0180764Y0042584D01*
X0180700Y0042567D01*
X0180634Y0042554D01*
X0180568Y0042545D01*
X0180502Y0042540D01*
X0180435Y0042539D01*
X0180369Y0042542D01*
X0180303Y0042549D01*
X0180237Y0042560D01*
X0180172Y0042575D01*
X0180108Y0042593D01*
X0180045Y0042616D01*
X0179984Y0042642D01*
X0179925Y0042672D01*
X0179867Y0042705D01*
X0179811Y0042742D01*
X0179758Y0042782D01*
X0179707Y0042825D01*
X0179659Y0042871D01*
X0179614Y0042920D01*
X0179572Y0042971D01*
X0179532Y0043025D01*
X0179497Y0043081D01*
X0179464Y0043139D01*
X0179435Y0043199D01*
X0179410Y0043261D01*
X0179388Y0043324D01*
X0179371Y0043388D01*
X0179357Y0043453D01*
X0179347Y0043519D01*
X0179341Y0043585D01*
X0179339Y0043652D01*
X0064939Y0144452D02*
X0064941Y0144519D01*
X0064947Y0144585D01*
X0064957Y0144651D01*
X0064971Y0144716D01*
X0064988Y0144780D01*
X0065010Y0144843D01*
X0065035Y0144905D01*
X0065064Y0144965D01*
X0065097Y0145023D01*
X0065132Y0145079D01*
X0065172Y0145133D01*
X0065214Y0145184D01*
X0065259Y0145233D01*
X0065307Y0145279D01*
X0065358Y0145322D01*
X0065411Y0145362D01*
X0065467Y0145399D01*
X0065525Y0145432D01*
X0065584Y0145462D01*
X0065645Y0145488D01*
X0065708Y0145511D01*
X0065772Y0145529D01*
X0065837Y0145544D01*
X0065903Y0145555D01*
X0065969Y0145562D01*
X0066035Y0145565D01*
X0066102Y0145564D01*
X0066168Y0145559D01*
X0066234Y0145550D01*
X0066300Y0145537D01*
X0066364Y0145520D01*
X0066427Y0145500D01*
X0066489Y0145475D01*
X0066550Y0145447D01*
X0066609Y0145416D01*
X0066665Y0145381D01*
X0066720Y0145343D01*
X0066772Y0145301D01*
X0066821Y0145256D01*
X0066868Y0145209D01*
X0066912Y0145159D01*
X0066952Y0145106D01*
X0066990Y0145051D01*
X0067024Y0144994D01*
X0067055Y0144935D01*
X0067082Y0144874D01*
X0067105Y0144812D01*
X0067125Y0144748D01*
X0067141Y0144683D01*
X0067153Y0144618D01*
X0067161Y0144552D01*
X0067165Y0144485D01*
X0067165Y0144419D01*
X0067161Y0144352D01*
X0067153Y0144286D01*
X0067141Y0144221D01*
X0067125Y0144156D01*
X0067105Y0144092D01*
X0067082Y0144030D01*
X0067055Y0143969D01*
X0067024Y0143910D01*
X0066990Y0143853D01*
X0066952Y0143798D01*
X0066912Y0143745D01*
X0066868Y0143695D01*
X0066821Y0143648D01*
X0066772Y0143603D01*
X0066720Y0143561D01*
X0066665Y0143523D01*
X0066608Y0143488D01*
X0066550Y0143457D01*
X0066489Y0143429D01*
X0066427Y0143404D01*
X0066364Y0143384D01*
X0066300Y0143367D01*
X0066234Y0143354D01*
X0066168Y0143345D01*
X0066102Y0143340D01*
X0066035Y0143339D01*
X0065969Y0143342D01*
X0065903Y0143349D01*
X0065837Y0143360D01*
X0065772Y0143375D01*
X0065708Y0143393D01*
X0065645Y0143416D01*
X0065584Y0143442D01*
X0065525Y0143472D01*
X0065467Y0143505D01*
X0065411Y0143542D01*
X0065358Y0143582D01*
X0065307Y0143625D01*
X0065259Y0143671D01*
X0065214Y0143720D01*
X0065172Y0143771D01*
X0065132Y0143825D01*
X0065097Y0143881D01*
X0065064Y0143939D01*
X0065035Y0143999D01*
X0065010Y0144061D01*
X0064988Y0144124D01*
X0064971Y0144188D01*
X0064957Y0144253D01*
X0064947Y0144319D01*
X0064941Y0144385D01*
X0064939Y0144452D01*
M02*
