%
M48
M72
T01C0.01200
T02C0.04000
T03C0.08661
T04C0.28740
%
T01
X30600Y6200
X30600Y13000
X30600Y18600
X30600Y41800
X30600Y48200
X30600Y53800
X30600Y59400
X30600Y65800
X30600Y71800
X30600Y77800
X30600Y83800
X57000Y77800
X41000Y123400
X30600Y133800
X53800Y144200
X53800Y147400
X53800Y150600
X53800Y157000
X46600Y167000
X53800Y169800
X38600Y172200
X33800Y166600
X30635Y175765
X44200Y185000
X69000Y162600
X73000Y160200
X78600Y152200
X81800Y154600
X84950Y162550
X95400Y169000
X109000Y172200
X109000Y176200
X104200Y185000
X101800Y187400
X94200Y188200
X129000Y168200
X134200Y182600
X153800Y170600
X157000Y166600
X159400Y164200
X161800Y145800
X165800Y145800
X174600Y146600
X174600Y142600
X182600Y148600
X187800Y151000
X190600Y153000
X195000Y153800
X195800Y157000
X195400Y161800
X189800Y165000
X198200Y177000
X209000Y171800
X209000Y166600
X189000Y145800
X196600Y122600
X217800Y120200
X217800Y109800
X209000Y102600
X211800Y92200
X211800Y87400
X196200Y77400
X193000Y87400
X189800Y87400
X186600Y87400
X177400Y91000
X175000Y88200
X147400Y94600
X146600Y91400
X145800Y88200
X145000Y85000
X144200Y75400
X151400Y74600
X144200Y59800
X146600Y56600
X151400Y53800
X154600Y49800
X157000Y53000
X159400Y55400
X161800Y57800
X189000Y47400
X196200Y41800
X203400Y49800
X206600Y51400
X209000Y47400
X213800Y46600
X213800Y53000
X213800Y62600
X213800Y65800
X213800Y69000
X213800Y72200
X211400Y74600
X173400Y31800
X171000Y29000
X180200Y31400
X183400Y31400
X186600Y31400
X167400Y16200
X162600Y16200
X162600Y8200
X167400Y8200
X148200Y8200
X148200Y16200
X140200Y29000
X142600Y31800
X127000Y29400
X123800Y33000
X121400Y29400
X115400Y31400
X112200Y29000
X109150Y26750
X100200Y29000
X97000Y26600
X100200Y41000
X97000Y43400
X90600Y45800
X109400Y55400
X114200Y50450
X106600Y69000
X109000Y72200
X111400Y75400
X117000Y69800
X119400Y73000
X121800Y69800
X124200Y73000
X126600Y69800
X103000Y87400
X99400Y94600
X97000Y97000
X99400Y99400
X97000Y101800
X94200Y107800
X87400Y99400
X85000Y101800
X89800Y97000
X92200Y94600
X106600Y108200
X109000Y105800
X111400Y108200
X128435Y111305
X130600Y115400
X136200Y115400
X143400Y113800
X118600Y133000
X116200Y129800
X104200Y124200
X97800Y132200
X94200Y132200
X88200Y132200
X81800Y132200
X78600Y132200
X75400Y132200
X72200Y132200
X69000Y132200
X69000Y147400
X72200Y149800
X115400Y141000
X156200Y145800
X83400Y77800
X63800Y47400
X66600Y37800
X69000Y35000
X47000Y44600
X85000Y11400
X81000Y9000
X91800Y6600
X108600Y6600
X201800Y12200
X212200Y31400
T02
X225800Y105000
X225800Y115000
X225800Y125000
X225800Y135000
X225800Y145000
X225800Y155000
X225800Y165000
X225800Y175000
X225800Y185000
T03
X161236Y98441
T04
X62614Y98441
M30
