G75*
%MOIN*%
%OFA0B0*%
%FSLAX25Y25*%
%IPPOS*%
%LPD*%
%AMOC8*
5,1,8,0,0,1.08239X$1,22.5*
%
%ADD10C,0.00000*%
%ADD11C,0.05906*%
%ADD12C,0.06000*%
%ADD13C,0.01600*%
D10*
X0010770Y0002000D02*
X0010770Y0094500D01*
X0200770Y0094500D01*
X0200770Y0002000D01*
X0010770Y0002000D01*
D11*
X0020770Y0069500D03*
X0030770Y0069500D03*
X0040770Y0069500D03*
X0050770Y0069500D03*
X0060770Y0069500D03*
X0070770Y0069500D03*
X0080770Y0069500D03*
X0090770Y0069500D03*
X0100770Y0069500D03*
X0110770Y0069500D03*
X0110770Y0079500D03*
X0100770Y0079500D03*
X0090770Y0079500D03*
X0080770Y0079500D03*
X0070770Y0079500D03*
X0060770Y0079500D03*
X0050770Y0079500D03*
X0040770Y0079500D03*
X0030770Y0079500D03*
X0020770Y0079500D03*
X0150770Y0079500D03*
X0160770Y0079500D03*
X0170770Y0079500D03*
X0180770Y0079500D03*
X0190770Y0079500D03*
X0190770Y0069500D03*
X0180770Y0069500D03*
X0170770Y0069500D03*
X0160770Y0069500D03*
X0150770Y0069500D03*
D12*
X0038770Y0045750D02*
X0032770Y0045750D01*
X0032770Y0035750D02*
X0038770Y0035750D01*
X0110770Y0017500D02*
X0110770Y0011500D01*
X0120770Y0011500D02*
X0120770Y0017500D01*
X0130770Y0017500D02*
X0130770Y0011500D01*
X0140770Y0011500D02*
X0140770Y0017500D01*
X0150770Y0017500D02*
X0150770Y0011500D01*
X0160770Y0011500D02*
X0160770Y0017500D01*
X0170770Y0017500D02*
X0170770Y0011500D01*
X0180770Y0011500D02*
X0180770Y0017500D01*
X0190770Y0017500D02*
X0190770Y0011500D01*
D13*
X0190770Y0014500D02*
X0190770Y0017000D01*
X0175770Y0032000D01*
X0175770Y0074500D01*
X0180770Y0079500D01*
X0176527Y0078369D02*
X0174859Y0076700D01*
X0173570Y0075411D01*
X0173570Y0072856D01*
X0173236Y0073190D01*
X0171636Y0073853D01*
X0169904Y0073853D01*
X0168304Y0073190D01*
X0167970Y0072856D01*
X0167970Y0073589D01*
X0169639Y0075257D01*
X0169904Y0075147D01*
X0171636Y0075147D01*
X0173236Y0075810D01*
X0174460Y0077034D01*
X0175123Y0078634D01*
X0175123Y0080366D01*
X0174460Y0081966D01*
X0173236Y0083190D01*
X0171636Y0083853D01*
X0169904Y0083853D01*
X0168304Y0083190D01*
X0167080Y0081966D01*
X0166417Y0080366D01*
X0166417Y0078634D01*
X0166527Y0078369D01*
X0164859Y0076700D01*
X0163570Y0075411D01*
X0163570Y0072856D01*
X0163236Y0073190D01*
X0161636Y0073853D01*
X0159904Y0073853D01*
X0158304Y0073190D01*
X0157970Y0072856D01*
X0157970Y0075411D01*
X0156681Y0076700D01*
X0155013Y0078369D01*
X0155123Y0078634D01*
X0155123Y0080366D01*
X0154460Y0081966D01*
X0153236Y0083190D01*
X0151636Y0083853D01*
X0149904Y0083853D01*
X0148304Y0083190D01*
X0147080Y0081966D01*
X0146417Y0080366D01*
X0146417Y0078634D01*
X0147080Y0077034D01*
X0148304Y0075810D01*
X0149904Y0075147D01*
X0151636Y0075147D01*
X0151902Y0075257D01*
X0153570Y0073589D01*
X0153570Y0073340D01*
X0153261Y0073565D01*
X0152595Y0073905D01*
X0151883Y0074136D01*
X0151144Y0074253D01*
X0150954Y0074253D01*
X0150954Y0069684D01*
X0150586Y0069684D01*
X0150586Y0069316D01*
X0146017Y0069316D01*
X0146017Y0069126D01*
X0146134Y0068387D01*
X0146366Y0067676D01*
X0146705Y0067009D01*
X0147145Y0066404D01*
X0147674Y0065875D01*
X0148279Y0065435D01*
X0148946Y0065095D01*
X0149657Y0064864D01*
X0150396Y0064747D01*
X0150586Y0064747D01*
X0150586Y0069316D01*
X0150954Y0069316D01*
X0150954Y0064747D01*
X0151144Y0064747D01*
X0151883Y0064864D01*
X0152595Y0065095D01*
X0153261Y0065435D01*
X0153570Y0065660D01*
X0153570Y0032085D01*
X0153507Y0031260D01*
X0153570Y0031186D01*
X0153570Y0031089D01*
X0154155Y0030504D01*
X0161530Y0021900D01*
X0159895Y0021900D01*
X0158278Y0021230D01*
X0157040Y0019992D01*
X0156370Y0018375D01*
X0156370Y0010625D01*
X0157040Y0009008D01*
X0158278Y0007770D01*
X0159895Y0007100D01*
X0161645Y0007100D01*
X0162753Y0007559D01*
X0163570Y0006334D01*
X0163570Y0006089D01*
X0164060Y0005598D01*
X0164445Y0005021D01*
X0164685Y0004973D01*
X0164859Y0004800D01*
X0165552Y0004800D01*
X0165552Y0004800D01*
X0013570Y0004800D01*
X0013570Y0091700D01*
X0197970Y0091700D01*
X0197970Y0004800D01*
X0186436Y0004800D01*
X0186436Y0004800D01*
X0194181Y0004800D01*
X0195470Y0006089D01*
X0197970Y0008589D01*
X0197970Y0022911D01*
X0196681Y0024200D01*
X0187970Y0032911D01*
X0187970Y0065660D01*
X0188279Y0065435D01*
X0188946Y0065095D01*
X0189657Y0064864D01*
X0190396Y0064747D01*
X0190586Y0064747D01*
X0190586Y0069316D01*
X0190954Y0069316D01*
X0190954Y0064747D01*
X0191144Y0064747D01*
X0191883Y0064864D01*
X0192595Y0065095D01*
X0193261Y0065435D01*
X0193866Y0065875D01*
X0194395Y0066404D01*
X0194835Y0067009D01*
X0195175Y0067676D01*
X0195406Y0068387D01*
X0195523Y0069126D01*
X0195523Y0069316D01*
X0190954Y0069316D01*
X0190954Y0069684D01*
X0190586Y0069684D01*
X0190586Y0074253D01*
X0190396Y0074253D01*
X0189657Y0074136D01*
X0188946Y0073905D01*
X0188279Y0073565D01*
X0187970Y0073340D01*
X0187970Y0073589D01*
X0189639Y0075257D01*
X0189904Y0075147D01*
X0191636Y0075147D01*
X0193236Y0075810D01*
X0194460Y0077034D01*
X0195123Y0078634D01*
X0195123Y0080366D01*
X0194460Y0081966D01*
X0193236Y0083190D01*
X0191636Y0083853D01*
X0189904Y0083853D01*
X0188304Y0083190D01*
X0187080Y0081966D01*
X0186417Y0080366D01*
X0186417Y0078634D01*
X0186527Y0078369D01*
X0184859Y0076700D01*
X0183570Y0075411D01*
X0183570Y0072856D01*
X0183236Y0073190D01*
X0181636Y0073853D01*
X0179904Y0073853D01*
X0178304Y0073190D01*
X0177970Y0072856D01*
X0177970Y0073589D01*
X0179639Y0075257D01*
X0179904Y0075147D01*
X0181636Y0075147D01*
X0183236Y0075810D01*
X0184460Y0077034D01*
X0185123Y0078634D01*
X0185123Y0080366D01*
X0184460Y0081966D01*
X0183236Y0083190D01*
X0181636Y0083853D01*
X0179904Y0083853D01*
X0178304Y0083190D01*
X0177080Y0081966D01*
X0176417Y0080366D01*
X0176417Y0078634D01*
X0176527Y0078369D01*
X0176417Y0078729D02*
X0175123Y0078729D01*
X0175123Y0080327D02*
X0176417Y0080327D01*
X0177063Y0081926D02*
X0174477Y0081926D01*
X0172429Y0083524D02*
X0179111Y0083524D01*
X0182429Y0083524D02*
X0189111Y0083524D01*
X0192429Y0083524D02*
X0197970Y0083524D01*
X0197970Y0081926D02*
X0194477Y0081926D01*
X0195123Y0080327D02*
X0197970Y0080327D01*
X0197970Y0078729D02*
X0195123Y0078729D01*
X0194500Y0077130D02*
X0197970Y0077130D01*
X0197970Y0075532D02*
X0192564Y0075532D01*
X0191883Y0074136D02*
X0191144Y0074253D01*
X0190954Y0074253D01*
X0190954Y0069684D01*
X0195523Y0069684D01*
X0195523Y0069874D01*
X0195406Y0070613D01*
X0195175Y0071324D01*
X0194835Y0071991D01*
X0194395Y0072596D01*
X0193866Y0073125D01*
X0193261Y0073565D01*
X0192595Y0073905D01*
X0191883Y0074136D01*
X0192507Y0073933D02*
X0197970Y0073933D01*
X0197970Y0072334D02*
X0194585Y0072334D01*
X0195366Y0070736D02*
X0197970Y0070736D01*
X0197970Y0069137D02*
X0195523Y0069137D01*
X0195105Y0067539D02*
X0197970Y0067539D01*
X0197970Y0065940D02*
X0193932Y0065940D01*
X0190954Y0065940D02*
X0190586Y0065940D01*
X0190586Y0067539D02*
X0190954Y0067539D01*
X0190954Y0069137D02*
X0190586Y0069137D01*
X0190586Y0070736D02*
X0190954Y0070736D01*
X0190954Y0072334D02*
X0190586Y0072334D01*
X0190586Y0073933D02*
X0190954Y0073933D01*
X0189033Y0073933D02*
X0188314Y0073933D01*
X0185770Y0074500D02*
X0185770Y0032000D01*
X0195770Y0022000D01*
X0195770Y0009500D01*
X0193270Y0007000D01*
X0185770Y0007000D01*
X0180770Y0014500D01*
X0175770Y0019500D02*
X0175770Y0009500D01*
X0173270Y0007000D01*
X0165770Y0007000D01*
X0160770Y0014500D01*
X0156370Y0014788D02*
X0155170Y0014788D01*
X0155170Y0013190D02*
X0156370Y0013190D01*
X0156370Y0011591D02*
X0155170Y0011591D01*
X0155170Y0010625D02*
X0155170Y0018375D01*
X0154500Y0019992D01*
X0153262Y0021230D01*
X0152970Y0021351D01*
X0152970Y0040411D01*
X0115013Y0078369D01*
X0115123Y0078634D01*
X0115123Y0080366D01*
X0114460Y0081966D01*
X0113236Y0083190D01*
X0111636Y0083853D01*
X0109904Y0083853D01*
X0108304Y0083190D01*
X0107080Y0081966D01*
X0106417Y0080366D01*
X0106417Y0078634D01*
X0107080Y0077034D01*
X0108304Y0075810D01*
X0109904Y0075147D01*
X0111636Y0075147D01*
X0111902Y0075257D01*
X0148570Y0038589D01*
X0148570Y0021351D01*
X0148278Y0021230D01*
X0147040Y0019992D01*
X0146370Y0018375D01*
X0146370Y0013211D01*
X0145570Y0012411D01*
X0145570Y0014300D01*
X0140970Y0014300D01*
X0140970Y0014700D01*
X0140570Y0014700D01*
X0140570Y0014300D01*
X0135970Y0014300D01*
X0135970Y0011122D01*
X0136088Y0010376D01*
X0136322Y0009657D01*
X0136555Y0009200D01*
X0134580Y0009200D01*
X0135170Y0010625D01*
X0135170Y0018375D01*
X0134500Y0019992D01*
X0133262Y0021230D01*
X0132970Y0021351D01*
X0132970Y0030411D01*
X0097970Y0065411D01*
X0097970Y0065660D01*
X0098279Y0065435D01*
X0098946Y0065095D01*
X0099657Y0064864D01*
X0100396Y0064747D01*
X0100586Y0064747D01*
X0100586Y0069316D01*
X0100954Y0069316D01*
X0100954Y0064747D01*
X0101144Y0064747D01*
X0101883Y0064864D01*
X0102595Y0065095D01*
X0103261Y0065435D01*
X0103866Y0065875D01*
X0104395Y0066404D01*
X0104835Y0067009D01*
X0105175Y0067676D01*
X0105406Y0068387D01*
X0105523Y0069126D01*
X0105523Y0069316D01*
X0100954Y0069316D01*
X0100954Y0069684D01*
X0100586Y0069684D01*
X0100586Y0074253D01*
X0100396Y0074253D01*
X0099657Y0074136D01*
X0098946Y0073905D01*
X0098279Y0073565D01*
X0097722Y0073160D01*
X0095470Y0075411D01*
X0094181Y0076700D01*
X0094126Y0076700D01*
X0094460Y0077034D01*
X0095123Y0078634D01*
X0095123Y0080366D01*
X0094460Y0081966D01*
X0093236Y0083190D01*
X0091636Y0083853D01*
X0089904Y0083853D01*
X0088304Y0083190D01*
X0087080Y0081966D01*
X0086417Y0080366D01*
X0086417Y0078634D01*
X0087080Y0077034D01*
X0087414Y0076700D01*
X0086681Y0076700D01*
X0085013Y0078369D01*
X0085123Y0078634D01*
X0085123Y0080366D01*
X0084460Y0081966D01*
X0083236Y0083190D01*
X0081636Y0083853D01*
X0079904Y0083853D01*
X0078304Y0083190D01*
X0077080Y0081966D01*
X0076417Y0080366D01*
X0076417Y0078634D01*
X0077080Y0077034D01*
X0078304Y0075810D01*
X0079904Y0075147D01*
X0081636Y0075147D01*
X0081902Y0075257D01*
X0084859Y0072300D01*
X0087414Y0072300D01*
X0087080Y0071966D01*
X0086417Y0070366D01*
X0086417Y0068634D01*
X0087080Y0067034D01*
X0087414Y0066700D01*
X0084126Y0066700D01*
X0084460Y0067034D01*
X0085123Y0068634D01*
X0085123Y0070366D01*
X0084460Y0071966D01*
X0083236Y0073190D01*
X0081636Y0073853D01*
X0079904Y0073853D01*
X0078304Y0073190D01*
X0077970Y0072856D01*
X0077970Y0075411D01*
X0075013Y0078369D01*
X0075123Y0078634D01*
X0075123Y0080366D01*
X0074460Y0081966D01*
X0073236Y0083190D01*
X0071636Y0083853D01*
X0069904Y0083853D01*
X0068304Y0083190D01*
X0067080Y0081966D01*
X0066417Y0080366D01*
X0066417Y0078634D01*
X0067080Y0077034D01*
X0068304Y0075810D01*
X0069904Y0075147D01*
X0071636Y0075147D01*
X0071902Y0075257D01*
X0073570Y0073589D01*
X0073570Y0072856D01*
X0073236Y0073190D01*
X0071636Y0073853D01*
X0069904Y0073853D01*
X0068304Y0073190D01*
X0067080Y0071966D01*
X0066417Y0070366D01*
X0066417Y0068634D01*
X0067080Y0067034D01*
X0068304Y0065810D01*
X0069904Y0065147D01*
X0071636Y0065147D01*
X0073236Y0065810D01*
X0073570Y0066144D01*
X0073570Y0066089D01*
X0074859Y0064800D01*
X0077359Y0062300D01*
X0087359Y0062300D01*
X0118570Y0031089D01*
X0118570Y0021351D01*
X0118278Y0021230D01*
X0117040Y0019992D01*
X0116370Y0018375D01*
X0116370Y0010625D01*
X0116960Y0009200D01*
X0114580Y0009200D01*
X0115170Y0010625D01*
X0115170Y0018375D01*
X0114500Y0019992D01*
X0113262Y0021230D01*
X0112970Y0021351D01*
X0112970Y0035411D01*
X0087970Y0060411D01*
X0086681Y0061700D01*
X0051681Y0061700D01*
X0047970Y0065411D01*
X0047970Y0066144D01*
X0048304Y0065810D01*
X0049904Y0065147D01*
X0051636Y0065147D01*
X0053236Y0065810D01*
X0054460Y0067034D01*
X0055123Y0068634D01*
X0055123Y0070366D01*
X0054460Y0071966D01*
X0053236Y0073190D01*
X0051636Y0073853D01*
X0049904Y0073853D01*
X0048304Y0073190D01*
X0047970Y0072856D01*
X0047970Y0075411D01*
X0045013Y0078369D01*
X0045123Y0078634D01*
X0045123Y0080366D01*
X0044460Y0081966D01*
X0043236Y0083190D01*
X0041636Y0083853D01*
X0039904Y0083853D01*
X0038304Y0083190D01*
X0037080Y0081966D01*
X0036417Y0080366D01*
X0036417Y0078634D01*
X0037080Y0077034D01*
X0038304Y0075810D01*
X0039904Y0075147D01*
X0041636Y0075147D01*
X0041902Y0075257D01*
X0043570Y0073589D01*
X0043570Y0072856D01*
X0043236Y0073190D01*
X0041636Y0073853D01*
X0039904Y0073853D01*
X0038304Y0073190D01*
X0037080Y0071966D01*
X0036417Y0070366D01*
X0036417Y0068634D01*
X0037080Y0067034D01*
X0038304Y0065810D01*
X0039904Y0065147D01*
X0041636Y0065147D01*
X0043236Y0065810D01*
X0043570Y0066144D01*
X0043570Y0063589D01*
X0049859Y0057300D01*
X0084859Y0057300D01*
X0108570Y0033589D01*
X0108570Y0021351D01*
X0108278Y0021230D01*
X0107040Y0019992D01*
X0106370Y0018375D01*
X0106370Y0010625D01*
X0106960Y0009200D01*
X0079181Y0009200D01*
X0043170Y0045211D01*
X0043170Y0046625D01*
X0042500Y0048242D01*
X0041262Y0049480D01*
X0039645Y0050150D01*
X0031895Y0050150D01*
X0030278Y0049480D01*
X0029040Y0048242D01*
X0028370Y0046625D01*
X0028370Y0044875D01*
X0029040Y0043258D01*
X0030278Y0042020D01*
X0031895Y0041350D01*
X0039645Y0041350D01*
X0040468Y0041691D01*
X0077359Y0004800D01*
X0144181Y0004800D01*
X0145470Y0006089D01*
X0147714Y0008333D01*
X0148278Y0007770D01*
X0149895Y0007100D01*
X0151645Y0007100D01*
X0153262Y0007770D01*
X0154500Y0009008D01*
X0155170Y0010625D01*
X0154908Y0009993D02*
X0156632Y0009993D01*
X0157653Y0008394D02*
X0153887Y0008394D01*
X0146177Y0006796D02*
X0163262Y0006796D01*
X0164328Y0005197D02*
X0144578Y0005197D01*
X0143270Y0007000D02*
X0078270Y0007000D01*
X0040770Y0044500D01*
X0037020Y0044500D01*
X0035770Y0045750D01*
X0029154Y0048357D02*
X0013570Y0048357D01*
X0013570Y0049955D02*
X0031425Y0049955D01*
X0028425Y0046758D02*
X0013570Y0046758D01*
X0013570Y0045160D02*
X0028370Y0045160D01*
X0028914Y0043561D02*
X0013570Y0043561D01*
X0013570Y0041963D02*
X0030415Y0041963D01*
X0030928Y0040198D02*
X0030254Y0039855D01*
X0029643Y0039411D01*
X0029109Y0038877D01*
X0028665Y0038266D01*
X0028322Y0037593D01*
X0028088Y0036874D01*
X0027970Y0036128D01*
X0027970Y0035950D01*
X0035570Y0035950D01*
X0035570Y0035550D01*
X0027970Y0035550D01*
X0027970Y0035372D01*
X0028088Y0034626D01*
X0028322Y0033907D01*
X0028665Y0033234D01*
X0029109Y0032623D01*
X0029643Y0032089D01*
X0030254Y0031645D01*
X0030928Y0031302D01*
X0031646Y0031068D01*
X0032392Y0030950D01*
X0035570Y0030950D01*
X0035570Y0035550D01*
X0035970Y0035550D01*
X0035970Y0030950D01*
X0039148Y0030950D01*
X0039894Y0031068D01*
X0040613Y0031302D01*
X0041286Y0031645D01*
X0041897Y0032089D01*
X0042431Y0032623D01*
X0042875Y0033234D01*
X0043218Y0033907D01*
X0043452Y0034626D01*
X0043570Y0035372D01*
X0043570Y0035550D01*
X0035970Y0035550D01*
X0035970Y0035950D01*
X0035570Y0035950D01*
X0035570Y0040550D01*
X0032392Y0040550D01*
X0031646Y0040432D01*
X0030928Y0040198D01*
X0031438Y0040364D02*
X0013570Y0040364D01*
X0013570Y0038766D02*
X0029028Y0038766D01*
X0028184Y0037167D02*
X0013570Y0037167D01*
X0013570Y0035569D02*
X0035570Y0035569D01*
X0035970Y0035569D02*
X0046590Y0035569D01*
X0044992Y0037167D02*
X0043357Y0037167D01*
X0043452Y0036874D02*
X0043218Y0037593D01*
X0042875Y0038266D01*
X0042431Y0038877D01*
X0041897Y0039411D01*
X0041286Y0039855D01*
X0040613Y0040198D01*
X0039894Y0040432D01*
X0039148Y0040550D01*
X0035970Y0040550D01*
X0035970Y0035950D01*
X0043570Y0035950D01*
X0043570Y0036128D01*
X0043452Y0036874D01*
X0043393Y0038766D02*
X0042512Y0038766D01*
X0041795Y0040364D02*
X0040102Y0040364D01*
X0035970Y0040364D02*
X0035570Y0040364D01*
X0035570Y0038766D02*
X0035970Y0038766D01*
X0035970Y0037167D02*
X0035570Y0037167D01*
X0035570Y0033970D02*
X0035970Y0033970D01*
X0035970Y0032372D02*
X0035570Y0032372D01*
X0029360Y0032372D02*
X0013570Y0032372D01*
X0013570Y0030773D02*
X0051386Y0030773D01*
X0049787Y0032372D02*
X0042180Y0032372D01*
X0043239Y0033970D02*
X0048189Y0033970D01*
X0052813Y0035569D02*
X0106590Y0035569D01*
X0104992Y0037167D02*
X0051214Y0037167D01*
X0049616Y0038766D02*
X0103393Y0038766D01*
X0101795Y0040364D02*
X0048017Y0040364D01*
X0046419Y0041963D02*
X0100196Y0041963D01*
X0098598Y0043561D02*
X0044820Y0043561D01*
X0043222Y0045160D02*
X0096999Y0045160D01*
X0095400Y0046758D02*
X0043115Y0046758D01*
X0042386Y0048357D02*
X0093802Y0048357D01*
X0092203Y0049955D02*
X0040115Y0049955D01*
X0049211Y0057948D02*
X0013570Y0057948D01*
X0013570Y0056349D02*
X0085809Y0056349D01*
X0087408Y0054751D02*
X0013570Y0054751D01*
X0013570Y0053152D02*
X0089006Y0053152D01*
X0090605Y0051554D02*
X0013570Y0051554D01*
X0013570Y0059546D02*
X0047612Y0059546D01*
X0046014Y0061145D02*
X0013570Y0061145D01*
X0013570Y0062743D02*
X0044415Y0062743D01*
X0043570Y0064342D02*
X0013570Y0064342D01*
X0013570Y0065940D02*
X0018174Y0065940D01*
X0018304Y0065810D02*
X0019904Y0065147D01*
X0021636Y0065147D01*
X0023236Y0065810D01*
X0024460Y0067034D01*
X0025123Y0068634D01*
X0025123Y0070366D01*
X0024460Y0071966D01*
X0023236Y0073190D01*
X0021636Y0073853D01*
X0019904Y0073853D01*
X0018304Y0073190D01*
X0017080Y0071966D01*
X0016417Y0070366D01*
X0016417Y0068634D01*
X0017080Y0067034D01*
X0018304Y0065810D01*
X0016871Y0067539D02*
X0013570Y0067539D01*
X0013570Y0069137D02*
X0016417Y0069137D01*
X0016571Y0070736D02*
X0013570Y0070736D01*
X0013570Y0072334D02*
X0017449Y0072334D01*
X0013570Y0073933D02*
X0043226Y0073933D01*
X0045770Y0074500D02*
X0040770Y0079500D01*
X0036417Y0078729D02*
X0035123Y0078729D01*
X0035123Y0078634D02*
X0034460Y0077034D01*
X0033236Y0075810D01*
X0031636Y0075147D01*
X0029904Y0075147D01*
X0028304Y0075810D01*
X0027080Y0077034D01*
X0026417Y0078634D01*
X0026417Y0080366D01*
X0027080Y0081966D01*
X0028304Y0083190D01*
X0029904Y0083853D01*
X0031636Y0083853D01*
X0033236Y0083190D01*
X0034460Y0081966D01*
X0035123Y0080366D01*
X0035123Y0078634D01*
X0034500Y0077130D02*
X0037040Y0077130D01*
X0038977Y0075532D02*
X0032564Y0075532D01*
X0031636Y0073853D02*
X0029904Y0073853D01*
X0028304Y0073190D01*
X0027080Y0071966D01*
X0026417Y0070366D01*
X0026417Y0068634D01*
X0027080Y0067034D01*
X0028304Y0065810D01*
X0029904Y0065147D01*
X0031636Y0065147D01*
X0033236Y0065810D01*
X0034460Y0067034D01*
X0035123Y0068634D01*
X0035123Y0070366D01*
X0034460Y0071966D01*
X0033236Y0073190D01*
X0031636Y0073853D01*
X0034091Y0072334D02*
X0037449Y0072334D01*
X0036571Y0070736D02*
X0034970Y0070736D01*
X0035123Y0069137D02*
X0036417Y0069137D01*
X0036871Y0067539D02*
X0034669Y0067539D01*
X0033366Y0065940D02*
X0038174Y0065940D01*
X0043366Y0065940D02*
X0043570Y0065940D01*
X0045770Y0064500D02*
X0045770Y0074500D01*
X0047970Y0073933D02*
X0073226Y0073933D01*
X0075770Y0074500D02*
X0070770Y0079500D01*
X0066417Y0078729D02*
X0065123Y0078729D01*
X0065123Y0078634D02*
X0064460Y0077034D01*
X0063236Y0075810D01*
X0061636Y0075147D01*
X0059904Y0075147D01*
X0058304Y0075810D01*
X0057080Y0077034D01*
X0056417Y0078634D01*
X0056417Y0080366D01*
X0057080Y0081966D01*
X0058304Y0083190D01*
X0059904Y0083853D01*
X0061636Y0083853D01*
X0063236Y0083190D01*
X0064460Y0081966D01*
X0065123Y0080366D01*
X0065123Y0078634D01*
X0064500Y0077130D02*
X0067040Y0077130D01*
X0068977Y0075532D02*
X0062564Y0075532D01*
X0061636Y0073853D02*
X0059904Y0073853D01*
X0058304Y0073190D01*
X0057080Y0071966D01*
X0056417Y0070366D01*
X0056417Y0068634D01*
X0057080Y0067034D01*
X0058304Y0065810D01*
X0059904Y0065147D01*
X0061636Y0065147D01*
X0063236Y0065810D01*
X0064460Y0067034D01*
X0065123Y0068634D01*
X0065123Y0070366D01*
X0064460Y0071966D01*
X0063236Y0073190D01*
X0061636Y0073853D01*
X0064091Y0072334D02*
X0067449Y0072334D01*
X0066571Y0070736D02*
X0064970Y0070736D01*
X0065123Y0069137D02*
X0066417Y0069137D01*
X0066871Y0067539D02*
X0064669Y0067539D01*
X0063366Y0065940D02*
X0068174Y0065940D01*
X0073366Y0065940D02*
X0073718Y0065940D01*
X0075770Y0067000D02*
X0075770Y0074500D01*
X0077970Y0073933D02*
X0083226Y0073933D01*
X0085770Y0074500D02*
X0080770Y0079500D01*
X0076417Y0078729D02*
X0075123Y0078729D01*
X0075123Y0080327D02*
X0076417Y0080327D01*
X0077063Y0081926D02*
X0074477Y0081926D01*
X0072429Y0083524D02*
X0079111Y0083524D01*
X0082429Y0083524D02*
X0089111Y0083524D01*
X0092429Y0083524D02*
X0099111Y0083524D01*
X0099904Y0083853D02*
X0098304Y0083190D01*
X0097080Y0081966D01*
X0096417Y0080366D01*
X0096417Y0078634D01*
X0097080Y0077034D01*
X0098304Y0075810D01*
X0099904Y0075147D01*
X0101636Y0075147D01*
X0103236Y0075810D01*
X0104460Y0077034D01*
X0105123Y0078634D01*
X0105123Y0080366D01*
X0104460Y0081966D01*
X0103236Y0083190D01*
X0101636Y0083853D01*
X0099904Y0083853D01*
X0102429Y0083524D02*
X0109111Y0083524D01*
X0107063Y0081926D02*
X0104477Y0081926D01*
X0105123Y0080327D02*
X0106417Y0080327D01*
X0106417Y0078729D02*
X0105123Y0078729D01*
X0104500Y0077130D02*
X0107040Y0077130D01*
X0108977Y0075532D02*
X0102564Y0075532D01*
X0101883Y0074136D02*
X0101144Y0074253D01*
X0100954Y0074253D01*
X0100954Y0069684D01*
X0105523Y0069684D01*
X0105523Y0069874D01*
X0105406Y0070613D01*
X0105175Y0071324D01*
X0104835Y0071991D01*
X0104395Y0072596D01*
X0103866Y0073125D01*
X0103261Y0073565D01*
X0102595Y0073905D01*
X0101883Y0074136D01*
X0102507Y0073933D02*
X0113226Y0073933D01*
X0113236Y0073190D02*
X0111636Y0073853D01*
X0109904Y0073853D01*
X0108304Y0073190D01*
X0107080Y0071966D01*
X0106417Y0070366D01*
X0106417Y0068634D01*
X0107080Y0067034D01*
X0108304Y0065810D01*
X0109904Y0065147D01*
X0111636Y0065147D01*
X0113236Y0065810D01*
X0114460Y0067034D01*
X0115123Y0068634D01*
X0115123Y0070366D01*
X0114460Y0071966D01*
X0113236Y0073190D01*
X0114091Y0072334D02*
X0114824Y0072334D01*
X0114970Y0070736D02*
X0116423Y0070736D01*
X0115123Y0069137D02*
X0118021Y0069137D01*
X0119620Y0067539D02*
X0114669Y0067539D01*
X0113366Y0065940D02*
X0121218Y0065940D01*
X0122817Y0064342D02*
X0099039Y0064342D01*
X0095770Y0064500D02*
X0095770Y0072000D01*
X0093270Y0074500D01*
X0085770Y0074500D01*
X0086251Y0077130D02*
X0087040Y0077130D01*
X0086417Y0078729D02*
X0085123Y0078729D01*
X0085123Y0080327D02*
X0086417Y0080327D01*
X0087063Y0081926D02*
X0084477Y0081926D01*
X0077040Y0077130D02*
X0076251Y0077130D01*
X0077850Y0075532D02*
X0078977Y0075532D01*
X0084091Y0072334D02*
X0084824Y0072334D01*
X0084970Y0070736D02*
X0086571Y0070736D01*
X0086417Y0069137D02*
X0085123Y0069137D01*
X0084669Y0067539D02*
X0086871Y0067539D01*
X0088270Y0064500D02*
X0078270Y0064500D01*
X0075770Y0067000D01*
X0075317Y0064342D02*
X0049039Y0064342D01*
X0048174Y0065940D02*
X0047970Y0065940D01*
X0045770Y0064500D02*
X0050770Y0059500D01*
X0085770Y0059500D01*
X0110770Y0034500D01*
X0110770Y0014500D01*
X0106370Y0014788D02*
X0073593Y0014788D01*
X0071995Y0016387D02*
X0106370Y0016387D01*
X0106370Y0017985D02*
X0070396Y0017985D01*
X0068798Y0019584D02*
X0106871Y0019584D01*
X0108230Y0021182D02*
X0067199Y0021182D01*
X0065601Y0022781D02*
X0108570Y0022781D01*
X0108570Y0024379D02*
X0064002Y0024379D01*
X0062404Y0025978D02*
X0108570Y0025978D01*
X0108570Y0027576D02*
X0060805Y0027576D01*
X0059207Y0029175D02*
X0108570Y0029175D01*
X0108570Y0030773D02*
X0057608Y0030773D01*
X0056010Y0032372D02*
X0108570Y0032372D01*
X0108189Y0033970D02*
X0054411Y0033970D01*
X0052984Y0029175D02*
X0013570Y0029175D01*
X0013570Y0027576D02*
X0054583Y0027576D01*
X0056181Y0025978D02*
X0013570Y0025978D01*
X0013570Y0024379D02*
X0057780Y0024379D01*
X0059378Y0022781D02*
X0013570Y0022781D01*
X0013570Y0021182D02*
X0060977Y0021182D01*
X0062575Y0019584D02*
X0013570Y0019584D01*
X0013570Y0017985D02*
X0064174Y0017985D01*
X0065772Y0016387D02*
X0013570Y0016387D01*
X0013570Y0014788D02*
X0067371Y0014788D01*
X0068969Y0013190D02*
X0013570Y0013190D01*
X0013570Y0011591D02*
X0070568Y0011591D01*
X0072166Y0009993D02*
X0013570Y0009993D01*
X0013570Y0008394D02*
X0073765Y0008394D01*
X0075363Y0006796D02*
X0013570Y0006796D01*
X0013570Y0005197D02*
X0076962Y0005197D01*
X0078389Y0009993D02*
X0106632Y0009993D01*
X0106370Y0011591D02*
X0076790Y0011591D01*
X0075192Y0013190D02*
X0106370Y0013190D01*
X0115170Y0013190D02*
X0116370Y0013190D01*
X0116370Y0011591D02*
X0115170Y0011591D01*
X0114908Y0009993D02*
X0116632Y0009993D01*
X0116370Y0014788D02*
X0115170Y0014788D01*
X0115170Y0016387D02*
X0116370Y0016387D01*
X0116370Y0017985D02*
X0115170Y0017985D01*
X0114670Y0019584D02*
X0116871Y0019584D01*
X0118230Y0021182D02*
X0113310Y0021182D01*
X0112970Y0022781D02*
X0118570Y0022781D01*
X0118570Y0024379D02*
X0112970Y0024379D01*
X0112970Y0025978D02*
X0118570Y0025978D01*
X0118570Y0027576D02*
X0112970Y0027576D01*
X0112970Y0029175D02*
X0118570Y0029175D01*
X0118570Y0030773D02*
X0112970Y0030773D01*
X0112970Y0032372D02*
X0117287Y0032372D01*
X0115689Y0033970D02*
X0112970Y0033970D01*
X0112813Y0035569D02*
X0114090Y0035569D01*
X0112492Y0037167D02*
X0111214Y0037167D01*
X0110893Y0038766D02*
X0109616Y0038766D01*
X0109295Y0040364D02*
X0108017Y0040364D01*
X0107696Y0041963D02*
X0106419Y0041963D01*
X0106098Y0043561D02*
X0104820Y0043561D01*
X0104499Y0045160D02*
X0103222Y0045160D01*
X0102900Y0046758D02*
X0101623Y0046758D01*
X0101302Y0048357D02*
X0100025Y0048357D01*
X0099703Y0049955D02*
X0098426Y0049955D01*
X0098105Y0051554D02*
X0096827Y0051554D01*
X0096506Y0053152D02*
X0095229Y0053152D01*
X0094908Y0054751D02*
X0093630Y0054751D01*
X0093309Y0056349D02*
X0092032Y0056349D01*
X0091711Y0057948D02*
X0090433Y0057948D01*
X0090112Y0059546D02*
X0088835Y0059546D01*
X0088514Y0061145D02*
X0087236Y0061145D01*
X0088270Y0064500D02*
X0120770Y0032000D01*
X0120770Y0014500D01*
X0130770Y0014500D02*
X0130770Y0029500D01*
X0095770Y0064500D01*
X0100586Y0065940D02*
X0100954Y0065940D01*
X0100954Y0067539D02*
X0100586Y0067539D01*
X0100586Y0069137D02*
X0100954Y0069137D01*
X0100954Y0070736D02*
X0100586Y0070736D01*
X0100586Y0072334D02*
X0100954Y0072334D01*
X0100954Y0073933D02*
X0100586Y0073933D01*
X0099033Y0073933D02*
X0096948Y0073933D01*
X0095350Y0075532D02*
X0098977Y0075532D01*
X0097040Y0077130D02*
X0094500Y0077130D01*
X0095123Y0078729D02*
X0096417Y0078729D01*
X0096417Y0080327D02*
X0095123Y0080327D01*
X0094477Y0081926D02*
X0097063Y0081926D01*
X0110770Y0079500D02*
X0150770Y0039500D01*
X0150770Y0014500D01*
X0143270Y0007000D01*
X0136213Y0009993D02*
X0134908Y0009993D01*
X0135170Y0011591D02*
X0135970Y0011591D01*
X0135970Y0013190D02*
X0135170Y0013190D01*
X0135170Y0014788D02*
X0135970Y0014788D01*
X0135970Y0014700D02*
X0140570Y0014700D01*
X0140570Y0022300D01*
X0140392Y0022300D01*
X0139646Y0022182D01*
X0138928Y0021948D01*
X0138254Y0021605D01*
X0137643Y0021161D01*
X0137109Y0020627D01*
X0136665Y0020016D01*
X0136322Y0019343D01*
X0136088Y0018624D01*
X0135970Y0017878D01*
X0135970Y0014700D01*
X0135970Y0016387D02*
X0135170Y0016387D01*
X0135170Y0017985D02*
X0135987Y0017985D01*
X0136445Y0019584D02*
X0134670Y0019584D01*
X0133310Y0021182D02*
X0137672Y0021182D01*
X0140570Y0021182D02*
X0140970Y0021182D01*
X0140970Y0022300D02*
X0140970Y0014700D01*
X0145570Y0014700D01*
X0145570Y0017878D01*
X0145452Y0018624D01*
X0145218Y0019343D01*
X0144875Y0020016D01*
X0144431Y0020627D01*
X0143897Y0021161D01*
X0143286Y0021605D01*
X0142613Y0021948D01*
X0141894Y0022182D01*
X0141148Y0022300D01*
X0140970Y0022300D01*
X0143868Y0021182D02*
X0148230Y0021182D01*
X0148570Y0022781D02*
X0132970Y0022781D01*
X0132970Y0024379D02*
X0148570Y0024379D01*
X0148570Y0025978D02*
X0132970Y0025978D01*
X0132970Y0027576D02*
X0148570Y0027576D01*
X0148570Y0029175D02*
X0132970Y0029175D01*
X0132608Y0030773D02*
X0148570Y0030773D01*
X0148570Y0032372D02*
X0131010Y0032372D01*
X0129411Y0033970D02*
X0148570Y0033970D01*
X0148570Y0035569D02*
X0127813Y0035569D01*
X0126214Y0037167D02*
X0148570Y0037167D01*
X0148393Y0038766D02*
X0124616Y0038766D01*
X0123017Y0040364D02*
X0146795Y0040364D01*
X0145196Y0041963D02*
X0121419Y0041963D01*
X0119820Y0043561D02*
X0143598Y0043561D01*
X0141999Y0045160D02*
X0118222Y0045160D01*
X0116623Y0046758D02*
X0140400Y0046758D01*
X0138802Y0048357D02*
X0115025Y0048357D01*
X0113426Y0049955D02*
X0137203Y0049955D01*
X0135605Y0051554D02*
X0111827Y0051554D01*
X0110229Y0053152D02*
X0134006Y0053152D01*
X0132408Y0054751D02*
X0108630Y0054751D01*
X0107032Y0056349D02*
X0130809Y0056349D01*
X0129211Y0057948D02*
X0105433Y0057948D01*
X0103835Y0059546D02*
X0127612Y0059546D01*
X0126014Y0061145D02*
X0102236Y0061145D01*
X0100638Y0062743D02*
X0124415Y0062743D01*
X0129039Y0064342D02*
X0153570Y0064342D01*
X0153570Y0062743D02*
X0130638Y0062743D01*
X0132236Y0061145D02*
X0153570Y0061145D01*
X0153570Y0059546D02*
X0133835Y0059546D01*
X0135433Y0057948D02*
X0153570Y0057948D01*
X0153570Y0056349D02*
X0137032Y0056349D01*
X0138630Y0054751D02*
X0153570Y0054751D01*
X0153570Y0053152D02*
X0140229Y0053152D01*
X0141827Y0051554D02*
X0153570Y0051554D01*
X0153570Y0049955D02*
X0143426Y0049955D01*
X0145025Y0048357D02*
X0153570Y0048357D01*
X0153570Y0046758D02*
X0146623Y0046758D01*
X0148222Y0045160D02*
X0153570Y0045160D01*
X0153570Y0043561D02*
X0149820Y0043561D01*
X0151419Y0041963D02*
X0153570Y0041963D01*
X0153570Y0040364D02*
X0152970Y0040364D01*
X0152970Y0038766D02*
X0153570Y0038766D01*
X0153570Y0037167D02*
X0152970Y0037167D01*
X0152970Y0035569D02*
X0153570Y0035569D01*
X0153570Y0033970D02*
X0152970Y0033970D01*
X0152970Y0032372D02*
X0153570Y0032372D01*
X0153886Y0030773D02*
X0152970Y0030773D01*
X0155770Y0032000D02*
X0170770Y0014500D01*
X0175770Y0019500D02*
X0165770Y0032000D01*
X0165770Y0074500D01*
X0170770Y0079500D01*
X0166417Y0078729D02*
X0165123Y0078729D01*
X0165123Y0078634D02*
X0164460Y0077034D01*
X0163236Y0075810D01*
X0161636Y0075147D01*
X0159904Y0075147D01*
X0158304Y0075810D01*
X0157080Y0077034D01*
X0156417Y0078634D01*
X0156417Y0080366D01*
X0157080Y0081966D01*
X0158304Y0083190D01*
X0159904Y0083853D01*
X0161636Y0083853D01*
X0163236Y0083190D01*
X0164460Y0081966D01*
X0165123Y0080366D01*
X0165123Y0078634D01*
X0165289Y0077130D02*
X0164500Y0077130D01*
X0163690Y0075532D02*
X0162564Y0075532D01*
X0158977Y0075532D02*
X0157850Y0075532D01*
X0157040Y0077130D02*
X0156251Y0077130D01*
X0156417Y0078729D02*
X0155123Y0078729D01*
X0155123Y0080327D02*
X0156417Y0080327D01*
X0157063Y0081926D02*
X0154477Y0081926D01*
X0152429Y0083524D02*
X0159111Y0083524D01*
X0162429Y0083524D02*
X0169111Y0083524D01*
X0167063Y0081926D02*
X0164477Y0081926D01*
X0165123Y0080327D02*
X0166417Y0080327D01*
X0174500Y0077130D02*
X0175289Y0077130D01*
X0173690Y0075532D02*
X0172564Y0075532D01*
X0173570Y0073933D02*
X0168314Y0073933D01*
X0163570Y0073933D02*
X0157970Y0073933D01*
X0155770Y0074500D02*
X0155770Y0032000D01*
X0155294Y0029175D02*
X0152970Y0029175D01*
X0152970Y0027576D02*
X0156664Y0027576D01*
X0158034Y0025978D02*
X0152970Y0025978D01*
X0152970Y0024379D02*
X0159405Y0024379D01*
X0160775Y0022781D02*
X0152970Y0022781D01*
X0153310Y0021182D02*
X0158230Y0021182D01*
X0156871Y0019584D02*
X0154670Y0019584D01*
X0155170Y0017985D02*
X0156370Y0017985D01*
X0156370Y0016387D02*
X0155170Y0016387D01*
X0146370Y0016387D02*
X0145570Y0016387D01*
X0145553Y0017985D02*
X0146370Y0017985D01*
X0146871Y0019584D02*
X0145096Y0019584D01*
X0140970Y0019584D02*
X0140570Y0019584D01*
X0140570Y0017985D02*
X0140970Y0017985D01*
X0140970Y0016387D02*
X0140570Y0016387D01*
X0140570Y0014788D02*
X0140970Y0014788D01*
X0145570Y0014788D02*
X0146370Y0014788D01*
X0146348Y0013190D02*
X0145570Y0013190D01*
X0188510Y0032372D02*
X0197970Y0032372D01*
X0197970Y0030773D02*
X0190108Y0030773D01*
X0191707Y0029175D02*
X0197970Y0029175D01*
X0197970Y0027576D02*
X0193305Y0027576D01*
X0194904Y0025978D02*
X0197970Y0025978D01*
X0197970Y0024379D02*
X0196502Y0024379D01*
X0196681Y0024200D02*
X0196681Y0024200D01*
X0197970Y0022781D02*
X0197970Y0022781D01*
X0197970Y0021182D02*
X0197970Y0021182D01*
X0197970Y0019584D02*
X0197970Y0019584D01*
X0197970Y0017985D02*
X0197970Y0017985D01*
X0197970Y0016387D02*
X0197970Y0016387D01*
X0197970Y0014788D02*
X0197970Y0014788D01*
X0197970Y0013190D02*
X0197970Y0013190D01*
X0197970Y0011591D02*
X0197970Y0011591D01*
X0197970Y0009993D02*
X0197970Y0009993D01*
X0197970Y0008394D02*
X0197775Y0008394D01*
X0197970Y0006796D02*
X0196177Y0006796D01*
X0195470Y0006089D02*
X0195470Y0006089D01*
X0194578Y0005197D02*
X0197970Y0005197D01*
X0197970Y0033970D02*
X0187970Y0033970D01*
X0187970Y0035569D02*
X0197970Y0035569D01*
X0197970Y0037167D02*
X0187970Y0037167D01*
X0187970Y0038766D02*
X0197970Y0038766D01*
X0197970Y0040364D02*
X0187970Y0040364D01*
X0187970Y0041963D02*
X0197970Y0041963D01*
X0197970Y0043561D02*
X0187970Y0043561D01*
X0187970Y0045160D02*
X0197970Y0045160D01*
X0197970Y0046758D02*
X0187970Y0046758D01*
X0187970Y0048357D02*
X0197970Y0048357D01*
X0197970Y0049955D02*
X0187970Y0049955D01*
X0187970Y0051554D02*
X0197970Y0051554D01*
X0197970Y0053152D02*
X0187970Y0053152D01*
X0187970Y0054751D02*
X0197970Y0054751D01*
X0197970Y0056349D02*
X0187970Y0056349D01*
X0187970Y0057948D02*
X0197970Y0057948D01*
X0197970Y0059546D02*
X0187970Y0059546D01*
X0187970Y0061145D02*
X0197970Y0061145D01*
X0197970Y0062743D02*
X0187970Y0062743D01*
X0187970Y0064342D02*
X0197970Y0064342D01*
X0183570Y0073933D02*
X0178314Y0073933D01*
X0182564Y0075532D02*
X0183690Y0075532D01*
X0184500Y0077130D02*
X0185289Y0077130D01*
X0185123Y0078729D02*
X0186417Y0078729D01*
X0186417Y0080327D02*
X0185123Y0080327D01*
X0184477Y0081926D02*
X0187063Y0081926D01*
X0190770Y0079500D02*
X0185770Y0074500D01*
X0197970Y0085123D02*
X0013570Y0085123D01*
X0013570Y0086721D02*
X0197970Y0086721D01*
X0197970Y0088320D02*
X0013570Y0088320D01*
X0013570Y0089918D02*
X0197970Y0089918D01*
X0197970Y0091517D02*
X0013570Y0091517D01*
X0013570Y0083524D02*
X0019111Y0083524D01*
X0019904Y0083853D02*
X0018304Y0083190D01*
X0017080Y0081966D01*
X0016417Y0080366D01*
X0016417Y0078634D01*
X0017080Y0077034D01*
X0018304Y0075810D01*
X0019904Y0075147D01*
X0021636Y0075147D01*
X0023236Y0075810D01*
X0024460Y0077034D01*
X0025123Y0078634D01*
X0025123Y0080366D01*
X0024460Y0081966D01*
X0023236Y0083190D01*
X0021636Y0083853D01*
X0019904Y0083853D01*
X0022429Y0083524D02*
X0029111Y0083524D01*
X0027063Y0081926D02*
X0024477Y0081926D01*
X0025123Y0080327D02*
X0026417Y0080327D01*
X0026417Y0078729D02*
X0025123Y0078729D01*
X0024500Y0077130D02*
X0027040Y0077130D01*
X0028977Y0075532D02*
X0022564Y0075532D01*
X0018977Y0075532D02*
X0013570Y0075532D01*
X0013570Y0077130D02*
X0017040Y0077130D01*
X0016417Y0078729D02*
X0013570Y0078729D01*
X0013570Y0080327D02*
X0016417Y0080327D01*
X0017063Y0081926D02*
X0013570Y0081926D01*
X0032429Y0083524D02*
X0039111Y0083524D01*
X0037063Y0081926D02*
X0034477Y0081926D01*
X0035123Y0080327D02*
X0036417Y0080327D01*
X0042429Y0083524D02*
X0049111Y0083524D01*
X0049904Y0083853D02*
X0048304Y0083190D01*
X0047080Y0081966D01*
X0046417Y0080366D01*
X0046417Y0078634D01*
X0047080Y0077034D01*
X0048304Y0075810D01*
X0049904Y0075147D01*
X0051636Y0075147D01*
X0053236Y0075810D01*
X0054460Y0077034D01*
X0055123Y0078634D01*
X0055123Y0080366D01*
X0054460Y0081966D01*
X0053236Y0083190D01*
X0051636Y0083853D01*
X0049904Y0083853D01*
X0052429Y0083524D02*
X0059111Y0083524D01*
X0057063Y0081926D02*
X0054477Y0081926D01*
X0055123Y0080327D02*
X0056417Y0080327D01*
X0056417Y0078729D02*
X0055123Y0078729D01*
X0054500Y0077130D02*
X0057040Y0077130D01*
X0058977Y0075532D02*
X0052564Y0075532D01*
X0048977Y0075532D02*
X0047850Y0075532D01*
X0047040Y0077130D02*
X0046251Y0077130D01*
X0046417Y0078729D02*
X0045123Y0078729D01*
X0045123Y0080327D02*
X0046417Y0080327D01*
X0047063Y0081926D02*
X0044477Y0081926D01*
X0062429Y0083524D02*
X0069111Y0083524D01*
X0067063Y0081926D02*
X0064477Y0081926D01*
X0065123Y0080327D02*
X0066417Y0080327D01*
X0057449Y0072334D02*
X0054091Y0072334D01*
X0054970Y0070736D02*
X0056571Y0070736D01*
X0056417Y0069137D02*
X0055123Y0069137D01*
X0054669Y0067539D02*
X0056871Y0067539D01*
X0058174Y0065940D02*
X0053366Y0065940D01*
X0050638Y0062743D02*
X0076915Y0062743D01*
X0103932Y0065940D02*
X0108174Y0065940D01*
X0106871Y0067539D02*
X0105105Y0067539D01*
X0105523Y0069137D02*
X0106417Y0069137D01*
X0106571Y0070736D02*
X0105366Y0070736D01*
X0104585Y0072334D02*
X0107449Y0072334D01*
X0116251Y0077130D02*
X0147040Y0077130D01*
X0148977Y0075532D02*
X0117850Y0075532D01*
X0119448Y0073933D02*
X0149033Y0073933D01*
X0148946Y0073905D02*
X0148279Y0073565D01*
X0147674Y0073125D01*
X0147145Y0072596D01*
X0146705Y0071991D01*
X0146366Y0071324D01*
X0146134Y0070613D01*
X0146017Y0069874D01*
X0146017Y0069684D01*
X0150586Y0069684D01*
X0150586Y0074253D01*
X0150396Y0074253D01*
X0149657Y0074136D01*
X0148946Y0073905D01*
X0150586Y0073933D02*
X0150954Y0073933D01*
X0152507Y0073933D02*
X0153226Y0073933D01*
X0155770Y0074500D02*
X0150770Y0079500D01*
X0146417Y0078729D02*
X0115123Y0078729D01*
X0115123Y0080327D02*
X0146417Y0080327D01*
X0147063Y0081926D02*
X0114477Y0081926D01*
X0112429Y0083524D02*
X0149111Y0083524D01*
X0150586Y0072334D02*
X0150954Y0072334D01*
X0150954Y0070736D02*
X0150586Y0070736D01*
X0150586Y0069137D02*
X0150954Y0069137D01*
X0150954Y0067539D02*
X0150586Y0067539D01*
X0150586Y0065940D02*
X0150954Y0065940D01*
X0147608Y0065940D02*
X0127441Y0065940D01*
X0125842Y0067539D02*
X0146435Y0067539D01*
X0146017Y0069137D02*
X0124244Y0069137D01*
X0122645Y0070736D02*
X0146174Y0070736D01*
X0146955Y0072334D02*
X0121047Y0072334D01*
X0028174Y0065940D02*
X0023366Y0065940D01*
X0024669Y0067539D02*
X0026871Y0067539D01*
X0026417Y0069137D02*
X0025123Y0069137D01*
X0024970Y0070736D02*
X0026571Y0070736D01*
X0027449Y0072334D02*
X0024091Y0072334D01*
X0028301Y0033970D02*
X0013570Y0033970D01*
M02*
