%
M48
M72
T01C0.03937
T02C0.04000
%
T01
X20770Y69500
X30770Y69500
X40770Y69500
X50770Y69500
X60770Y69500
X70770Y69500
X80770Y69500
X90770Y69500
X100770Y69500
X110770Y69500
X110770Y79500
X100770Y79500
X90770Y79500
X80770Y79500
X70770Y79500
X60770Y79500
X50770Y79500
X40770Y79500
X30770Y79500
X20770Y79500
X150770Y79500
X160770Y79500
X170770Y79500
X180770Y79500
X190770Y79500
X190770Y69500
X180770Y69500
X170770Y69500
X160770Y69500
X150770Y69500
T02
X35770Y35750
X35770Y45750
X110770Y14500
X120770Y14500
X130770Y14500
X140770Y14500
X150770Y14500
X160770Y14500
X170770Y14500
X180770Y14500
X190770Y14500
M30
