G75*
%MOIN*%
%OFA0B0*%
%FSLAX25Y25*%
%IPPOS*%
%LPD*%
%AMOC8*
5,1,8,0,0,1.08239X$1,22.5*
%
%ADD10C,0.00000*%
%ADD11C,0.28740*%
%ADD12C,0.08661*%
%ADD13R,0.04724X0.07874*%
%ADD14R,0.02362X0.07874*%
%ADD15R,0.23622X0.05512*%
%ADD16R,0.23622X0.03937*%
%ADD17R,0.08661X0.02362*%
%ADD18R,0.02362X0.08661*%
%ADD19R,0.02200X0.04700*%
%ADD20R,0.04700X0.02200*%
%ADD21R,0.05906X0.05118*%
%ADD22R,0.05118X0.05906*%
%ADD23R,0.01969X0.05906*%
%ADD24R,0.05906X0.01969*%
%ADD25C,0.06000*%
D10*
X0001000Y0001000D02*
X0001000Y0196000D01*
X0237000Y0196000D01*
X0237000Y0020500D01*
X0221900Y0020500D01*
X0221900Y0001000D01*
X0001000Y0001000D01*
X0048244Y0098441D02*
X0048248Y0098794D01*
X0048261Y0099146D01*
X0048283Y0099498D01*
X0048313Y0099850D01*
X0048352Y0100200D01*
X0048400Y0100550D01*
X0048456Y0100898D01*
X0048520Y0101244D01*
X0048593Y0101589D01*
X0048675Y0101933D01*
X0048765Y0102274D01*
X0048863Y0102612D01*
X0048969Y0102949D01*
X0049084Y0103282D01*
X0049207Y0103613D01*
X0049338Y0103940D01*
X0049477Y0104264D01*
X0049624Y0104585D01*
X0049778Y0104902D01*
X0049941Y0105215D01*
X0050111Y0105524D01*
X0050288Y0105829D01*
X0050473Y0106129D01*
X0050666Y0106425D01*
X0050865Y0106715D01*
X0051072Y0107001D01*
X0051285Y0107282D01*
X0051506Y0107557D01*
X0051733Y0107827D01*
X0051967Y0108091D01*
X0052207Y0108350D01*
X0052453Y0108602D01*
X0052705Y0108848D01*
X0052964Y0109088D01*
X0053228Y0109322D01*
X0053498Y0109549D01*
X0053773Y0109770D01*
X0054054Y0109983D01*
X0054340Y0110190D01*
X0054630Y0110389D01*
X0054926Y0110582D01*
X0055226Y0110767D01*
X0055531Y0110944D01*
X0055840Y0111114D01*
X0056153Y0111277D01*
X0056470Y0111431D01*
X0056791Y0111578D01*
X0057115Y0111717D01*
X0057442Y0111848D01*
X0057773Y0111971D01*
X0058106Y0112086D01*
X0058443Y0112192D01*
X0058781Y0112290D01*
X0059122Y0112380D01*
X0059466Y0112462D01*
X0059811Y0112535D01*
X0060157Y0112599D01*
X0060505Y0112655D01*
X0060855Y0112703D01*
X0061205Y0112742D01*
X0061557Y0112772D01*
X0061909Y0112794D01*
X0062261Y0112807D01*
X0062614Y0112811D01*
X0062967Y0112807D01*
X0063319Y0112794D01*
X0063671Y0112772D01*
X0064023Y0112742D01*
X0064373Y0112703D01*
X0064723Y0112655D01*
X0065071Y0112599D01*
X0065417Y0112535D01*
X0065762Y0112462D01*
X0066106Y0112380D01*
X0066447Y0112290D01*
X0066785Y0112192D01*
X0067122Y0112086D01*
X0067455Y0111971D01*
X0067786Y0111848D01*
X0068113Y0111717D01*
X0068437Y0111578D01*
X0068758Y0111431D01*
X0069075Y0111277D01*
X0069388Y0111114D01*
X0069697Y0110944D01*
X0070002Y0110767D01*
X0070302Y0110582D01*
X0070598Y0110389D01*
X0070888Y0110190D01*
X0071174Y0109983D01*
X0071455Y0109770D01*
X0071730Y0109549D01*
X0072000Y0109322D01*
X0072264Y0109088D01*
X0072523Y0108848D01*
X0072775Y0108602D01*
X0073021Y0108350D01*
X0073261Y0108091D01*
X0073495Y0107827D01*
X0073722Y0107557D01*
X0073943Y0107282D01*
X0074156Y0107001D01*
X0074363Y0106715D01*
X0074562Y0106425D01*
X0074755Y0106129D01*
X0074940Y0105829D01*
X0075117Y0105524D01*
X0075287Y0105215D01*
X0075450Y0104902D01*
X0075604Y0104585D01*
X0075751Y0104264D01*
X0075890Y0103940D01*
X0076021Y0103613D01*
X0076144Y0103282D01*
X0076259Y0102949D01*
X0076365Y0102612D01*
X0076463Y0102274D01*
X0076553Y0101933D01*
X0076635Y0101589D01*
X0076708Y0101244D01*
X0076772Y0100898D01*
X0076828Y0100550D01*
X0076876Y0100200D01*
X0076915Y0099850D01*
X0076945Y0099498D01*
X0076967Y0099146D01*
X0076980Y0098794D01*
X0076984Y0098441D01*
X0076980Y0098088D01*
X0076967Y0097736D01*
X0076945Y0097384D01*
X0076915Y0097032D01*
X0076876Y0096682D01*
X0076828Y0096332D01*
X0076772Y0095984D01*
X0076708Y0095638D01*
X0076635Y0095293D01*
X0076553Y0094949D01*
X0076463Y0094608D01*
X0076365Y0094270D01*
X0076259Y0093933D01*
X0076144Y0093600D01*
X0076021Y0093269D01*
X0075890Y0092942D01*
X0075751Y0092618D01*
X0075604Y0092297D01*
X0075450Y0091980D01*
X0075287Y0091667D01*
X0075117Y0091358D01*
X0074940Y0091053D01*
X0074755Y0090753D01*
X0074562Y0090457D01*
X0074363Y0090167D01*
X0074156Y0089881D01*
X0073943Y0089600D01*
X0073722Y0089325D01*
X0073495Y0089055D01*
X0073261Y0088791D01*
X0073021Y0088532D01*
X0072775Y0088280D01*
X0072523Y0088034D01*
X0072264Y0087794D01*
X0072000Y0087560D01*
X0071730Y0087333D01*
X0071455Y0087112D01*
X0071174Y0086899D01*
X0070888Y0086692D01*
X0070598Y0086493D01*
X0070302Y0086300D01*
X0070002Y0086115D01*
X0069697Y0085938D01*
X0069388Y0085768D01*
X0069075Y0085605D01*
X0068758Y0085451D01*
X0068437Y0085304D01*
X0068113Y0085165D01*
X0067786Y0085034D01*
X0067455Y0084911D01*
X0067122Y0084796D01*
X0066785Y0084690D01*
X0066447Y0084592D01*
X0066106Y0084502D01*
X0065762Y0084420D01*
X0065417Y0084347D01*
X0065071Y0084283D01*
X0064723Y0084227D01*
X0064373Y0084179D01*
X0064023Y0084140D01*
X0063671Y0084110D01*
X0063319Y0084088D01*
X0062967Y0084075D01*
X0062614Y0084071D01*
X0062261Y0084075D01*
X0061909Y0084088D01*
X0061557Y0084110D01*
X0061205Y0084140D01*
X0060855Y0084179D01*
X0060505Y0084227D01*
X0060157Y0084283D01*
X0059811Y0084347D01*
X0059466Y0084420D01*
X0059122Y0084502D01*
X0058781Y0084592D01*
X0058443Y0084690D01*
X0058106Y0084796D01*
X0057773Y0084911D01*
X0057442Y0085034D01*
X0057115Y0085165D01*
X0056791Y0085304D01*
X0056470Y0085451D01*
X0056153Y0085605D01*
X0055840Y0085768D01*
X0055531Y0085938D01*
X0055226Y0086115D01*
X0054926Y0086300D01*
X0054630Y0086493D01*
X0054340Y0086692D01*
X0054054Y0086899D01*
X0053773Y0087112D01*
X0053498Y0087333D01*
X0053228Y0087560D01*
X0052964Y0087794D01*
X0052705Y0088034D01*
X0052453Y0088280D01*
X0052207Y0088532D01*
X0051967Y0088791D01*
X0051733Y0089055D01*
X0051506Y0089325D01*
X0051285Y0089600D01*
X0051072Y0089881D01*
X0050865Y0090167D01*
X0050666Y0090457D01*
X0050473Y0090753D01*
X0050288Y0091053D01*
X0050111Y0091358D01*
X0049941Y0091667D01*
X0049778Y0091980D01*
X0049624Y0092297D01*
X0049477Y0092618D01*
X0049338Y0092942D01*
X0049207Y0093269D01*
X0049084Y0093600D01*
X0048969Y0093933D01*
X0048863Y0094270D01*
X0048765Y0094608D01*
X0048675Y0094949D01*
X0048593Y0095293D01*
X0048520Y0095638D01*
X0048456Y0095984D01*
X0048400Y0096332D01*
X0048352Y0096682D01*
X0048313Y0097032D01*
X0048283Y0097384D01*
X0048261Y0097736D01*
X0048248Y0098088D01*
X0048244Y0098441D01*
X0156905Y0098441D02*
X0156907Y0098572D01*
X0156913Y0098704D01*
X0156923Y0098835D01*
X0156937Y0098966D01*
X0156955Y0099096D01*
X0156977Y0099225D01*
X0157002Y0099354D01*
X0157032Y0099482D01*
X0157066Y0099609D01*
X0157103Y0099736D01*
X0157144Y0099860D01*
X0157189Y0099984D01*
X0157238Y0100106D01*
X0157290Y0100227D01*
X0157346Y0100345D01*
X0157406Y0100463D01*
X0157469Y0100578D01*
X0157536Y0100691D01*
X0157606Y0100803D01*
X0157679Y0100912D01*
X0157755Y0101018D01*
X0157835Y0101123D01*
X0157918Y0101225D01*
X0158004Y0101324D01*
X0158093Y0101421D01*
X0158185Y0101515D01*
X0158280Y0101606D01*
X0158377Y0101695D01*
X0158477Y0101780D01*
X0158580Y0101862D01*
X0158685Y0101941D01*
X0158792Y0102017D01*
X0158902Y0102089D01*
X0159014Y0102158D01*
X0159128Y0102224D01*
X0159243Y0102286D01*
X0159361Y0102345D01*
X0159480Y0102400D01*
X0159601Y0102452D01*
X0159724Y0102499D01*
X0159848Y0102543D01*
X0159973Y0102584D01*
X0160099Y0102620D01*
X0160227Y0102653D01*
X0160355Y0102681D01*
X0160484Y0102706D01*
X0160614Y0102727D01*
X0160744Y0102744D01*
X0160875Y0102757D01*
X0161006Y0102766D01*
X0161137Y0102771D01*
X0161269Y0102772D01*
X0161400Y0102769D01*
X0161532Y0102762D01*
X0161663Y0102751D01*
X0161793Y0102736D01*
X0161923Y0102717D01*
X0162053Y0102694D01*
X0162181Y0102668D01*
X0162309Y0102637D01*
X0162436Y0102602D01*
X0162562Y0102564D01*
X0162686Y0102522D01*
X0162810Y0102476D01*
X0162931Y0102426D01*
X0163051Y0102373D01*
X0163170Y0102316D01*
X0163287Y0102256D01*
X0163401Y0102192D01*
X0163514Y0102124D01*
X0163625Y0102053D01*
X0163734Y0101979D01*
X0163840Y0101902D01*
X0163944Y0101821D01*
X0164045Y0101738D01*
X0164144Y0101651D01*
X0164240Y0101561D01*
X0164333Y0101468D01*
X0164424Y0101373D01*
X0164511Y0101275D01*
X0164596Y0101174D01*
X0164677Y0101071D01*
X0164755Y0100965D01*
X0164830Y0100857D01*
X0164902Y0100747D01*
X0164970Y0100635D01*
X0165035Y0100521D01*
X0165096Y0100404D01*
X0165154Y0100286D01*
X0165208Y0100166D01*
X0165259Y0100045D01*
X0165306Y0099922D01*
X0165349Y0099798D01*
X0165388Y0099673D01*
X0165424Y0099546D01*
X0165455Y0099418D01*
X0165483Y0099290D01*
X0165507Y0099161D01*
X0165527Y0099031D01*
X0165543Y0098900D01*
X0165555Y0098769D01*
X0165563Y0098638D01*
X0165567Y0098507D01*
X0165567Y0098375D01*
X0165563Y0098244D01*
X0165555Y0098113D01*
X0165543Y0097982D01*
X0165527Y0097851D01*
X0165507Y0097721D01*
X0165483Y0097592D01*
X0165455Y0097464D01*
X0165424Y0097336D01*
X0165388Y0097209D01*
X0165349Y0097084D01*
X0165306Y0096960D01*
X0165259Y0096837D01*
X0165208Y0096716D01*
X0165154Y0096596D01*
X0165096Y0096478D01*
X0165035Y0096361D01*
X0164970Y0096247D01*
X0164902Y0096135D01*
X0164830Y0096025D01*
X0164755Y0095917D01*
X0164677Y0095811D01*
X0164596Y0095708D01*
X0164511Y0095607D01*
X0164424Y0095509D01*
X0164333Y0095414D01*
X0164240Y0095321D01*
X0164144Y0095231D01*
X0164045Y0095144D01*
X0163944Y0095061D01*
X0163840Y0094980D01*
X0163734Y0094903D01*
X0163625Y0094829D01*
X0163514Y0094758D01*
X0163402Y0094690D01*
X0163287Y0094626D01*
X0163170Y0094566D01*
X0163051Y0094509D01*
X0162931Y0094456D01*
X0162810Y0094406D01*
X0162686Y0094360D01*
X0162562Y0094318D01*
X0162436Y0094280D01*
X0162309Y0094245D01*
X0162181Y0094214D01*
X0162053Y0094188D01*
X0161923Y0094165D01*
X0161793Y0094146D01*
X0161663Y0094131D01*
X0161532Y0094120D01*
X0161400Y0094113D01*
X0161269Y0094110D01*
X0161137Y0094111D01*
X0161006Y0094116D01*
X0160875Y0094125D01*
X0160744Y0094138D01*
X0160614Y0094155D01*
X0160484Y0094176D01*
X0160355Y0094201D01*
X0160227Y0094229D01*
X0160099Y0094262D01*
X0159973Y0094298D01*
X0159848Y0094339D01*
X0159724Y0094383D01*
X0159601Y0094430D01*
X0159480Y0094482D01*
X0159361Y0094537D01*
X0159243Y0094596D01*
X0159128Y0094658D01*
X0159014Y0094724D01*
X0158902Y0094793D01*
X0158792Y0094865D01*
X0158685Y0094941D01*
X0158580Y0095020D01*
X0158477Y0095102D01*
X0158377Y0095187D01*
X0158280Y0095276D01*
X0158185Y0095367D01*
X0158093Y0095461D01*
X0158004Y0095558D01*
X0157918Y0095657D01*
X0157835Y0095759D01*
X0157755Y0095864D01*
X0157679Y0095970D01*
X0157606Y0096079D01*
X0157536Y0096191D01*
X0157469Y0096304D01*
X0157406Y0096419D01*
X0157346Y0096537D01*
X0157290Y0096655D01*
X0157238Y0096776D01*
X0157189Y0096898D01*
X0157144Y0097022D01*
X0157103Y0097146D01*
X0157066Y0097273D01*
X0157032Y0097400D01*
X0157002Y0097528D01*
X0156977Y0097657D01*
X0156955Y0097786D01*
X0156937Y0097916D01*
X0156923Y0098047D01*
X0156913Y0098178D01*
X0156907Y0098310D01*
X0156905Y0098441D01*
D11*
X0062614Y0098441D03*
X0062614Y0098441D03*
D12*
X0161236Y0098441D03*
X0161236Y0098441D03*
D13*
X0114291Y0135637D03*
X0114291Y0181306D03*
X0056062Y0181306D03*
X0056062Y0135637D03*
D14*
X0062322Y0135637D03*
X0067401Y0135637D03*
X0072480Y0135637D03*
X0077558Y0135637D03*
X0082637Y0135637D03*
X0087716Y0135637D03*
X0092794Y0135637D03*
X0097873Y0135637D03*
X0102952Y0135637D03*
X0108031Y0135637D03*
X0108031Y0181306D03*
X0102952Y0181306D03*
X0097873Y0181306D03*
X0092794Y0181306D03*
X0087716Y0181306D03*
X0082637Y0181306D03*
X0077558Y0181306D03*
X0072480Y0181306D03*
X0067401Y0181306D03*
X0062322Y0181306D03*
D15*
X0016748Y0190764D03*
X0016748Y0006118D03*
D16*
X0016748Y0012811D03*
X0016748Y0018717D03*
X0016748Y0024622D03*
X0016748Y0030528D03*
X0016748Y0036433D03*
X0016748Y0042339D03*
X0016748Y0048244D03*
X0016748Y0054150D03*
X0016748Y0060055D03*
X0016748Y0065961D03*
X0016748Y0071866D03*
X0016748Y0077772D03*
X0016748Y0083677D03*
X0016748Y0089583D03*
X0016748Y0095488D03*
X0016748Y0101394D03*
X0016748Y0107299D03*
X0016748Y0113205D03*
X0016748Y0119110D03*
X0016748Y0125016D03*
X0016748Y0130921D03*
X0016748Y0136827D03*
X0016748Y0142732D03*
X0016748Y0148638D03*
X0016748Y0154543D03*
X0016748Y0160449D03*
X0016748Y0166354D03*
X0016748Y0172260D03*
X0016748Y0178165D03*
X0016748Y0184071D03*
D17*
X0147635Y0171900D03*
X0147635Y0166900D03*
X0147635Y0161900D03*
X0147635Y0156900D03*
X0147635Y0151900D03*
X0147635Y0146900D03*
X0147635Y0141900D03*
X0201965Y0141900D03*
X0201965Y0146900D03*
X0201965Y0151900D03*
X0201965Y0156900D03*
X0201965Y0161900D03*
X0201965Y0166900D03*
X0201965Y0171900D03*
D18*
X0194800Y0179341D03*
X0189800Y0179341D03*
X0184800Y0179341D03*
X0179800Y0179341D03*
X0174800Y0179341D03*
X0169800Y0179341D03*
X0164800Y0179341D03*
X0159800Y0179341D03*
X0154800Y0179341D03*
X0154800Y0134459D03*
X0159800Y0134459D03*
X0164800Y0134459D03*
X0169800Y0134459D03*
X0174800Y0134459D03*
X0179800Y0134459D03*
X0184800Y0134459D03*
X0189800Y0134459D03*
X0194800Y0134459D03*
D19*
X0127750Y0082550D03*
X0124650Y0082550D03*
X0121550Y0082550D03*
X0118450Y0082550D03*
X0115350Y0082550D03*
X0112250Y0082550D03*
X0109150Y0082550D03*
X0106050Y0082550D03*
X0102950Y0082550D03*
X0099850Y0082550D03*
X0096750Y0082550D03*
X0093650Y0082550D03*
X0090550Y0082550D03*
X0087450Y0082550D03*
X0084350Y0082550D03*
X0081250Y0082550D03*
X0081250Y0021450D03*
X0084350Y0021450D03*
X0087450Y0021450D03*
X0090550Y0021450D03*
X0093650Y0021450D03*
X0096750Y0021450D03*
X0099850Y0021450D03*
X0102950Y0021450D03*
X0106050Y0021450D03*
X0109150Y0021450D03*
X0112250Y0021450D03*
X0115350Y0021450D03*
X0118450Y0021450D03*
X0121550Y0021450D03*
X0124650Y0021450D03*
X0127750Y0021450D03*
D20*
X0135050Y0028750D03*
X0135050Y0031850D03*
X0135050Y0034950D03*
X0135050Y0038050D03*
X0135050Y0041150D03*
X0135050Y0044250D03*
X0135050Y0047350D03*
X0135050Y0050450D03*
X0135050Y0053550D03*
X0135050Y0056650D03*
X0135050Y0059750D03*
X0135050Y0062850D03*
X0135050Y0065950D03*
X0135050Y0069050D03*
X0135050Y0072150D03*
X0135050Y0075250D03*
X0073950Y0075250D03*
X0073950Y0072150D03*
X0073950Y0069050D03*
X0073950Y0065950D03*
X0073950Y0062850D03*
X0073950Y0059750D03*
X0073950Y0056650D03*
X0073950Y0053550D03*
X0073950Y0050450D03*
X0073950Y0047350D03*
X0073950Y0044250D03*
X0073950Y0041150D03*
X0073950Y0038050D03*
X0073950Y0034950D03*
X0073950Y0031850D03*
X0073950Y0028750D03*
D21*
X0141400Y0019540D03*
X0141400Y0012060D03*
X0154600Y0012060D03*
X0154600Y0019540D03*
X0193000Y0017260D03*
X0201800Y0017260D03*
X0201800Y0024740D03*
X0193000Y0024740D03*
X0227400Y0085260D03*
X0227400Y0092740D03*
X0047400Y0173660D03*
X0047400Y0181140D03*
D22*
X0125260Y0173800D03*
X0132740Y0173800D03*
X0132740Y0161800D03*
X0125260Y0161800D03*
X0127126Y0103311D03*
X0134606Y0103311D03*
X0196060Y0102600D03*
X0203540Y0102600D03*
X0203540Y0093800D03*
X0196060Y0093800D03*
X0116740Y0012200D03*
X0109260Y0012200D03*
X0099940Y0012200D03*
X0092460Y0012200D03*
X0060940Y0041000D03*
X0053460Y0041000D03*
X0054440Y0050500D03*
X0046960Y0050500D03*
D23*
X0180452Y0036565D03*
X0183602Y0036565D03*
X0186751Y0036565D03*
X0189901Y0036565D03*
X0193050Y0036565D03*
X0196200Y0036565D03*
X0199350Y0036565D03*
X0202499Y0036565D03*
X0205649Y0036565D03*
X0208798Y0036565D03*
X0211948Y0036565D03*
X0211948Y0082235D03*
X0208798Y0082235D03*
X0205649Y0082235D03*
X0202499Y0082235D03*
X0199350Y0082235D03*
X0196200Y0082235D03*
X0193050Y0082235D03*
X0189901Y0082235D03*
X0186751Y0082235D03*
X0183602Y0082235D03*
X0180452Y0082235D03*
D24*
X0173365Y0075148D03*
X0173365Y0071998D03*
X0173365Y0068849D03*
X0173365Y0065699D03*
X0173365Y0062550D03*
X0173365Y0059400D03*
X0173365Y0056250D03*
X0173365Y0053101D03*
X0173365Y0049951D03*
X0173365Y0046802D03*
X0173365Y0043652D03*
X0219035Y0043652D03*
X0219035Y0046802D03*
X0219035Y0049951D03*
X0219035Y0053101D03*
X0219035Y0056250D03*
X0219035Y0059400D03*
X0219035Y0062550D03*
X0219035Y0065699D03*
X0219035Y0068849D03*
X0219035Y0071998D03*
X0219035Y0075148D03*
D25*
X0222800Y0105000D02*
X0228800Y0105000D01*
X0228800Y0115000D02*
X0222800Y0115000D01*
X0222800Y0125000D02*
X0228800Y0125000D01*
X0228800Y0135000D02*
X0222800Y0135000D01*
X0222800Y0145000D02*
X0228800Y0145000D01*
X0228800Y0155000D02*
X0222800Y0155000D01*
X0222800Y0165000D02*
X0228800Y0165000D01*
X0228800Y0175000D02*
X0222800Y0175000D01*
X0222800Y0185000D02*
X0228800Y0185000D01*
M02*
