%
M48
M72
T01C0.01200
T02C0.04000
T03C0.08661
T04C0.28740
%
T01
X30600Y6200
X30600Y13000
X30600Y18600
X30600Y41800
X30600Y48200
X30600Y53800
X30600Y59400
X30600Y65800
X30600Y71800
X30600Y77800
X30600Y83800
X57000Y77800
X56200Y128200
X62200Y128200
X67400Y128200
X72600Y128200
X77800Y128200
X87400Y119400
X96200Y119400
X103000Y114200
X106600Y108200
X109000Y105800
X111400Y108200
X99400Y99400
X97000Y101800
X97000Y97000
X99400Y94600
X92200Y94600
X89800Y97000
X87400Y99400
X85000Y101800
X103000Y87400
X111400Y75400
X109000Y72200
X106600Y69000
X117000Y69800
X119400Y73000
X121800Y69800
X124200Y73000
X126600Y69800
X144200Y75400
X151400Y74600
X145000Y85000
X145800Y88200
X146600Y91400
X147400Y94600
X143400Y113800
X136200Y115400
X130600Y115400
X128435Y111305
X108200Y128200
X103000Y128200
X105800Y121800
X119800Y135800
X108200Y143400
X119400Y161800
X132840Y167300
X125400Y181800
X93000Y167400
X87400Y161000
X82600Y169000
X77400Y166600
X72200Y164200
X77800Y156200
X72200Y153800
X67400Y151400
X62600Y149000
X56200Y146600
X35400Y166600
X41000Y173800
X30635Y178165
X56200Y188200
X62200Y175000
X59400Y170600
X30600Y133800
X83400Y77800
X87000Y55400
X90600Y45800
X97000Y43400
X100200Y41000
X114200Y50450
X123800Y33000
X121400Y29400
X127000Y29400
X115400Y31400
X112200Y29000
X109150Y26750
X100200Y29000
X97000Y26600
X85000Y11400
X81000Y9000
X91800Y6600
X108600Y6600
X140200Y29000
X142600Y31800
X148200Y16200
X148200Y8200
X162600Y8200
X167400Y8200
X167400Y16200
X162600Y16200
X171000Y29000
X173400Y31800
X180200Y31400
X183400Y31400
X186600Y31400
X196200Y41800
X189000Y47400
X203400Y49800
X206600Y51400
X209000Y47400
X213800Y46600
X213800Y53000
X213800Y62600
X213800Y65800
X213800Y69000
X213800Y72200
X211400Y74600
X196200Y77400
X193000Y87400
X189800Y87400
X186600Y87400
X177400Y91000
X175000Y88200
X209000Y102600
X211800Y92200
X211800Y87400
X227400Y80200
X212200Y31400
X201800Y12200
X154600Y49800
X157000Y53000
X159400Y55400
X161800Y57800
X151400Y53800
X146600Y56600
X144200Y59800
X69000Y35000
X66600Y37800
X63800Y47400
X47000Y44600
X137800Y139400
X161800Y147400
X165800Y147400
X174600Y149800
X175400Y141800
X187400Y147400
X187800Y151000
X190600Y153000
X195000Y153800
X193000Y157800
X195400Y161800
X209000Y166600
X209000Y171800
X195000Y186600
X179800Y163400
X177800Y157800
T02
X225800Y155000
X225800Y145000
X225800Y135000
X225800Y125000
X225800Y115000
X225800Y105000
X225800Y165000
X225800Y175000
X225800Y185000
T03
X161236Y98441
T04
X62614Y98441
M30
