G75*
%MOIN*%
%OFA0B0*%
%FSLAX25Y25*%
%IPPOS*%
%LPD*%
%AMOC8*
5,1,8,0,0,1.08239X$1,22.5*
%
%ADD10C,0.00000*%
%ADD11R,0.04724X0.07874*%
%ADD12R,0.02362X0.07874*%
%ADD13R,0.23622X0.05512*%
%ADD14R,0.23622X0.03937*%
%ADD15R,0.08661X0.02362*%
%ADD16R,0.02362X0.08661*%
%ADD17R,0.02200X0.04700*%
%ADD18R,0.04700X0.02200*%
%ADD19R,0.05906X0.05118*%
%ADD20R,0.05118X0.05906*%
%ADD21R,0.01969X0.05906*%
%ADD22R,0.05906X0.01969*%
%ADD23C,0.06000*%
%ADD24C,0.01600*%
%ADD25C,0.02400*%
%ADD26C,0.00800*%
D10*
X0001000Y0001000D02*
X0001000Y0196000D01*
X0237000Y0196000D01*
X0237000Y0020500D01*
X0221900Y0020500D01*
X0221900Y0001000D01*
X0001000Y0001000D01*
X0048244Y0098441D02*
X0048248Y0098794D01*
X0048261Y0099146D01*
X0048283Y0099498D01*
X0048313Y0099850D01*
X0048352Y0100200D01*
X0048400Y0100550D01*
X0048456Y0100898D01*
X0048520Y0101244D01*
X0048593Y0101589D01*
X0048675Y0101933D01*
X0048765Y0102274D01*
X0048863Y0102612D01*
X0048969Y0102949D01*
X0049084Y0103282D01*
X0049207Y0103613D01*
X0049338Y0103940D01*
X0049477Y0104264D01*
X0049624Y0104585D01*
X0049778Y0104902D01*
X0049941Y0105215D01*
X0050111Y0105524D01*
X0050288Y0105829D01*
X0050473Y0106129D01*
X0050666Y0106425D01*
X0050865Y0106715D01*
X0051072Y0107001D01*
X0051285Y0107282D01*
X0051506Y0107557D01*
X0051733Y0107827D01*
X0051967Y0108091D01*
X0052207Y0108350D01*
X0052453Y0108602D01*
X0052705Y0108848D01*
X0052964Y0109088D01*
X0053228Y0109322D01*
X0053498Y0109549D01*
X0053773Y0109770D01*
X0054054Y0109983D01*
X0054340Y0110190D01*
X0054630Y0110389D01*
X0054926Y0110582D01*
X0055226Y0110767D01*
X0055531Y0110944D01*
X0055840Y0111114D01*
X0056153Y0111277D01*
X0056470Y0111431D01*
X0056791Y0111578D01*
X0057115Y0111717D01*
X0057442Y0111848D01*
X0057773Y0111971D01*
X0058106Y0112086D01*
X0058443Y0112192D01*
X0058781Y0112290D01*
X0059122Y0112380D01*
X0059466Y0112462D01*
X0059811Y0112535D01*
X0060157Y0112599D01*
X0060505Y0112655D01*
X0060855Y0112703D01*
X0061205Y0112742D01*
X0061557Y0112772D01*
X0061909Y0112794D01*
X0062261Y0112807D01*
X0062614Y0112811D01*
X0062967Y0112807D01*
X0063319Y0112794D01*
X0063671Y0112772D01*
X0064023Y0112742D01*
X0064373Y0112703D01*
X0064723Y0112655D01*
X0065071Y0112599D01*
X0065417Y0112535D01*
X0065762Y0112462D01*
X0066106Y0112380D01*
X0066447Y0112290D01*
X0066785Y0112192D01*
X0067122Y0112086D01*
X0067455Y0111971D01*
X0067786Y0111848D01*
X0068113Y0111717D01*
X0068437Y0111578D01*
X0068758Y0111431D01*
X0069075Y0111277D01*
X0069388Y0111114D01*
X0069697Y0110944D01*
X0070002Y0110767D01*
X0070302Y0110582D01*
X0070598Y0110389D01*
X0070888Y0110190D01*
X0071174Y0109983D01*
X0071455Y0109770D01*
X0071730Y0109549D01*
X0072000Y0109322D01*
X0072264Y0109088D01*
X0072523Y0108848D01*
X0072775Y0108602D01*
X0073021Y0108350D01*
X0073261Y0108091D01*
X0073495Y0107827D01*
X0073722Y0107557D01*
X0073943Y0107282D01*
X0074156Y0107001D01*
X0074363Y0106715D01*
X0074562Y0106425D01*
X0074755Y0106129D01*
X0074940Y0105829D01*
X0075117Y0105524D01*
X0075287Y0105215D01*
X0075450Y0104902D01*
X0075604Y0104585D01*
X0075751Y0104264D01*
X0075890Y0103940D01*
X0076021Y0103613D01*
X0076144Y0103282D01*
X0076259Y0102949D01*
X0076365Y0102612D01*
X0076463Y0102274D01*
X0076553Y0101933D01*
X0076635Y0101589D01*
X0076708Y0101244D01*
X0076772Y0100898D01*
X0076828Y0100550D01*
X0076876Y0100200D01*
X0076915Y0099850D01*
X0076945Y0099498D01*
X0076967Y0099146D01*
X0076980Y0098794D01*
X0076984Y0098441D01*
X0076980Y0098088D01*
X0076967Y0097736D01*
X0076945Y0097384D01*
X0076915Y0097032D01*
X0076876Y0096682D01*
X0076828Y0096332D01*
X0076772Y0095984D01*
X0076708Y0095638D01*
X0076635Y0095293D01*
X0076553Y0094949D01*
X0076463Y0094608D01*
X0076365Y0094270D01*
X0076259Y0093933D01*
X0076144Y0093600D01*
X0076021Y0093269D01*
X0075890Y0092942D01*
X0075751Y0092618D01*
X0075604Y0092297D01*
X0075450Y0091980D01*
X0075287Y0091667D01*
X0075117Y0091358D01*
X0074940Y0091053D01*
X0074755Y0090753D01*
X0074562Y0090457D01*
X0074363Y0090167D01*
X0074156Y0089881D01*
X0073943Y0089600D01*
X0073722Y0089325D01*
X0073495Y0089055D01*
X0073261Y0088791D01*
X0073021Y0088532D01*
X0072775Y0088280D01*
X0072523Y0088034D01*
X0072264Y0087794D01*
X0072000Y0087560D01*
X0071730Y0087333D01*
X0071455Y0087112D01*
X0071174Y0086899D01*
X0070888Y0086692D01*
X0070598Y0086493D01*
X0070302Y0086300D01*
X0070002Y0086115D01*
X0069697Y0085938D01*
X0069388Y0085768D01*
X0069075Y0085605D01*
X0068758Y0085451D01*
X0068437Y0085304D01*
X0068113Y0085165D01*
X0067786Y0085034D01*
X0067455Y0084911D01*
X0067122Y0084796D01*
X0066785Y0084690D01*
X0066447Y0084592D01*
X0066106Y0084502D01*
X0065762Y0084420D01*
X0065417Y0084347D01*
X0065071Y0084283D01*
X0064723Y0084227D01*
X0064373Y0084179D01*
X0064023Y0084140D01*
X0063671Y0084110D01*
X0063319Y0084088D01*
X0062967Y0084075D01*
X0062614Y0084071D01*
X0062261Y0084075D01*
X0061909Y0084088D01*
X0061557Y0084110D01*
X0061205Y0084140D01*
X0060855Y0084179D01*
X0060505Y0084227D01*
X0060157Y0084283D01*
X0059811Y0084347D01*
X0059466Y0084420D01*
X0059122Y0084502D01*
X0058781Y0084592D01*
X0058443Y0084690D01*
X0058106Y0084796D01*
X0057773Y0084911D01*
X0057442Y0085034D01*
X0057115Y0085165D01*
X0056791Y0085304D01*
X0056470Y0085451D01*
X0056153Y0085605D01*
X0055840Y0085768D01*
X0055531Y0085938D01*
X0055226Y0086115D01*
X0054926Y0086300D01*
X0054630Y0086493D01*
X0054340Y0086692D01*
X0054054Y0086899D01*
X0053773Y0087112D01*
X0053498Y0087333D01*
X0053228Y0087560D01*
X0052964Y0087794D01*
X0052705Y0088034D01*
X0052453Y0088280D01*
X0052207Y0088532D01*
X0051967Y0088791D01*
X0051733Y0089055D01*
X0051506Y0089325D01*
X0051285Y0089600D01*
X0051072Y0089881D01*
X0050865Y0090167D01*
X0050666Y0090457D01*
X0050473Y0090753D01*
X0050288Y0091053D01*
X0050111Y0091358D01*
X0049941Y0091667D01*
X0049778Y0091980D01*
X0049624Y0092297D01*
X0049477Y0092618D01*
X0049338Y0092942D01*
X0049207Y0093269D01*
X0049084Y0093600D01*
X0048969Y0093933D01*
X0048863Y0094270D01*
X0048765Y0094608D01*
X0048675Y0094949D01*
X0048593Y0095293D01*
X0048520Y0095638D01*
X0048456Y0095984D01*
X0048400Y0096332D01*
X0048352Y0096682D01*
X0048313Y0097032D01*
X0048283Y0097384D01*
X0048261Y0097736D01*
X0048248Y0098088D01*
X0048244Y0098441D01*
X0156905Y0098441D02*
X0156907Y0098572D01*
X0156913Y0098704D01*
X0156923Y0098835D01*
X0156937Y0098966D01*
X0156955Y0099096D01*
X0156977Y0099225D01*
X0157002Y0099354D01*
X0157032Y0099482D01*
X0157066Y0099609D01*
X0157103Y0099736D01*
X0157144Y0099860D01*
X0157189Y0099984D01*
X0157238Y0100106D01*
X0157290Y0100227D01*
X0157346Y0100345D01*
X0157406Y0100463D01*
X0157469Y0100578D01*
X0157536Y0100691D01*
X0157606Y0100803D01*
X0157679Y0100912D01*
X0157755Y0101018D01*
X0157835Y0101123D01*
X0157918Y0101225D01*
X0158004Y0101324D01*
X0158093Y0101421D01*
X0158185Y0101515D01*
X0158280Y0101606D01*
X0158377Y0101695D01*
X0158477Y0101780D01*
X0158580Y0101862D01*
X0158685Y0101941D01*
X0158792Y0102017D01*
X0158902Y0102089D01*
X0159014Y0102158D01*
X0159128Y0102224D01*
X0159243Y0102286D01*
X0159361Y0102345D01*
X0159480Y0102400D01*
X0159601Y0102452D01*
X0159724Y0102499D01*
X0159848Y0102543D01*
X0159973Y0102584D01*
X0160099Y0102620D01*
X0160227Y0102653D01*
X0160355Y0102681D01*
X0160484Y0102706D01*
X0160614Y0102727D01*
X0160744Y0102744D01*
X0160875Y0102757D01*
X0161006Y0102766D01*
X0161137Y0102771D01*
X0161269Y0102772D01*
X0161400Y0102769D01*
X0161532Y0102762D01*
X0161663Y0102751D01*
X0161793Y0102736D01*
X0161923Y0102717D01*
X0162053Y0102694D01*
X0162181Y0102668D01*
X0162309Y0102637D01*
X0162436Y0102602D01*
X0162562Y0102564D01*
X0162686Y0102522D01*
X0162810Y0102476D01*
X0162931Y0102426D01*
X0163051Y0102373D01*
X0163170Y0102316D01*
X0163287Y0102256D01*
X0163401Y0102192D01*
X0163514Y0102124D01*
X0163625Y0102053D01*
X0163734Y0101979D01*
X0163840Y0101902D01*
X0163944Y0101821D01*
X0164045Y0101738D01*
X0164144Y0101651D01*
X0164240Y0101561D01*
X0164333Y0101468D01*
X0164424Y0101373D01*
X0164511Y0101275D01*
X0164596Y0101174D01*
X0164677Y0101071D01*
X0164755Y0100965D01*
X0164830Y0100857D01*
X0164902Y0100747D01*
X0164970Y0100635D01*
X0165035Y0100521D01*
X0165096Y0100404D01*
X0165154Y0100286D01*
X0165208Y0100166D01*
X0165259Y0100045D01*
X0165306Y0099922D01*
X0165349Y0099798D01*
X0165388Y0099673D01*
X0165424Y0099546D01*
X0165455Y0099418D01*
X0165483Y0099290D01*
X0165507Y0099161D01*
X0165527Y0099031D01*
X0165543Y0098900D01*
X0165555Y0098769D01*
X0165563Y0098638D01*
X0165567Y0098507D01*
X0165567Y0098375D01*
X0165563Y0098244D01*
X0165555Y0098113D01*
X0165543Y0097982D01*
X0165527Y0097851D01*
X0165507Y0097721D01*
X0165483Y0097592D01*
X0165455Y0097464D01*
X0165424Y0097336D01*
X0165388Y0097209D01*
X0165349Y0097084D01*
X0165306Y0096960D01*
X0165259Y0096837D01*
X0165208Y0096716D01*
X0165154Y0096596D01*
X0165096Y0096478D01*
X0165035Y0096361D01*
X0164970Y0096247D01*
X0164902Y0096135D01*
X0164830Y0096025D01*
X0164755Y0095917D01*
X0164677Y0095811D01*
X0164596Y0095708D01*
X0164511Y0095607D01*
X0164424Y0095509D01*
X0164333Y0095414D01*
X0164240Y0095321D01*
X0164144Y0095231D01*
X0164045Y0095144D01*
X0163944Y0095061D01*
X0163840Y0094980D01*
X0163734Y0094903D01*
X0163625Y0094829D01*
X0163514Y0094758D01*
X0163402Y0094690D01*
X0163287Y0094626D01*
X0163170Y0094566D01*
X0163051Y0094509D01*
X0162931Y0094456D01*
X0162810Y0094406D01*
X0162686Y0094360D01*
X0162562Y0094318D01*
X0162436Y0094280D01*
X0162309Y0094245D01*
X0162181Y0094214D01*
X0162053Y0094188D01*
X0161923Y0094165D01*
X0161793Y0094146D01*
X0161663Y0094131D01*
X0161532Y0094120D01*
X0161400Y0094113D01*
X0161269Y0094110D01*
X0161137Y0094111D01*
X0161006Y0094116D01*
X0160875Y0094125D01*
X0160744Y0094138D01*
X0160614Y0094155D01*
X0160484Y0094176D01*
X0160355Y0094201D01*
X0160227Y0094229D01*
X0160099Y0094262D01*
X0159973Y0094298D01*
X0159848Y0094339D01*
X0159724Y0094383D01*
X0159601Y0094430D01*
X0159480Y0094482D01*
X0159361Y0094537D01*
X0159243Y0094596D01*
X0159128Y0094658D01*
X0159014Y0094724D01*
X0158902Y0094793D01*
X0158792Y0094865D01*
X0158685Y0094941D01*
X0158580Y0095020D01*
X0158477Y0095102D01*
X0158377Y0095187D01*
X0158280Y0095276D01*
X0158185Y0095367D01*
X0158093Y0095461D01*
X0158004Y0095558D01*
X0157918Y0095657D01*
X0157835Y0095759D01*
X0157755Y0095864D01*
X0157679Y0095970D01*
X0157606Y0096079D01*
X0157536Y0096191D01*
X0157469Y0096304D01*
X0157406Y0096419D01*
X0157346Y0096537D01*
X0157290Y0096655D01*
X0157238Y0096776D01*
X0157189Y0096898D01*
X0157144Y0097022D01*
X0157103Y0097146D01*
X0157066Y0097273D01*
X0157032Y0097400D01*
X0157002Y0097528D01*
X0156977Y0097657D01*
X0156955Y0097786D01*
X0156937Y0097916D01*
X0156923Y0098047D01*
X0156913Y0098178D01*
X0156907Y0098310D01*
X0156905Y0098441D01*
D11*
X0114291Y0135637D03*
X0114291Y0181306D03*
X0056062Y0181306D03*
X0056062Y0135637D03*
D12*
X0062322Y0135637D03*
X0067401Y0135637D03*
X0072480Y0135637D03*
X0077558Y0135637D03*
X0082637Y0135637D03*
X0087716Y0135637D03*
X0092794Y0135637D03*
X0097873Y0135637D03*
X0102952Y0135637D03*
X0108031Y0135637D03*
X0108031Y0181306D03*
X0102952Y0181306D03*
X0097873Y0181306D03*
X0092794Y0181306D03*
X0087716Y0181306D03*
X0082637Y0181306D03*
X0077558Y0181306D03*
X0072480Y0181306D03*
X0067401Y0181306D03*
X0062322Y0181306D03*
D13*
X0016748Y0190764D03*
X0016748Y0006118D03*
D14*
X0016748Y0012811D03*
X0016748Y0018717D03*
X0016748Y0024622D03*
X0016748Y0030528D03*
X0016748Y0036433D03*
X0016748Y0042339D03*
X0016748Y0048244D03*
X0016748Y0054150D03*
X0016748Y0060055D03*
X0016748Y0065961D03*
X0016748Y0071866D03*
X0016748Y0077772D03*
X0016748Y0083677D03*
X0016748Y0089583D03*
X0016748Y0095488D03*
X0016748Y0101394D03*
X0016748Y0107299D03*
X0016748Y0113205D03*
X0016748Y0119110D03*
X0016748Y0125016D03*
X0016748Y0130921D03*
X0016748Y0136827D03*
X0016748Y0142732D03*
X0016748Y0148638D03*
X0016748Y0154543D03*
X0016748Y0160449D03*
X0016748Y0166354D03*
X0016748Y0172260D03*
X0016748Y0178165D03*
X0016748Y0184071D03*
D15*
X0147635Y0171900D03*
X0147635Y0166900D03*
X0147635Y0161900D03*
X0147635Y0156900D03*
X0147635Y0151900D03*
X0147635Y0146900D03*
X0147635Y0141900D03*
X0201965Y0141900D03*
X0201965Y0146900D03*
X0201965Y0151900D03*
X0201965Y0156900D03*
X0201965Y0161900D03*
X0201965Y0166900D03*
X0201965Y0171900D03*
D16*
X0194800Y0179341D03*
X0189800Y0179341D03*
X0184800Y0179341D03*
X0179800Y0179341D03*
X0174800Y0179341D03*
X0169800Y0179341D03*
X0164800Y0179341D03*
X0159800Y0179341D03*
X0154800Y0179341D03*
X0154800Y0134459D03*
X0159800Y0134459D03*
X0164800Y0134459D03*
X0169800Y0134459D03*
X0174800Y0134459D03*
X0179800Y0134459D03*
X0184800Y0134459D03*
X0189800Y0134459D03*
X0194800Y0134459D03*
D17*
X0127750Y0082550D03*
X0124650Y0082550D03*
X0121550Y0082550D03*
X0118450Y0082550D03*
X0115350Y0082550D03*
X0112250Y0082550D03*
X0109150Y0082550D03*
X0106050Y0082550D03*
X0102950Y0082550D03*
X0099850Y0082550D03*
X0096750Y0082550D03*
X0093650Y0082550D03*
X0090550Y0082550D03*
X0087450Y0082550D03*
X0084350Y0082550D03*
X0081250Y0082550D03*
X0081250Y0021450D03*
X0084350Y0021450D03*
X0087450Y0021450D03*
X0090550Y0021450D03*
X0093650Y0021450D03*
X0096750Y0021450D03*
X0099850Y0021450D03*
X0102950Y0021450D03*
X0106050Y0021450D03*
X0109150Y0021450D03*
X0112250Y0021450D03*
X0115350Y0021450D03*
X0118450Y0021450D03*
X0121550Y0021450D03*
X0124650Y0021450D03*
X0127750Y0021450D03*
D18*
X0135050Y0028750D03*
X0135050Y0031850D03*
X0135050Y0034950D03*
X0135050Y0038050D03*
X0135050Y0041150D03*
X0135050Y0044250D03*
X0135050Y0047350D03*
X0135050Y0050450D03*
X0135050Y0053550D03*
X0135050Y0056650D03*
X0135050Y0059750D03*
X0135050Y0062850D03*
X0135050Y0065950D03*
X0135050Y0069050D03*
X0135050Y0072150D03*
X0135050Y0075250D03*
X0073950Y0075250D03*
X0073950Y0072150D03*
X0073950Y0069050D03*
X0073950Y0065950D03*
X0073950Y0062850D03*
X0073950Y0059750D03*
X0073950Y0056650D03*
X0073950Y0053550D03*
X0073950Y0050450D03*
X0073950Y0047350D03*
X0073950Y0044250D03*
X0073950Y0041150D03*
X0073950Y0038050D03*
X0073950Y0034950D03*
X0073950Y0031850D03*
X0073950Y0028750D03*
D19*
X0141400Y0019540D03*
X0141400Y0012060D03*
X0154600Y0012060D03*
X0154600Y0019540D03*
X0193000Y0017260D03*
X0201800Y0017260D03*
X0201800Y0024740D03*
X0193000Y0024740D03*
X0227400Y0085260D03*
X0227400Y0092740D03*
X0047400Y0173660D03*
X0047400Y0181140D03*
D20*
X0125260Y0173800D03*
X0132740Y0173800D03*
X0132740Y0161800D03*
X0125260Y0161800D03*
X0127126Y0103311D03*
X0134606Y0103311D03*
X0196060Y0102600D03*
X0203540Y0102600D03*
X0203540Y0093800D03*
X0196060Y0093800D03*
X0116740Y0012200D03*
X0109260Y0012200D03*
X0099940Y0012200D03*
X0092460Y0012200D03*
X0060940Y0041000D03*
X0053460Y0041000D03*
X0054440Y0050500D03*
X0046960Y0050500D03*
D21*
X0180452Y0036565D03*
X0183602Y0036565D03*
X0186751Y0036565D03*
X0189901Y0036565D03*
X0193050Y0036565D03*
X0196200Y0036565D03*
X0199350Y0036565D03*
X0202499Y0036565D03*
X0205649Y0036565D03*
X0208798Y0036565D03*
X0211948Y0036565D03*
X0211948Y0082235D03*
X0208798Y0082235D03*
X0205649Y0082235D03*
X0202499Y0082235D03*
X0199350Y0082235D03*
X0196200Y0082235D03*
X0193050Y0082235D03*
X0189901Y0082235D03*
X0186751Y0082235D03*
X0183602Y0082235D03*
X0180452Y0082235D03*
D22*
X0173365Y0075148D03*
X0173365Y0071998D03*
X0173365Y0068849D03*
X0173365Y0065699D03*
X0173365Y0062550D03*
X0173365Y0059400D03*
X0173365Y0056250D03*
X0173365Y0053101D03*
X0173365Y0049951D03*
X0173365Y0046802D03*
X0173365Y0043652D03*
X0219035Y0043652D03*
X0219035Y0046802D03*
X0219035Y0049951D03*
X0219035Y0053101D03*
X0219035Y0056250D03*
X0219035Y0059400D03*
X0219035Y0062550D03*
X0219035Y0065699D03*
X0219035Y0068849D03*
X0219035Y0071998D03*
X0219035Y0075148D03*
D23*
X0222800Y0105000D02*
X0228800Y0105000D01*
X0228800Y0115000D02*
X0222800Y0115000D01*
X0222800Y0125000D02*
X0228800Y0125000D01*
X0228800Y0135000D02*
X0222800Y0135000D01*
X0222800Y0145000D02*
X0228800Y0145000D01*
X0228800Y0155000D02*
X0222800Y0155000D01*
X0222800Y0165000D02*
X0228800Y0165000D01*
X0228800Y0175000D02*
X0222800Y0175000D01*
X0222800Y0185000D02*
X0228800Y0185000D01*
D24*
X0225800Y0155000D02*
X0225800Y0145000D01*
X0219400Y0145000D01*
X0193800Y0119400D01*
X0175400Y0119400D01*
X0169800Y0113800D01*
X0143400Y0113800D01*
X0134600Y0106600D02*
X0134600Y0103317D01*
X0134606Y0103311D01*
X0134600Y0106600D02*
X0128295Y0111305D01*
X0128435Y0111305D01*
X0127126Y0103311D02*
X0112015Y0088200D01*
X0107400Y0088200D01*
X0106050Y0086850D01*
X0106050Y0082550D01*
X0102950Y0082550D02*
X0102950Y0086950D01*
X0103000Y0087400D01*
X0103000Y0114200D02*
X0114600Y0125800D01*
X0114600Y0135328D01*
X0114291Y0135637D01*
X0119637Y0135637D01*
X0119800Y0135800D01*
X0114291Y0135637D02*
X0114200Y0135728D01*
X0114200Y0142200D01*
X0095400Y0161000D01*
X0087400Y0161000D01*
X0050600Y0161000D01*
X0047400Y0164200D01*
X0047400Y0173660D01*
X0045800Y0173800D01*
X0041000Y0173800D01*
X0047400Y0181140D02*
X0055896Y0181140D01*
X0056062Y0181306D01*
X0056200Y0181444D01*
X0056200Y0188200D01*
X0034600Y0188200D01*
X0032036Y0190764D01*
X0016748Y0190764D01*
X0093000Y0167400D02*
X0109800Y0150600D01*
X0126600Y0150600D01*
X0137800Y0139400D01*
X0132740Y0161800D02*
X0132840Y0161900D01*
X0147635Y0161900D01*
X0147635Y0166900D02*
X0147535Y0167000D01*
X0141800Y0167000D01*
X0138600Y0170200D01*
X0138600Y0178600D01*
X0135400Y0181800D01*
X0125400Y0181800D01*
X0125260Y0181660D01*
X0125260Y0173800D01*
X0132740Y0173800D02*
X0132840Y0167300D01*
X0132840Y0166573D01*
X0132827Y0166560D01*
X0132840Y0167300D01*
X0132827Y0166560D02*
X0132740Y0161800D01*
X0125260Y0161800D02*
X0119400Y0161800D01*
X0195000Y0153800D02*
X0197500Y0151900D01*
X0201965Y0151900D01*
X0193800Y0119400D02*
X0196200Y0117000D01*
X0196200Y0102740D01*
X0196060Y0102600D01*
X0196060Y0093800D01*
X0196200Y0093660D01*
X0196200Y0082235D01*
X0196200Y0077400D01*
X0196200Y0082235D02*
X0196060Y0082375D01*
X0199350Y0082235D02*
X0199350Y0086550D01*
X0200200Y0087400D01*
X0202600Y0087400D01*
X0203400Y0088200D01*
X0203400Y0093660D01*
X0203540Y0093800D01*
X0203540Y0102600D01*
X0209000Y0102600D01*
X0227400Y0085260D02*
X0227400Y0080200D01*
X0196200Y0041800D02*
X0196200Y0036565D01*
X0193050Y0036565D01*
X0193050Y0024791D01*
X0174391Y0024791D01*
X0173000Y0023400D01*
X0173000Y0013800D01*
X0171400Y0012200D01*
X0157140Y0012200D01*
X0154600Y0012060D01*
X0141400Y0012060D01*
X0143540Y0011800D01*
X0125000Y0011800D01*
X0119400Y0017400D01*
X0118600Y0017400D01*
X0118600Y0021300D01*
X0118450Y0021450D01*
X0118600Y0021600D01*
X0118600Y0047800D01*
X0115950Y0050450D01*
X0114200Y0050450D01*
X0099950Y0050450D01*
X0103000Y0047400D01*
X0103000Y0021500D01*
X0102950Y0021450D01*
X0103000Y0021400D01*
X0103000Y0017800D01*
X0100240Y0015040D01*
X0099940Y0012200D01*
X0093800Y0017000D02*
X0093800Y0021300D01*
X0093650Y0021450D01*
X0093800Y0017000D02*
X0092760Y0015960D01*
X0092460Y0012200D01*
X0092760Y0009560D01*
X0091800Y0006600D01*
X0106200Y0017400D02*
X0106200Y0021300D01*
X0106050Y0021450D01*
X0106200Y0017400D02*
X0109260Y0014340D01*
X0109260Y0012200D01*
X0109260Y0009260D01*
X0108600Y0006600D01*
X0116740Y0012200D02*
X0116740Y0015540D01*
X0118600Y0017400D01*
X0130600Y0024600D02*
X0135800Y0019400D01*
X0143660Y0019400D01*
X0141400Y0019540D01*
X0130600Y0024600D02*
X0130600Y0039400D01*
X0132200Y0041000D01*
X0134900Y0041000D01*
X0135050Y0041150D01*
X0135050Y0050450D02*
X0134900Y0050600D01*
X0121800Y0050600D01*
X0117000Y0055400D01*
X0087000Y0055400D01*
X0099950Y0050450D02*
X0073950Y0050450D01*
X0073900Y0050500D01*
X0065000Y0050500D01*
X0064940Y0050440D01*
X0065000Y0050500D02*
X0054440Y0050500D01*
X0054440Y0039620D01*
X0053460Y0041000D01*
X0047000Y0044600D02*
X0046960Y0045440D01*
X0046960Y0050500D01*
X0060940Y0041000D02*
X0073800Y0041000D01*
X0073950Y0041150D01*
X0030600Y0013000D02*
X0030537Y0013000D01*
X0016748Y0012811D01*
X0016748Y0006118D02*
X0030518Y0006118D01*
X0030600Y0006200D01*
X0017066Y0005800D02*
X0016748Y0006118D01*
X0193000Y0017260D02*
X0201800Y0017260D01*
X0202060Y0017000D01*
X0206600Y0017000D01*
X0207400Y0017800D01*
X0207400Y0029800D01*
X0206600Y0030600D01*
X0203400Y0030600D01*
X0202499Y0031501D01*
X0202499Y0036565D01*
X0199350Y0036565D01*
X0196200Y0036565D02*
X0196200Y0036200D01*
X0193050Y0024791D02*
X0193000Y0024740D01*
X0201800Y0024740D01*
X0201800Y0017260D02*
X0201800Y0012200D01*
D25*
X0201800Y0012200D03*
X0212200Y0031400D03*
X0196200Y0041800D03*
X0189000Y0047400D03*
X0203400Y0049800D03*
X0206600Y0051400D03*
X0209000Y0047400D03*
X0213800Y0046600D03*
X0213800Y0053000D03*
X0213800Y0062600D03*
X0213800Y0065800D03*
X0213800Y0069000D03*
X0213800Y0072200D03*
X0211400Y0074600D03*
X0196200Y0077400D03*
X0193000Y0087400D03*
X0189800Y0087400D03*
X0186600Y0087400D03*
X0177400Y0091000D03*
X0175000Y0088200D03*
X0151400Y0074600D03*
X0144200Y0075400D03*
X0145000Y0085000D03*
X0145800Y0088200D03*
X0146600Y0091400D03*
X0147400Y0094600D03*
X0128435Y0111305D03*
X0130600Y0115400D03*
X0136200Y0115400D03*
X0143400Y0113800D03*
X0119800Y0135800D03*
X0108200Y0128200D03*
X0103000Y0128200D03*
X0105800Y0121800D03*
X0103000Y0114200D03*
X0106600Y0108200D03*
X0109000Y0105800D03*
X0111400Y0108200D03*
X0099400Y0099400D03*
X0097000Y0101800D03*
X0097000Y0097000D03*
X0099400Y0094600D03*
X0092200Y0094600D03*
X0089800Y0097000D03*
X0087400Y0099400D03*
X0085000Y0101800D03*
X0103000Y0087400D03*
X0111400Y0075400D03*
X0109000Y0072200D03*
X0106600Y0069000D03*
X0117000Y0069800D03*
X0119400Y0073000D03*
X0121800Y0069800D03*
X0124200Y0073000D03*
X0126600Y0069800D03*
X0144200Y0059800D03*
X0146600Y0056600D03*
X0151400Y0053800D03*
X0154600Y0049800D03*
X0157000Y0053000D03*
X0159400Y0055400D03*
X0161800Y0057800D03*
X0173400Y0031800D03*
X0171000Y0029000D03*
X0180200Y0031400D03*
X0183400Y0031400D03*
X0186600Y0031400D03*
X0167400Y0016200D03*
X0162600Y0016200D03*
X0162600Y0008200D03*
X0167400Y0008200D03*
X0148200Y0008200D03*
X0148200Y0016200D03*
X0140200Y0029000D03*
X0142600Y0031800D03*
X0127000Y0029400D03*
X0123800Y0033000D03*
X0121400Y0029400D03*
X0115400Y0031400D03*
X0112200Y0029000D03*
X0109150Y0026750D03*
X0100200Y0029000D03*
X0097000Y0026600D03*
X0100200Y0041000D03*
X0097000Y0043400D03*
X0090600Y0045800D03*
X0087000Y0055400D03*
X0066600Y0037800D03*
X0069000Y0035000D03*
X0063800Y0047400D03*
X0047000Y0044600D03*
X0030600Y0041800D03*
X0030600Y0048200D03*
X0030600Y0053800D03*
X0030600Y0059400D03*
X0030600Y0065800D03*
X0030600Y0071800D03*
X0030600Y0077800D03*
X0030600Y0083800D03*
X0057000Y0077800D03*
X0083400Y0077800D03*
X0114200Y0050450D03*
X0085000Y0011400D03*
X0081000Y0009000D03*
X0091800Y0006600D03*
X0108600Y0006600D03*
X0030600Y0006200D03*
X0030600Y0013000D03*
X0030600Y0018600D03*
X0087400Y0119400D03*
X0096200Y0119400D03*
X0077800Y0128200D03*
X0072600Y0128200D03*
X0067400Y0128200D03*
X0062200Y0128200D03*
X0056200Y0128200D03*
X0056200Y0146600D03*
X0062600Y0149000D03*
X0067400Y0151400D03*
X0072200Y0153800D03*
X0077800Y0156200D03*
X0072200Y0164200D03*
X0077400Y0166600D03*
X0082600Y0169000D03*
X0087400Y0161000D03*
X0093000Y0167400D03*
X0119400Y0161800D03*
X0132840Y0167300D03*
X0125400Y0181800D03*
X0161800Y0147400D03*
X0165800Y0147400D03*
X0174600Y0149800D03*
X0175400Y0141800D03*
X0187400Y0147400D03*
X0187800Y0151000D03*
X0190600Y0153000D03*
X0195000Y0153800D03*
X0193000Y0157800D03*
X0195400Y0161800D03*
X0209000Y0166600D03*
X0209000Y0171800D03*
X0195000Y0186600D03*
X0179800Y0163400D03*
X0177800Y0157800D03*
X0137800Y0139400D03*
X0108200Y0143400D03*
X0062200Y0175000D03*
X0059400Y0170600D03*
X0041000Y0173800D03*
X0035400Y0166600D03*
X0030635Y0178165D03*
X0056200Y0188200D03*
X0030600Y0133800D03*
X0209000Y0102600D03*
X0211800Y0092200D03*
X0211800Y0087400D03*
X0227400Y0080200D03*
D26*
X0232200Y0077800D02*
X0229800Y0075400D01*
X0229800Y0038600D01*
X0217800Y0026600D01*
X0217800Y0007400D01*
X0213800Y0003400D01*
X0149000Y0003400D01*
X0148200Y0004200D01*
X0148200Y0008200D01*
X0148200Y0016200D02*
X0148200Y0029800D01*
X0168200Y0049800D01*
X0173214Y0049800D01*
X0173365Y0049951D01*
X0173265Y0053000D02*
X0173365Y0053101D01*
X0173265Y0053000D02*
X0167800Y0053000D01*
X0149400Y0034600D01*
X0135400Y0034600D01*
X0135050Y0034950D01*
X0135050Y0031850D02*
X0135100Y0031800D01*
X0142600Y0031800D01*
X0140200Y0029000D02*
X0135300Y0029000D01*
X0135050Y0028750D01*
X0127000Y0029400D02*
X0127000Y0025400D01*
X0127750Y0024650D01*
X0127750Y0021450D01*
X0124650Y0021450D02*
X0124600Y0021500D01*
X0124600Y0024600D01*
X0123800Y0025400D01*
X0123800Y0033000D01*
X0121400Y0029400D02*
X0121400Y0021600D01*
X0121550Y0021450D01*
X0115350Y0021450D02*
X0115350Y0032150D01*
X0115400Y0031400D01*
X0112250Y0028950D02*
X0112200Y0029000D01*
X0112250Y0028950D02*
X0112250Y0021450D01*
X0109150Y0021450D02*
X0109150Y0026750D01*
X0100200Y0029000D02*
X0100200Y0021800D01*
X0099850Y0021450D01*
X0099800Y0021500D01*
X0097000Y0021700D02*
X0096750Y0021450D01*
X0097000Y0021700D02*
X0097000Y0026600D01*
X0097000Y0043400D01*
X0100200Y0041000D02*
X0100200Y0029000D01*
X0090600Y0021500D02*
X0090550Y0021450D01*
X0090600Y0021400D01*
X0090600Y0018600D01*
X0085400Y0013800D01*
X0048200Y0013800D01*
X0033000Y0027400D01*
X0033000Y0034600D01*
X0031400Y0036200D01*
X0017800Y0036200D01*
X0017567Y0036433D01*
X0016748Y0036433D01*
X0017287Y0041800D02*
X0016748Y0042339D01*
X0017287Y0041800D02*
X0030600Y0041800D01*
X0033000Y0041800D01*
X0034600Y0040200D01*
X0034600Y0028200D01*
X0049000Y0015400D01*
X0083800Y0015400D01*
X0087400Y0018600D01*
X0087400Y0021400D01*
X0087450Y0021450D01*
X0084350Y0021450D02*
X0084200Y0021300D01*
X0084200Y0018600D01*
X0082200Y0017000D01*
X0049800Y0017000D01*
X0036200Y0029000D01*
X0036200Y0046600D01*
X0034600Y0048200D01*
X0030600Y0048200D01*
X0016792Y0048200D01*
X0016748Y0048244D01*
X0017098Y0053800D02*
X0016748Y0054150D01*
X0017098Y0053800D02*
X0030600Y0053800D01*
X0036200Y0053800D01*
X0037800Y0052200D01*
X0037800Y0029800D01*
X0050600Y0018600D01*
X0079800Y0018600D01*
X0081000Y0019400D01*
X0081000Y0021200D01*
X0081250Y0021450D01*
X0090600Y0021500D02*
X0090600Y0045800D01*
X0077550Y0053550D02*
X0083400Y0059400D01*
X0123400Y0059400D01*
X0126600Y0062600D01*
X0126600Y0069800D01*
X0124200Y0073000D02*
X0124200Y0063400D01*
X0121800Y0061000D01*
X0081800Y0061000D01*
X0077450Y0056650D01*
X0073950Y0056650D01*
X0073600Y0057000D01*
X0059400Y0057000D01*
X0034600Y0081800D01*
X0034600Y0087400D01*
X0030600Y0091400D01*
X0030600Y0094600D01*
X0029800Y0095400D01*
X0016836Y0095400D01*
X0016748Y0095488D01*
X0017142Y0101000D02*
X0016748Y0101394D01*
X0017142Y0101000D02*
X0029800Y0101000D01*
X0032200Y0098600D01*
X0032200Y0092200D01*
X0036200Y0088200D01*
X0036200Y0082600D01*
X0059050Y0059750D01*
X0073950Y0059750D01*
X0077350Y0059750D01*
X0080200Y0062600D01*
X0119400Y0062600D01*
X0121800Y0065000D01*
X0121800Y0069800D01*
X0119400Y0066600D02*
X0119400Y0073000D01*
X0117000Y0069800D02*
X0117000Y0068200D01*
X0114750Y0065950D01*
X0073950Y0065950D01*
X0057650Y0065950D01*
X0039400Y0084200D01*
X0039400Y0089800D01*
X0035400Y0093800D01*
X0035400Y0107400D01*
X0029800Y0113000D01*
X0016543Y0113000D01*
X0016748Y0113205D01*
X0016543Y0113000D02*
X0014600Y0113000D01*
X0016849Y0107400D02*
X0016748Y0107299D01*
X0016849Y0107400D02*
X0029800Y0107400D01*
X0033800Y0103400D01*
X0033800Y0093000D01*
X0037800Y0089000D01*
X0037800Y0083400D01*
X0058350Y0062850D01*
X0073950Y0062850D01*
X0077250Y0062850D01*
X0078600Y0064200D01*
X0117000Y0064200D01*
X0119400Y0066600D01*
X0111400Y0075400D02*
X0074100Y0075400D01*
X0073950Y0075250D01*
X0055550Y0075250D01*
X0044200Y0086600D01*
X0044200Y0092200D01*
X0040200Y0096200D01*
X0040200Y0120200D01*
X0029800Y0130600D01*
X0017069Y0130600D01*
X0016748Y0130921D01*
X0016748Y0125016D02*
X0016764Y0125000D01*
X0029800Y0125000D01*
X0038600Y0116200D01*
X0038600Y0095400D01*
X0042600Y0091400D01*
X0042600Y0085800D01*
X0056250Y0072150D01*
X0073950Y0072150D01*
X0074000Y0072200D01*
X0109000Y0072200D01*
X0106600Y0069000D02*
X0074000Y0069000D01*
X0073950Y0069050D01*
X0056950Y0069050D01*
X0041000Y0085000D01*
X0041000Y0090600D01*
X0037000Y0094600D01*
X0037000Y0111400D01*
X0029800Y0118600D01*
X0017258Y0118600D01*
X0016748Y0119110D01*
X0030600Y0133800D02*
X0041800Y0122600D01*
X0041800Y0097000D01*
X0045800Y0093000D01*
X0045800Y0087400D01*
X0055400Y0077800D01*
X0057000Y0077800D01*
X0041000Y0064200D02*
X0039400Y0065800D01*
X0030600Y0065800D01*
X0016909Y0065800D01*
X0016748Y0065961D01*
X0016814Y0071800D02*
X0016748Y0071866D01*
X0016814Y0071800D02*
X0030600Y0071800D01*
X0030600Y0077800D02*
X0016776Y0077800D01*
X0016748Y0077772D01*
X0016748Y0083677D02*
X0016871Y0083800D01*
X0030600Y0083800D01*
X0033000Y0085800D02*
X0033000Y0081000D01*
X0060200Y0053800D01*
X0073700Y0053800D01*
X0073950Y0053550D01*
X0077550Y0053550D01*
X0073950Y0044250D02*
X0073900Y0044200D01*
X0070600Y0044200D01*
X0067400Y0047400D01*
X0063800Y0047400D01*
X0066600Y0037800D02*
X0073700Y0037800D01*
X0073950Y0038050D01*
X0073950Y0034950D02*
X0069050Y0034950D01*
X0069000Y0035000D01*
X0073600Y0032200D02*
X0073950Y0031850D01*
X0073600Y0032200D02*
X0042600Y0032200D01*
X0041000Y0033800D01*
X0041000Y0064200D01*
X0037000Y0059400D02*
X0030600Y0059400D01*
X0017403Y0059400D01*
X0016748Y0060055D01*
X0037000Y0059400D02*
X0039400Y0057000D01*
X0039400Y0031000D01*
X0041400Y0029000D01*
X0073700Y0029000D01*
X0073950Y0028750D01*
X0085000Y0011400D02*
X0048200Y0011400D01*
X0031400Y0026600D01*
X0031400Y0029800D01*
X0030672Y0030528D01*
X0016748Y0030528D01*
X0016748Y0024622D02*
X0030978Y0024622D01*
X0038600Y0017800D01*
X0048200Y0009000D01*
X0081000Y0009000D01*
X0030600Y0018600D02*
X0016865Y0018600D01*
X0016748Y0018717D01*
X0083400Y0077800D02*
X0108200Y0077800D01*
X0109150Y0078750D01*
X0109150Y0082550D01*
X0115350Y0082550D02*
X0115350Y0088150D01*
X0123400Y0096200D01*
X0145800Y0096200D01*
X0147400Y0094600D01*
X0144200Y0093800D02*
X0146600Y0091400D01*
X0144200Y0093800D02*
X0124200Y0093800D01*
X0118450Y0088050D01*
X0118450Y0082550D01*
X0121550Y0082550D02*
X0121550Y0087950D01*
X0125000Y0091400D01*
X0142600Y0091400D01*
X0145800Y0088200D01*
X0145000Y0085000D02*
X0141000Y0089000D01*
X0126600Y0089000D01*
X0124650Y0087050D01*
X0124650Y0082550D01*
X0127750Y0082550D02*
X0127750Y0085350D01*
X0129000Y0086600D01*
X0139400Y0086600D01*
X0151400Y0074600D01*
X0144200Y0075400D02*
X0135400Y0075400D01*
X0135250Y0075250D01*
X0135050Y0075250D01*
X0135050Y0072150D02*
X0160250Y0072150D01*
X0161800Y0070600D01*
X0161800Y0057800D01*
X0159400Y0055400D02*
X0159400Y0067400D01*
X0157750Y0069050D01*
X0135050Y0069050D01*
X0135050Y0065950D02*
X0135250Y0065950D01*
X0135400Y0065800D01*
X0155400Y0065800D01*
X0157000Y0064200D01*
X0157000Y0053000D01*
X0154600Y0049800D02*
X0154600Y0061000D01*
X0152750Y0062850D01*
X0135050Y0062850D01*
X0135100Y0059800D02*
X0135050Y0059750D01*
X0135100Y0059800D02*
X0144200Y0059800D01*
X0146600Y0056600D02*
X0135100Y0056600D01*
X0135050Y0056650D01*
X0136200Y0053800D02*
X0151400Y0053800D01*
X0153800Y0044200D02*
X0135100Y0044200D01*
X0135050Y0044250D01*
X0135200Y0038200D02*
X0135050Y0038050D01*
X0135300Y0037800D01*
X0135200Y0038200D02*
X0150200Y0038200D01*
X0165800Y0053800D01*
X0165800Y0064200D01*
X0167299Y0065699D01*
X0173365Y0065699D01*
X0173365Y0068849D02*
X0168049Y0068849D01*
X0164200Y0065000D01*
X0164200Y0054600D01*
X0153800Y0044200D01*
X0154600Y0032200D02*
X0154600Y0019540D01*
X0154740Y0019400D01*
X0161000Y0019400D01*
X0162600Y0017800D01*
X0162600Y0016200D01*
X0167400Y0016200D02*
X0167400Y0041800D01*
X0169000Y0043400D01*
X0173113Y0043400D01*
X0173365Y0043652D01*
X0173365Y0046802D02*
X0169202Y0046802D01*
X0154600Y0032200D01*
X0171000Y0035400D02*
X0171000Y0029000D01*
X0173400Y0031800D02*
X0173400Y0035400D01*
X0181400Y0043400D01*
X0191400Y0043400D01*
X0204250Y0056250D01*
X0219035Y0056250D01*
X0219035Y0059400D02*
X0205000Y0059400D01*
X0190600Y0045000D01*
X0180600Y0045000D01*
X0171000Y0035400D01*
X0180200Y0036313D02*
X0180200Y0031400D01*
X0183400Y0031400D02*
X0183400Y0036364D01*
X0183602Y0036565D01*
X0186600Y0036414D02*
X0186751Y0036565D01*
X0186600Y0036414D02*
X0186600Y0031400D01*
X0180452Y0036565D02*
X0180200Y0036313D01*
X0179400Y0047400D02*
X0189000Y0047400D01*
X0179400Y0047400D02*
X0178600Y0048200D01*
X0178600Y0073000D01*
X0176452Y0075148D01*
X0173365Y0075148D01*
X0173217Y0075000D01*
X0170600Y0075000D01*
X0169800Y0075800D01*
X0169800Y0107400D01*
X0166600Y0110600D01*
X0141000Y0110600D01*
X0136200Y0115400D01*
X0130600Y0115400D02*
X0137000Y0109000D01*
X0165800Y0109000D01*
X0168200Y0106600D01*
X0168200Y0073000D01*
X0169400Y0071800D01*
X0173167Y0071800D01*
X0173365Y0071998D01*
X0175000Y0079400D02*
X0175000Y0088200D01*
X0177400Y0091000D02*
X0177400Y0079400D01*
X0182200Y0074600D01*
X0201800Y0074600D01*
X0202499Y0075299D01*
X0202499Y0082235D01*
X0205649Y0082235D02*
X0205649Y0074449D01*
X0204200Y0073000D01*
X0181400Y0073000D01*
X0175000Y0079400D01*
X0186600Y0082386D02*
X0186600Y0087400D01*
X0189800Y0087400D02*
X0189800Y0082335D01*
X0189901Y0082235D01*
X0186751Y0082235D02*
X0186600Y0082386D01*
X0193000Y0082285D02*
X0193000Y0087400D01*
X0193000Y0082285D02*
X0193050Y0082235D01*
X0208600Y0082433D02*
X0208798Y0082235D01*
X0208600Y0082433D02*
X0208600Y0089000D01*
X0211800Y0092200D01*
X0211800Y0087400D02*
X0211800Y0082383D01*
X0211948Y0082235D01*
X0217800Y0082600D02*
X0226600Y0073800D01*
X0226600Y0040200D01*
X0214600Y0028200D01*
X0214600Y0009000D01*
X0213800Y0008200D01*
X0167400Y0008200D01*
X0163400Y0005800D02*
X0162600Y0006600D01*
X0162600Y0008200D01*
X0163400Y0005800D02*
X0213800Y0005800D01*
X0216200Y0008200D01*
X0216200Y0027400D01*
X0228200Y0039400D01*
X0228200Y0074600D01*
X0219400Y0083400D01*
X0219400Y0103400D01*
X0221000Y0105000D01*
X0225800Y0105000D01*
X0233000Y0101800D02*
X0227400Y0096200D01*
X0227400Y0092740D01*
X0228460Y0092740D01*
X0232200Y0089000D01*
X0232200Y0077800D01*
X0219035Y0075148D02*
X0218887Y0075000D01*
X0212200Y0075000D01*
X0211800Y0074600D01*
X0211400Y0074600D01*
X0213800Y0072200D02*
X0218833Y0072200D01*
X0219035Y0071998D01*
X0219035Y0075148D02*
X0217687Y0075400D01*
X0217800Y0069000D02*
X0213800Y0069000D01*
X0213800Y0065800D02*
X0217800Y0065800D01*
X0217901Y0065699D01*
X0219035Y0065699D01*
X0219035Y0068849D02*
X0217951Y0068849D01*
X0217800Y0069000D01*
X0218984Y0062600D02*
X0213800Y0062600D01*
X0218984Y0062600D02*
X0219035Y0062550D01*
X0219035Y0053101D02*
X0218934Y0053000D01*
X0213800Y0053000D01*
X0213800Y0046600D02*
X0218833Y0046600D01*
X0219035Y0046802D01*
X0219035Y0043652D02*
X0218783Y0043400D01*
X0212600Y0043400D01*
X0209000Y0047000D01*
X0209000Y0047400D01*
X0206600Y0045000D02*
X0209000Y0042600D01*
X0209000Y0036767D01*
X0208798Y0036565D01*
X0205800Y0036717D02*
X0205649Y0036565D01*
X0205800Y0036717D02*
X0205800Y0041800D01*
X0203400Y0044200D01*
X0203400Y0049800D01*
X0206600Y0051400D02*
X0206600Y0045000D01*
X0211948Y0036565D02*
X0212200Y0036313D01*
X0212200Y0031400D01*
X0217800Y0082600D02*
X0217800Y0124200D01*
X0218600Y0125000D01*
X0225800Y0125000D01*
X0225800Y0115000D02*
X0225800Y0114600D01*
X0232200Y0114600D01*
X0233000Y0113800D01*
X0233000Y0101800D01*
X0194800Y0134459D02*
X0194800Y0140000D01*
X0187400Y0147400D01*
X0187800Y0151000D02*
X0197000Y0141800D01*
X0201865Y0141800D01*
X0201965Y0141900D01*
X0201665Y0146600D02*
X0197000Y0146600D01*
X0190600Y0153000D01*
X0193800Y0157000D02*
X0193000Y0157800D01*
X0193800Y0157000D02*
X0201865Y0157000D01*
X0201965Y0156900D01*
X0201865Y0161800D02*
X0195400Y0161800D01*
X0200300Y0161900D02*
X0201965Y0161900D01*
X0201865Y0161800D01*
X0201965Y0166900D02*
X0208700Y0166900D01*
X0209000Y0166600D01*
X0209000Y0171800D02*
X0208900Y0171900D01*
X0201965Y0171900D01*
X0194800Y0179341D02*
X0194800Y0186000D01*
X0195000Y0186600D01*
X0189800Y0184200D02*
X0181800Y0192200D01*
X0078600Y0192200D01*
X0072200Y0185800D01*
X0072200Y0181586D01*
X0072480Y0181306D01*
X0072200Y0181027D01*
X0072200Y0164200D01*
X0077400Y0166600D02*
X0077558Y0166600D01*
X0077558Y0181306D01*
X0082600Y0181269D02*
X0082637Y0181306D01*
X0082600Y0181343D01*
X0082600Y0186200D01*
X0087000Y0190600D01*
X0153400Y0190600D01*
X0159800Y0184200D01*
X0159800Y0179341D01*
X0164600Y0179141D02*
X0164800Y0179341D01*
X0164600Y0179141D02*
X0164600Y0173400D01*
X0161800Y0170600D01*
X0161800Y0147400D01*
X0165800Y0147400D02*
X0165800Y0169800D01*
X0169800Y0173800D01*
X0169800Y0179341D01*
X0174600Y0179141D02*
X0174800Y0179341D01*
X0174600Y0179141D02*
X0174600Y0149800D01*
X0175400Y0141800D02*
X0147735Y0141800D01*
X0147635Y0141900D01*
X0147335Y0146600D02*
X0147635Y0146900D01*
X0147335Y0146600D02*
X0141000Y0146600D01*
X0134600Y0153000D01*
X0110600Y0153000D01*
X0104200Y0159400D01*
X0104200Y0170600D01*
X0102600Y0172200D01*
X0094600Y0172200D01*
X0092794Y0174006D01*
X0092794Y0181306D01*
X0087716Y0181306D02*
X0087400Y0181622D01*
X0087400Y0186200D01*
X0090200Y0189000D01*
X0149800Y0189000D01*
X0154600Y0184200D01*
X0154600Y0179541D01*
X0154800Y0179341D01*
X0147635Y0171900D02*
X0147335Y0172200D01*
X0142600Y0172200D01*
X0141000Y0173800D01*
X0141000Y0185000D01*
X0138600Y0187400D01*
X0105000Y0187400D01*
X0103400Y0185800D01*
X0103400Y0181754D01*
X0102952Y0181306D01*
X0108031Y0181306D02*
X0108031Y0160369D01*
X0111400Y0157000D01*
X0147535Y0157000D01*
X0147635Y0156900D01*
X0147335Y0152200D02*
X0141000Y0152200D01*
X0137800Y0155400D01*
X0110600Y0155400D01*
X0105800Y0160200D01*
X0105800Y0172200D01*
X0104200Y0173800D01*
X0099400Y0173800D01*
X0097873Y0175327D01*
X0097873Y0181306D01*
X0082637Y0181306D02*
X0082637Y0184163D01*
X0082600Y0184200D01*
X0082600Y0181269D02*
X0082600Y0169000D01*
X0093000Y0158600D02*
X0108200Y0143400D01*
X0108200Y0135806D01*
X0108031Y0135637D01*
X0108200Y0135468D01*
X0108200Y0128200D01*
X0103000Y0128200D02*
X0102952Y0128200D01*
X0102952Y0135637D01*
X0092794Y0135637D02*
X0092794Y0124794D01*
X0087400Y0119400D01*
X0085000Y0117800D02*
X0086600Y0116200D01*
X0089000Y0116200D01*
X0094600Y0121800D01*
X0105800Y0121800D01*
X0106600Y0113800D02*
X0106600Y0108200D01*
X0109000Y0105800D02*
X0109000Y0113800D01*
X0122600Y0127400D01*
X0158600Y0127400D01*
X0159800Y0128600D01*
X0159800Y0134459D01*
X0154800Y0134459D02*
X0154800Y0130000D01*
X0153800Y0129000D01*
X0121800Y0129000D01*
X0106600Y0113800D01*
X0111400Y0113800D02*
X0111400Y0108200D01*
X0113800Y0103400D02*
X0112200Y0101800D01*
X0097000Y0101800D01*
X0094600Y0103400D02*
X0094600Y0092200D01*
X0112200Y0092200D01*
X0120200Y0100200D01*
X0120200Y0109800D01*
X0128200Y0117800D01*
X0168200Y0117800D01*
X0173000Y0122600D01*
X0184200Y0122600D01*
X0189800Y0128200D01*
X0189800Y0134459D01*
X0184800Y0134459D02*
X0184600Y0134259D01*
X0184600Y0127800D01*
X0181000Y0124200D01*
X0172200Y0124200D01*
X0167400Y0119400D01*
X0127400Y0119400D01*
X0118600Y0110600D01*
X0118600Y0101000D01*
X0112200Y0094600D01*
X0099400Y0094600D01*
X0097000Y0097000D02*
X0112200Y0097000D01*
X0117000Y0101800D01*
X0117000Y0111400D01*
X0126600Y0121000D01*
X0166600Y0121000D01*
X0171400Y0125800D01*
X0177400Y0125800D01*
X0179800Y0128200D01*
X0179800Y0134459D01*
X0174800Y0134459D02*
X0174600Y0134259D01*
X0174600Y0129000D01*
X0173000Y0127400D01*
X0170600Y0127400D01*
X0165800Y0122600D01*
X0125800Y0122600D01*
X0115400Y0112200D01*
X0115400Y0102600D01*
X0112200Y0099400D01*
X0099400Y0099400D01*
X0094600Y0103400D02*
X0076200Y0121800D01*
X0057000Y0121800D01*
X0036200Y0142600D01*
X0036200Y0158600D01*
X0034351Y0160449D01*
X0016748Y0160449D01*
X0016748Y0166354D02*
X0016994Y0166600D01*
X0035400Y0166600D01*
X0036140Y0172260D02*
X0049800Y0158600D01*
X0093000Y0158600D01*
X0077800Y0156200D02*
X0077800Y0135879D01*
X0077558Y0135637D01*
X0077800Y0135637D01*
X0077800Y0128200D01*
X0072600Y0128200D02*
X0072480Y0128320D01*
X0072480Y0135637D01*
X0072200Y0135917D01*
X0072200Y0153800D01*
X0067400Y0151400D02*
X0067400Y0135638D01*
X0067401Y0135637D01*
X0067401Y0128201D01*
X0067400Y0128200D01*
X0062322Y0128322D02*
X0062200Y0128200D01*
X0062322Y0128322D02*
X0062322Y0135637D01*
X0062600Y0135915D01*
X0062600Y0149000D01*
X0056200Y0146600D02*
X0056200Y0135775D01*
X0056062Y0135637D01*
X0056062Y0128338D01*
X0056200Y0128200D01*
X0056200Y0120200D02*
X0075400Y0120200D01*
X0092200Y0103400D01*
X0092200Y0094600D01*
X0092200Y0088200D01*
X0090600Y0086600D01*
X0090600Y0082600D01*
X0090550Y0082550D01*
X0093650Y0082550D02*
X0093800Y0082700D01*
X0093800Y0085800D01*
X0094600Y0086600D01*
X0094600Y0092200D01*
X0089800Y0089000D02*
X0089800Y0097000D01*
X0089800Y0103400D01*
X0074600Y0118600D01*
X0055400Y0118600D01*
X0033000Y0141000D01*
X0033000Y0147400D01*
X0031762Y0148638D01*
X0016748Y0148638D01*
X0016748Y0154543D02*
X0033057Y0154543D01*
X0034600Y0153000D01*
X0034600Y0141800D01*
X0056200Y0120200D01*
X0054600Y0117000D02*
X0073800Y0117000D01*
X0087400Y0103400D01*
X0087400Y0099400D01*
X0087400Y0089800D01*
X0084200Y0086600D01*
X0084200Y0082700D01*
X0084350Y0082550D01*
X0087400Y0082600D02*
X0087400Y0086600D01*
X0089800Y0089000D01*
X0085000Y0090600D02*
X0085000Y0101800D01*
X0085000Y0103400D01*
X0073000Y0115400D01*
X0053000Y0115400D01*
X0031400Y0137000D01*
X0016921Y0137000D01*
X0016748Y0136827D01*
X0016748Y0142732D02*
X0030468Y0142732D01*
X0031400Y0141800D01*
X0031400Y0140200D01*
X0054600Y0117000D01*
X0082637Y0117763D02*
X0085800Y0114600D01*
X0091400Y0114600D01*
X0096200Y0119400D01*
X0087716Y0126116D02*
X0085000Y0123400D01*
X0085000Y0117800D01*
X0082637Y0117763D02*
X0082637Y0135637D01*
X0087716Y0135637D02*
X0087716Y0126116D01*
X0111400Y0113800D02*
X0123400Y0125800D01*
X0163400Y0125800D01*
X0164800Y0127200D01*
X0164800Y0134459D01*
X0169800Y0134459D02*
X0169800Y0129000D01*
X0165000Y0124200D01*
X0125000Y0124200D01*
X0113800Y0113000D01*
X0113800Y0103400D01*
X0087450Y0082550D02*
X0087400Y0082600D01*
X0081250Y0082550D02*
X0081250Y0086850D01*
X0085000Y0090600D01*
X0135050Y0053550D02*
X0135950Y0053550D01*
X0136200Y0053800D01*
X0033000Y0085800D02*
X0029217Y0089583D01*
X0016748Y0089583D01*
X0059400Y0170600D02*
X0065800Y0170600D01*
X0067400Y0172200D01*
X0067400Y0181306D01*
X0067401Y0181306D01*
X0062322Y0181306D02*
X0062322Y0175122D01*
X0062200Y0175000D01*
X0036140Y0172260D02*
X0016748Y0172260D01*
X0016748Y0178165D02*
X0030635Y0178165D01*
X0147135Y0167400D02*
X0147635Y0166900D01*
X0147335Y0152200D02*
X0147635Y0151900D01*
X0147135Y0151400D01*
X0145800Y0151400D01*
X0177800Y0157800D02*
X0185000Y0163400D01*
X0185000Y0179141D01*
X0184800Y0179341D01*
X0189800Y0179341D02*
X0189800Y0184200D01*
X0179800Y0179341D02*
X0179800Y0163400D01*
X0201665Y0146600D02*
X0201965Y0146900D01*
M02*
